<svg width="425" height="371" viewBox="0 0 425 371" fill="none" xmlns="http://www.w3.org/2000/svg">
<path d="M400.653 366.928C398.888 366.928 397.123 366.697 395.403 366.243L395.152 366.173C390.986 365.068 386.941 364.033 383.13 363.089L377.365 361.666L371.567 360.33C337.43 352.367 308.773 347.616 281.358 345.377C263.432 343.913 248.73 343.228 235.088 343.228H234.928C228.828 343.117 222.577 343.059 216.345 343.059C212.502 343.059 208.576 343.08 204.679 343.125C194.65 343.236 184.588 343.484 174.777 343.872C165.008 344.255 155.51 344.771 146.558 345.406C137.398 346.053 129.159 346.791 121.373 347.661C105.83 349.393 90.0731 352.709 76.7036 355.719C72.0065 356.779 67.2641 357.682 62.6784 358.557C55.5977 359.905 48.913 361.183 42.3107 362.981L42.1045 363.035C37.9435 364.062 33.7372 365.142 29.5968 366.243C27.9102 366.697 26.1411 366.932 24.3637 366.932C13.1633 366.932 4.05371 357.814 4.05371 346.606V266.85C4.05371 255.671 13.1468 246.553 24.3224 246.524L78.4645 246.371L168.257 246.235L194.229 246.219L197.326 246.227L204.069 246.219H231.501C233.921 246.219 251.167 246.235 256.45 246.235C257.753 246.235 259.011 246.272 260.231 246.342V246.231L303.157 246.293L386.401 246.479L400.178 246.528C406.793 246.54 412.802 249.646 416.653 255.044C420.501 260.45 421.482 267.139 419.346 273.407C416.41 282.018 413.342 290.777 410.22 299.482C413.618 313.112 417 327.224 420.282 341.463L420.414 342.036C421.816 348.115 420.398 354.383 416.525 359.254C412.633 364.14 406.847 366.94 400.645 366.94L400.653 366.928Z" fill="white"/>
<path d="M236.474 314.192C230.202 314.192 223.335 309.903 218.762 306.385C216.354 306.81 213.203 307.173 209.467 307.173C201.599 307.173 189.318 305.519 175.499 297.655C154.785 285.865 140.376 266.095 137.885 246.07L137.023 239.117C133.786 239.307 130.763 239.501 127.889 239.703L127.662 239.719H127.435C126.8 239.736 126.165 239.744 125.53 239.744C100.948 239.744 78.6294 230.626 64.3031 214.729L54.1832 203.499L59.5731 202.254C57.8658 199.986 56.4018 197.565 55.1935 195.021L48.0758 179.985L52.2697 180.6C50.5336 173.779 50.9171 166.154 53.3914 158.681C48.7974 156.71 44.7478 154.1 41.4034 150.933L39.0528 148.702L38.6858 145.481C37.894 138.532 39.4322 131.122 43.387 122.829L44.4756 120.548C43.9478 119.93 43.4406 119.27 42.9622 118.565L35.8857 108.168L38.2981 107.529L43.5519 104.403C42.5828 103.834 41.6137 103.236 40.6446 102.609L23.2791 91.3059L43.4323 86.4852C46.6654 85.7099 49.8325 85.215 52.8883 84.7366C55.7379 84.2913 58.439 83.8665 60.9958 83.2521C57.0328 80.4231 53.3461 76.9838 50.3728 72.6414L37.061 53.1851L59.9112 58.9832C64.2701 60.0884 68.5631 60.6492 72.6745 60.6492C73.7055 60.6492 74.7406 60.6121 75.7509 60.542L76.0272 60.5255C86.2998 60.1296 96.1434 55.5893 106.564 50.785L108.832 49.7416C126.363 41.23 143.997 36.236 161.317 34.871L158.294 31.1802L169.313 26.5615C172.224 25.3408 175.42 24.2109 179.082 24.2109C180.686 24.2109 182.262 24.4336 183.767 24.8707C188.015 25.9718 192.254 27.1842 196.353 28.3595C202.955 30.2482 209.203 32.0338 215.587 33.4359C211.43 29.6379 187.326 12.429 187.326 12.429L198.86 5.37312C201.582 4.13184 204.568 3.52563 207.99 3.52563C210.024 3.52563 211.937 3.73595 213.624 3.92152C214.345 3.99988 215.067 4.08235 215.776 4.13596L216.024 4.15658L216.271 4.18957C233.332 6.50306 249.633 13.7981 263.192 24.9037L257.506 6.30099L275.733 14.9405C287.907 20.7097 298.587 30.6028 306.621 43.5517C313.285 53.9109 317.982 66.4102 320.588 80.6994C323.12 94.139 322.98 106.997 320.155 118.862C319.726 120.812 319.149 122.738 318.435 124.627C320.745 125.579 323.079 126.899 325.219 128.874L325.784 129.398L326.25 130.008C331.306 136.619 330.902 144.425 330.605 150.124L330.518 151.951L330.428 152.483C329.628 157.23 326.539 160.805 322.06 162.537C321.953 163.325 321.85 164.121 321.743 164.925C321.215 168.925 320.671 173.012 319.85 177.14L327.764 169.556L321.895 197.677C319.623 208.559 313.272 218.432 304.014 225.471L303.854 225.591C297.668 230.074 289.985 232.672 281.642 233.105H281.515C280.451 233.15 279.362 233.171 278.273 233.171C270.966 233.171 263.37 232.329 253.881 230.453C251.625 231.661 249.27 232.783 246.775 233.835C262.615 248.713 269.951 263.497 268.615 277.923C266.636 299.284 246.268 310.79 243.08 312.464C241.13 313.594 238.858 314.188 236.47 314.188L236.474 314.192ZM164.723 247.221C167.54 254.19 172.913 260.879 181.14 267.65C181.981 268.339 182.831 268.982 183.693 269.576C182.814 267.056 182.192 264.367 181.944 261.477L179.965 238.305L196.914 254.231C199.124 256.309 200.959 258.462 202.728 260.549C204.159 262.227 205.512 263.823 206.906 265.172L196.811 230.622C193.652 228.968 190.538 226.89 187.73 224.131C186.32 222.886 185.153 221.541 184.15 220.242C182.311 220.733 180.27 221.203 177.952 221.343L173.841 221.591C172.484 223.343 171.033 224.779 169.721 226.082C168.439 227.356 167.329 228.457 166.682 229.476L166.488 229.781L166.269 230.069C163.366 233.921 162.793 240.309 164.715 247.216L164.723 247.221ZM212.275 248.136L205.999 236.597C205.805 236.453 205.611 236.305 205.413 236.156L200.695 232.507L200.708 232.465C199.425 231.917 198.13 231.315 196.844 230.643L212.275 248.136ZM122.565 213.054C125.155 213.294 127.786 213.417 130.446 213.417C133.947 213.417 137.518 213.207 141.097 212.79C136.367 211.475 132.206 209.397 128.767 206.629L122.569 213.054H122.565ZM117.055 202.386L123.847 201.561C123.505 201.103 123.175 200.633 122.858 200.155L122.722 199.941C122.198 199.095 121.715 198.237 121.266 197.376L117.055 202.382V202.386ZM238.853 199.516C244.165 200.019 249.514 200.633 254.685 201.223C256.314 201.409 257.93 201.594 259.539 201.776C258.153 200.996 256.78 200.167 255.427 199.281C251.485 196.782 248.483 193.606 245.835 190.802C243.163 187.977 240.858 185.536 238.276 184.418L238.066 184.328L237.86 184.225C236.878 183.738 235.703 183.482 234.466 183.482C233.228 183.482 231.954 183.742 230.812 184.229C229.125 184.959 227.389 187.223 225.921 189.342L225.74 189.606L225.537 189.858C225.438 189.977 225.29 190.159 225.137 190.336L225.022 190.472L219.748 196.967C224.94 198.035 230.449 198.621 236.115 199.223L238.853 199.516ZM264.764 176.294L265.411 177.152C267.287 179.631 269.799 181.668 272.298 182.744L272.562 182.86L272.817 182.992C274.413 183.804 276.331 184.249 278.224 184.249C280.22 184.249 282.042 183.75 283.383 182.843C288.34 178.637 289.841 170.669 290.657 163.407L290.707 162.978L290.797 162.554C291.379 159.811 291.47 156.813 291.453 153.935C291.024 153.861 290.558 153.791 290.179 153.737C289.68 153.687 289.177 153.63 288.674 153.576C287.115 153.403 285.643 153.238 284.377 153.238C283.952 153.238 283.572 153.254 283.226 153.292L282.047 153.415L281.597 153.341L279.11 154.372C276.921 155.279 274.855 156.698 272.978 158.587L272.57 158.995L272.116 159.345C269.386 161.457 267.337 164.323 266.331 167.432C266.186 167.927 266.034 168.418 265.881 168.913C265.658 169.634 265.448 170.315 265.291 170.921L264.062 175.729L264.764 176.299V176.294ZM152.731 181.87C154.611 182.323 156.991 182.513 159.065 182.678L160.492 182.794L160.921 182.872C165.606 183.726 170.645 183.738 175.985 183.75H177.845C178.41 183.734 178.979 183.709 179.552 183.688C183.969 183.523 188.138 183.367 190.971 181.841L191.355 181.635L191.755 181.466C197.854 178.909 199.986 169.799 200.716 164.595L200.774 164.187L200.869 163.783C201.768 159.985 201.829 156.644 201.071 154.137C199.236 153.456 196.629 153.238 193.912 153.007C192.905 152.92 191.912 152.838 190.934 152.731L190.489 152.681L190.052 152.59C188.629 152.289 186.975 152.252 185.54 152.252C184.843 152.252 184.15 152.265 183.454 152.273C182.67 152.285 181.891 152.294 181.111 152.294C180.587 152.294 180.064 152.289 179.544 152.277C179.012 152.289 178.48 152.294 177.944 152.294C177.627 152.294 177.313 152.294 176.996 152.289C172.369 154.351 166.076 158.092 162.154 164.253L161.762 164.867L161.275 165.412C160.574 166.191 159.861 167.671 159.106 169.238C158.818 169.841 158.525 170.439 158.228 171.028L152.739 181.862L152.731 181.87ZM105.278 183.095C105.509 182.987 105.731 182.893 105.938 182.806L106.907 181.358C106.362 181.936 105.822 182.517 105.282 183.095H105.278ZM115.365 172.488C115.01 172.822 114.668 173.136 114.338 173.432C113.703 174.014 112.977 174.67 112.721 175.028L112.334 175.573L111.868 176.055C110.96 176.991 110.078 177.96 109.336 178.785L109.15 178.987C108.449 179.717 107.752 180.455 107.059 181.194L110.651 180.492C111.616 180.303 112.581 180.084 113.538 179.866C114.247 179.705 114.956 179.544 115.666 179.391L116 179.321C115.806 177.828 115.662 176.389 115.542 175.024C115.476 174.171 115.418 173.321 115.365 172.48V172.488ZM91.5783 166.488C91.8835 166.257 92.1886 166.022 92.502 165.779C94.1557 164.508 95.8671 163.193 97.7558 161.948C97.9744 161.795 98.1929 161.642 98.4115 161.49C98.593 161.366 98.8239 161.205 98.9806 161.094L100.003 159.774C98.1682 159.807 96.296 159.848 94.3908 159.906L91.5783 166.484V166.488ZM230.35 136.705C230.56 136.71 230.779 136.714 230.997 136.714C231.975 136.714 233.022 136.66 234.165 136.545C234.56 135.819 235.055 134.969 235.69 134.116C239.711 128.223 245.724 125.332 251.629 123.084L252.367 122.804C255.068 115.051 258.891 108.927 263.79 104.506L263.716 103.954L263.184 104.152L263.658 103.525L263.382 101.512L265.609 100.931L272.624 91.6111C271.758 92.1802 270.929 92.6627 270.174 93.0998L240.218 110.585L239.385 117.167L236.899 112.523L223.282 120.47L234.338 107.739L226.214 92.572C222.09 84.8727 214.927 77.9529 205.5 72.5548C194.547 66.3855 181.664 63.107 168.303 63.107C153.63 63.107 139.415 66.9587 127.184 74.2456C126.775 74.4971 126.363 74.7446 125.946 74.992C125.501 75.2518 124.903 75.6064 124.66 75.792L123.216 77.4828L120.981 78.2787C120.289 78.5261 119.101 79.4581 118.528 79.9076L118.375 80.0272L118.218 80.1385C111.154 85.1903 104.894 91.343 99.1579 97.4257L115.402 87.747L115.22 87.4419L115.649 87.5986L127.58 80.4891L121.188 89.5987L131.703 93.3967L126.313 84.481L148.409 91.0791C149.885 91.5204 151.271 92.0359 152.492 92.4936C153.036 92.6957 153.556 92.8895 154.051 93.0668L144.248 82.7613L175.136 90.4853C176.208 90.7575 177.276 91.0255 178.348 91.2688L182.835 92.2874L183.363 93.5617C187.734 95.4834 191.652 98.3701 194.914 101.983L198.559 95.8752L199.854 99.2938L208.456 80.2458L209.207 105.772L214.906 99.3639L213.822 123.167L213.995 123.208L214.382 123.34C218.671 124.804 222.135 126.726 224.845 129.155L230.824 128.458L226.218 130.495C227.096 131.435 227.88 132.441 228.573 133.518C229.336 134.627 229.892 135.707 230.346 136.697L230.35 136.705ZM103.669 114.56C101.946 117.018 100.098 119.303 98.2177 121.484C101.521 121.447 104.853 121.394 108.123 121.29C108.647 121.278 109.562 121.043 109.905 120.952L110.903 120.697L111.488 120.684L112.734 120.284L114.495 120.429C114.684 120.445 114.878 120.457 115.072 120.47L107.785 108.68L103.661 114.556L103.669 114.56ZM113.558 102.651L112.758 101.607L112.297 102.263L113.558 102.651ZM122.895 100.312L118.656 93.207L115.806 97.2649L122.895 100.312ZM233.389 64.7896C233.67 65.1236 233.946 65.4576 234.218 65.804C238.907 71.6723 244.136 79.6808 242.891 89.4914L241.641 99.3227L258.619 79.7715C261.469 76.4889 262.38 71.1774 260.887 66.5463L260.825 66.3484C259.217 60.9461 255.786 55.713 250.206 50.2489C249.134 54.2119 246.887 57.7295 243.674 60.2038C240.796 62.5462 237.352 64.0803 233.385 64.7896H233.389Z" fill="white"/>
<path d="M319.182 135.423C315.462 131.988 310.056 131.583 305.425 130.041C308.34 126.132 310.427 121.641 311.474 116.874C314.184 105.558 313.973 93.6935 311.829 82.3034C309.647 70.3484 305.709 58.5789 299.09 48.3146C292.5 37.6751 283.313 28.3964 271.914 22.9901C275.106 33.4275 280.521 44.0423 277.985 55.2592C275.976 52.4921 274.178 49.5807 272.092 46.8713C258.392 28.85 237.6 16.0661 215.075 13.0145C210.927 12.6887 206.506 11.6701 202.551 13.4763C203.26 14.231 203.998 14.9815 204.91 15.4888C211.537 19.3033 218.234 23.2829 223.599 28.8129C226.329 31.8522 229.125 35.5348 228.845 39.8525C228.857 41.568 227.438 43.1598 225.723 43.3206C221.855 43.6588 217.987 42.9866 214.205 42.2484C203.116 39.8566 192.336 36.2895 181.375 33.4481C178.435 32.5409 175.457 33.6378 172.752 34.7678C176.261 39.0483 181.136 41.7288 185.482 45.0114C178.958 44.1165 172.389 43.201 165.783 43.5062C147.304 44.3599 129.225 49.725 112.643 57.783C101.108 63.0698 89.2936 68.9174 76.3694 69.4164C70.097 69.8535 63.7999 69.1483 57.7172 67.6019C63.5814 76.1754 73.5075 80.6374 82.716 84.6787C77.1571 88.6541 70.2991 90.0727 63.7875 91.7182C57.7667 93.2522 51.5315 93.6894 45.4941 95.1327C51.2469 98.8772 57.6183 101.764 64.4597 102.741C62.3071 104.028 59.9771 104.964 57.8327 106.242C60.1256 107.117 62.5256 107.632 64.8845 108.292C60.5256 111.179 55.3048 112.222 50.319 113.542C52.1913 116.296 54.9914 118.185 57.7502 119.958C61.3916 122.255 65.3175 124.313 69.6434 124.853C68.6619 126.668 67.7299 128.515 66.765 130.346C61.4493 130.239 56.3729 128.441 51.4242 126.647C48.785 132.181 46.8261 138.256 47.5354 144.458C52.5253 149.188 59.0699 151.873 65.7464 153.147C59.9235 162.591 57.3378 175.672 64.0144 185.35C66.1216 188.373 69.5939 189.948 72.1837 192.472C69.1733 192.315 66.2289 191.631 63.2432 191.194C66.6454 198.382 72.6538 203.998 79.6066 207.701C76.7034 207.949 73.7714 208.089 70.9177 208.749C85.0089 224.382 106.523 231.207 127.262 230.803C132.986 230.399 138.866 230.057 144.829 229.752L146.718 244.952C149.052 263.753 163.436 280.525 179.899 289.898C203.132 303.123 221.018 296.686 221.018 296.686C221.018 296.686 233.628 307.956 238.742 304.674C238.742 304.674 292.303 278.141 228.845 230.432C236.705 228.354 244.462 225.636 251.522 221.57C252.144 221.158 252.895 221.145 253.6 221.302C262.656 223.178 271.906 224.552 281.185 224.205C287.37 223.888 293.581 222.036 298.633 218.374C305.899 212.852 311.313 204.831 313.186 195.85C310.984 197.957 308.357 199.561 305.458 200.505C306.402 199.19 307.235 197.792 307.816 196.278C305.524 197.161 303.227 198.101 300.773 198.41C305.486 193.755 308.175 187.523 309.738 181.177C312.204 172.542 312.716 163.527 314.233 154.714C317.116 154.986 321.066 154.463 321.648 150.999C321.887 145.815 322.53 139.798 319.178 135.414L319.182 135.423ZM71.2847 107.24C79.2974 105.463 85.347 99.5947 90.539 93.6028C97.4753 86.1303 104.717 78.8476 113.026 72.9052C114.552 71.7092 116.136 70.5587 117.975 69.903C119.204 68.4679 120.961 67.6472 122.528 66.6616C148.698 51.024 183.206 49.791 209.916 64.8389C219.747 70.4638 228.659 78.3033 234.057 88.382C234.87 81.9982 231.067 76.1341 227.253 71.3628C220.16 62.4553 209.59 57.5479 201.285 50.0013C208.036 51.857 214.609 54.4179 221.496 55.7829C227.055 56.6242 233.534 57.0654 238.156 53.2261C241.526 50.7106 242.589 46.1414 241.736 42.166C240.994 37.2091 237.946 33.1224 235.224 29.0727C236.297 29.5552 237.583 29.782 238.404 30.6645C242.272 32.0955 245.497 34.7678 248.771 37.1885C257.609 44.1908 266.067 52.7478 269.362 63.8203C271.725 71.136 270.446 79.7466 265.345 85.619C266.933 84.6952 268.557 83.7921 269.873 82.489C274.36 78.1548 279.91 74.7444 283.094 69.2184C286.385 64.109 286.587 57.9108 287.028 52.055C286.273 50.2157 286.088 48.2198 285.779 46.2733C292.797 55.2839 295.395 67.7586 292.096 78.7486C291.453 81.1364 290.088 83.223 288.616 85.1777C289.296 84.9262 289.973 84.6705 290.653 84.4148L290.669 83.9983C291.791 83.1241 292.999 82.3776 294.278 81.7673C296.34 78.3404 298.694 75.0331 299.965 71.1649C299.878 78.3569 297.424 85.2767 294.068 91.5573C296.464 90.3532 298.315 88.3861 300.257 86.5922C299.895 93.6399 297.499 100.49 293.738 106.432C296.27 105.492 298.179 103.57 300.332 102.032C301.618 99.2607 303.767 96.8441 304.942 93.9492C305.136 101.001 304.732 108.23 302.336 114.927C300.286 120.734 295.837 125.521 290.414 128.367C288.121 129.274 285.684 129.707 283.226 129.802C283.783 124.42 288.801 121.806 292.422 118.622C289.416 118.709 286.706 120.078 283.943 121.109C284.851 118.944 285.931 116.775 287.824 115.307C288.249 114.399 288.859 113.603 289.391 112.766C286.158 113.043 282.978 113.694 279.77 114.181L279.783 114.494C275.457 115.834 272.281 119.134 269.271 122.334C270.52 115.505 275.584 110.028 280.974 105.999C281.543 105.541 282.112 105.084 282.673 104.626C279.329 105.183 276.529 107.306 273.267 108.156L273.312 108.49C265.522 113.154 261.555 121.954 259.357 130.416C258.128 130.697 256.891 130.981 255.658 131.266C255.439 131.303 255.002 131.39 254.784 131.427C250.33 133.122 245.658 135.192 242.924 139.32C241.315 141.365 240.763 144.767 237.694 145.101C233.319 145.736 228.729 145.967 224.42 144.891C223.03 142.924 222.552 140.454 221.154 138.479C218.997 135.035 215.24 133.072 211.504 131.798C209.195 131.241 207.104 129.926 204.667 129.917C204.39 127.975 204.774 126.02 204.86 124.082C203.508 125.604 202.114 127.093 200.642 128.495C200.918 125.377 200.774 122.247 200.679 119.121C199.858 120.94 198.926 122.717 197.858 124.412C197.809 121.67 197.734 118.882 196.753 116.288C195.957 117.62 195.38 119.068 194.98 120.564C192.827 112.259 187.111 104.626 178.983 101.413C178.204 100.898 176.719 100.824 176.369 99.9824C174.843 99.636 173.329 99.2401 171.812 98.8607C172.719 99.8133 173.63 100.758 174.529 101.718C179.779 104.923 184.031 110.053 186.703 115.608C182.468 112.115 177.944 108.981 172.938 106.663C167.461 104.415 161.564 103.648 155.758 102.737C152.298 102.242 149.168 100.63 145.848 99.6401C146.726 101.096 147.77 102.44 148.883 103.727C150.372 104.927 151.811 106.181 153.242 107.442C150.463 107.946 147.638 107.991 144.825 107.838L145.048 107.644C141.708 107.145 138.759 105.446 135.621 104.317C137.885 108.106 141.699 110.605 145.452 112.75C148.446 113.727 151.217 115.265 154.129 116.449C147.452 117.426 140.405 117.566 134.095 114.857C135.266 116.387 136.883 117.455 138.396 118.618C135.613 118.573 132.899 117.925 130.256 117.117C131.773 118.639 133.34 120.111 134.862 121.624C131.415 121.942 128.177 120.68 124.981 119.595C126.256 121.657 128.012 123.344 129.798 124.956C132.013 126.28 134.198 127.649 136.326 129.109C128.812 128.528 121.282 129.95 113.777 129.34C113.241 129.513 112.688 129.604 112.115 129.616C110.903 129.926 109.67 130.198 108.399 130.227C98.4279 130.54 88.4482 130.4 78.4767 130.734C83.9985 123.294 91.0421 117.08 96.3783 109.48C88.4564 114.201 79.2355 120.041 69.664 116.882C76.3241 115.533 83.248 112.408 86.8316 106.358C81.5943 106.16 76.4148 110.226 71.2847 107.269V107.24ZM178.641 118.952C175.775 117.265 173.218 115.03 170.096 113.801C165.659 112.012 160.818 111.793 156.096 111.81C164.088 108.948 173.973 111.645 178.641 118.952ZM135.427 187.569C137.596 192.423 142.223 195.911 147.39 197.017C156.772 199.103 166.443 199.004 176.002 198.914C184.596 198.303 193.858 198.179 201.277 193.186C210.972 186.427 214.283 174.203 215.937 163.123C215.566 161.976 216.25 160.958 216.861 160.059C217.149 162.042 217.24 164.104 216.56 166.034C215.57 174.785 212.374 183.544 206.539 190.274C202.79 194.592 197.524 197.326 192.015 198.621C181.759 201.046 171.156 200.126 160.723 200.246C153.753 199.598 146.124 199.718 140.104 195.627C134.433 191.713 132.066 184.732 131.138 178.195C130.594 172.772 130.05 167.296 130.487 161.844C130.421 159.316 130.821 156.809 131.398 154.351C131.728 154.331 132.388 154.289 132.718 154.269C132.582 155.832 132.619 157.481 131.926 158.929C132.239 168.5 131.237 178.612 135.427 187.573V187.569ZM143.324 149.44C146.66 145.58 151.964 144.095 156.9 143.881C154.516 147.332 152.467 150.999 151.168 155.011C149.902 158.854 149.242 163.028 150.281 167.007C151.588 164.43 152.694 161.646 154.64 159.473C159.077 152.508 165.997 147.423 173.49 144.103C167.919 144.751 162.24 146.569 158.038 150.425C156.888 151.465 155.696 152.471 154.438 153.403C155.094 149.526 158.137 146.438 161.564 144.776C167.321 142.677 173.56 143.518 179.552 143.374C183.656 143.489 187.829 143.027 191.878 143.881C197.338 144.466 203.471 144.355 208.019 147.906C211.112 153.271 210.898 160.005 209.524 165.828C208.23 175.074 204.489 185.779 195.19 189.676C189.982 192.484 183.8 192.402 178.018 192.658C171.791 192.629 165.461 192.748 159.321 191.627C153.869 191.177 147.452 190.909 143.431 186.682C139.345 181.383 138.953 174.319 138.73 167.886C139.229 164.603 138.792 161.09 140.087 157.988C139.984 154.838 141.485 151.889 143.32 149.431L143.324 149.44ZM56.1955 140.281C54.1913 139.509 54.7192 137.25 54.9336 135.588C58.6451 136.396 62.3978 137.786 66.2412 137.146C71.6724 136.516 77.0787 137.674 82.5098 137.46C87.611 137.353 92.7329 137.744 97.8134 137.101C107.414 136.672 117.055 137.291 126.643 136.685C126.441 137.852 126.268 139.019 126.12 140.198C125.79 141.233 125.447 142.277 125.117 143.316C108.028 143.299 90.9431 143.328 73.858 143.299C67.9568 142.648 61.639 142.998 56.1997 140.272L56.1955 140.281ZM243.608 256.763C245.864 259.645 248.206 262.528 249.773 265.872C250.833 267.39 251.538 269.308 251.567 271.163C252.565 273.366 252.384 275.807 252.264 278.157C251.299 277.803 250.33 277.469 249.353 277.16C242.519 274.232 236.61 269.605 231.303 264.479C234.668 270.66 240.317 275.423 242.8 282.108C243.938 287.473 242 292.97 239.134 297.461C233.15 287.539 225.814 278.52 219.034 269.151C218.102 268.359 217.368 267.365 216.56 266.45C218.391 272.718 221.17 278.681 224.461 284.31C224.878 285.11 225.29 285.91 225.702 286.714C216.201 284.681 208.238 278.628 201.293 272.112C197.491 268.598 194.588 264.264 190.819 260.722C191.656 270.528 198.778 277.988 203.611 286.059C204.543 286.475 204.972 287.477 205.549 288.257C199.438 286.496 193.623 283.89 187.676 281.663C183.231 280.013 179.14 277.522 175.478 274.524C167.457 267.914 160.112 259.889 156.286 250.091C153.869 241.797 153.745 231.9 159.168 224.708C161.469 221.083 165.172 218.675 167.535 215.129C160.117 216.922 153.04 220.073 145.444 221.191C133.881 222.906 121.959 222.733 110.536 220.147C108.585 219.739 106.717 219.001 104.952 218.085C104.952 217.755 104.964 217.087 104.968 216.757C107.051 215.223 109.331 213.941 111.142 212.069C105.344 212.77 99.5083 214.275 93.6525 213.013C96.9351 210.357 100.605 208.106 103.348 204.844C98.3248 206.881 92.638 209.157 87.2358 207.112C97.8877 202.703 106.647 195.021 116.515 189.251C116.857 188.864 117.191 188.48 117.521 188.101C115.798 188.468 114.082 188.897 112.346 189.235C111.529 190.46 109.826 190.691 108.585 191.388C100.086 195.722 89.673 198.208 80.4685 194.658C88.7492 188.303 95.5206 180.331 102.713 172.826C103.616 171.824 104.527 170.83 105.467 169.857C106.861 167.902 108.911 166.533 110.494 164.735C108.902 165.378 107.348 166.129 105.781 166.842C104.981 167.873 103.83 168.537 102.783 169.288C97.6526 172.653 93.2277 177.243 87.3306 179.305C84.0728 180.633 80.5551 181.383 77.0416 180.855C76.3653 177.362 78.5221 174.348 79.8293 171.296C77.2973 173.127 75.0085 175.263 72.8105 177.478C74.2415 173.441 75.7838 169.42 77.9076 165.692C75.2519 166.896 72.8971 168.632 70.6249 170.447C71.0167 163.997 73.9075 157.993 77.7262 152.895C78.8231 151.477 80.8479 151.741 82.4274 151.489C96.5845 150.747 110.808 150.5 124.969 151.295C123.864 158.887 123.814 166.607 124.408 174.249C125.039 181.507 126.416 188.971 130.297 195.256C134.59 201.788 142.553 204.716 150.046 205.359C161.247 206.501 172.566 206.452 183.787 205.743C182.67 208.815 179.684 210.353 177.416 212.452C181.029 212.234 184.373 210.625 187.928 210.229C189.817 212.737 191.371 215.533 193.796 217.599C198.613 222.432 205.124 224.782 211.43 226.968C211.244 227.677 211.059 228.387 210.861 229.1C213.805 231.376 217.154 233.096 219.95 235.566C228.907 241.27 236.866 248.544 243.604 256.751L243.608 256.763ZM212.506 214.729C215.925 215.03 219.158 216.258 222.498 216.935C228.762 218.279 235.204 218.226 241.571 218.337C231.946 221.463 221.092 219.982 212.502 214.729H212.506ZM282.677 217.59C276.149 217.623 269.613 217.52 263.102 217.162C252.087 215.467 240.903 215.797 229.839 214.704C224.783 213.665 219.339 213.636 214.675 211.269C209.45 210.79 204.737 207.937 199.838 206.188C198.46 205.986 197.091 205.71 195.718 205.503C197.825 208.093 200.868 209.57 203.59 211.384C207.083 213.59 209.99 216.609 213.661 218.547C217.702 220.873 222.234 222.036 226.758 223.022C221.921 224.197 216.931 223.154 212.18 222.065C205.673 220.308 199.351 217.124 194.728 212.126C192.332 209.623 191.095 206.341 189.788 203.194C192.142 202.98 194.452 202.349 196.819 202.336C198.897 202.571 200.749 203.648 202.621 204.489C217.603 210.815 234.094 211.223 250.058 212.609C261.794 213.462 273.444 215.364 285.218 215.739C287.585 215.726 289.973 215.599 292.311 216.056C289.313 217.483 285.923 217.471 282.677 217.59ZM297.144 212.143C296.303 212.617 295.375 212.972 294.397 212.939C275.473 213.269 256.751 210.159 237.963 208.382C225.389 207.013 212.188 206.019 200.967 199.619C203.945 199.664 205.726 197.326 207.467 195.289C211.145 191.722 213.339 186.987 216.787 183.239C217.24 183.771 217.686 184.303 218.135 184.835C218.251 184.695 218.494 184.418 218.609 184.274C220.89 180.987 223.554 177.676 227.323 176.047C231.888 174.1 237.327 174.034 241.814 176.253C249.431 179.544 253.377 187.47 260.256 191.804C269.922 198.155 281.213 201.375 291.948 205.388C292.509 205.726 292.983 206.176 293.486 206.592C295.705 207.4 297.602 209.677 297.144 212.147V212.143ZM221.03 174.459C221.541 170.9 222.424 167.395 223.71 164.034L224.02 164.009C225.607 161.609 228.692 161.292 231.323 161.411C234.103 161.539 237.596 162.764 238.02 165.927C239.34 167.486 239.381 169.779 239.971 171.688C233.665 169.176 226.461 170.591 221.026 174.455L221.03 174.459ZM242.161 160.986C242.726 160.76 243.282 160.537 243.843 160.318C244.371 164.001 244.412 167.729 244.948 171.416C243.443 168.121 242.622 164.566 242.161 160.986ZM249.781 160.739C249.814 155.065 252.458 149.188 257.613 146.413C256.198 149.885 254.85 153.423 254.553 157.197C253.963 161.04 253.575 165.811 256.672 168.723C257.006 167.411 257.444 166.133 257.819 164.838C259.39 159.881 262.565 155.485 266.673 152.31C269.271 149.704 272.306 147.563 275.704 146.153C268.594 145.526 262.833 150.825 258.248 155.609C258.891 150.5 262.664 145.802 267.935 145.073C272.685 144.574 277.527 143.675 282.298 144.442C285.288 144.128 288.298 144.602 291.272 144.903C294.006 145.299 297.156 145.757 298.946 148.116C300.187 149.39 300.171 151.436 300.356 153.114C300.398 156.887 300.299 160.702 299.515 164.405C298.488 173.564 296.352 183.796 288.814 189.924C283.143 194.056 274.92 194.052 268.788 190.934C264.681 189.169 261.019 186.105 258.318 182.534C254.714 179.602 251.617 175.676 250.722 171.032C249.476 167.745 249.798 164.187 249.781 160.743V160.739ZM305.342 172.29C303.833 179.787 302.146 187.808 296.608 193.478C293.276 196.732 288.476 199.627 283.671 198.171C289.927 197.318 295.75 193.635 298.798 188.047C303.35 179.449 304.509 169.564 305.911 160.075C305.738 158.566 305.891 156.574 306.86 155.568C306.905 158.017 307.346 160.558 306.468 162.925C306.616 166.079 305.853 169.193 305.342 172.29ZM309.627 148C309.062 145.229 309.829 141.163 306.476 140C299.948 137.93 293.02 137.872 286.245 137.332C276.248 137.212 266.091 136.965 256.318 139.406C253.761 140.062 251.097 141.114 249.497 143.324C247.798 145.699 247.08 148.59 246.334 151.366C237.158 153.547 227.364 153.852 218.317 150.953C217.339 146.157 215.455 140.557 210.023 139.378C194.955 135.493 179.202 137.023 163.803 136.779C156.248 137.122 148.603 137.452 141.205 139.163C137.662 139.736 137.105 143.811 135.654 146.458C133.992 146.293 131.773 146.685 130.561 145.345C130.747 142.677 131.773 140.165 132.495 137.608C151.23 134.28 170.294 134.895 189.223 134.99C196.411 135.575 203.788 135.468 210.712 137.724C214.036 138.726 216.96 141.225 218.011 144.594C218.811 146.652 219.051 149.629 221.715 150.095C228.366 151.782 235.496 151.596 242.206 150.285C244.87 149.947 245.654 147.093 246.684 145.06C248.107 141.633 251.056 138.916 254.561 137.74C260.174 135.86 266.166 135.913 271.997 135.439C283.828 135.406 295.82 135.056 307.458 137.538C312.064 138.347 311.907 144.178 312.41 147.803C311.487 147.869 310.555 147.93 309.627 147.996V148ZM318.147 148.475C317.553 148.458 316.951 148.446 316.357 148.446C316.316 146.644 316.312 144.85 316.336 143.056C316.67 143.072 317.343 143.114 317.677 143.134C318.093 144.883 318.246 146.681 318.147 148.475Z" fill="#0F1E28"/>
<path d="M261.011 67.7998C260.722 63.9152 260.215 59.3666 257.089 56.6531C260.178 63.7667 260.178 72.2495 257.106 79.3714C260.735 76.827 261.044 71.8412 261.011 67.7998Z" fill="#0F1E28"/>
<path d="M184.86 99.5411C178.567 91.7718 168.727 86.452 158.583 87.0829C164.735 90.0191 171.028 92.6831 176.954 96.0812C179.618 97.0956 181.767 100.531 184.86 99.5411Z" fill="#0F1E28"/>
<path d="M231.022 183.536C230.239 182.682 229.319 181.973 228.395 181.276C225.674 182.187 223.471 184.204 222.152 186.728C221.843 189.532 222.795 192.254 224.498 194.46C226.375 193.351 228.511 192.534 229.987 190.876C231.534 188.761 231.047 185.977 231.022 183.536Z" fill="#0F1E28"/>
<path d="M287.024 52.0511C286.583 57.907 286.381 64.101 283.09 69.2146C279.906 74.7405 274.351 78.151 269.869 82.4851C268.553 83.7883 266.929 84.6914 265.341 85.6151C264.025 86.4935 262.681 87.3307 261.312 88.1348C262.57 83.8336 265.374 80.0026 265.588 75.421C266.195 66.8021 262.392 58.6122 257.675 51.6428C254.594 46.9953 249.794 43.9354 246.305 39.6342C243.604 36.7021 240.375 34.2031 238.4 30.6648C237.579 29.7864 236.292 29.5596 235.22 29.073C237.942 33.1226 240.994 37.2052 241.732 42.1662C242.585 46.1416 241.521 50.7109 238.152 53.2264C233.534 57.0657 227.055 56.6245 221.492 55.7832C214.605 54.4141 208.032 51.8532 201.281 50.0015C209.586 57.5482 220.156 62.4556 227.249 71.3631C231.063 76.1385 234.866 82.0026 234.053 88.3822C228.659 78.3035 219.743 70.4682 209.912 64.8392C183.202 49.7912 148.698 51.0243 122.524 66.6619C120.957 67.6475 119.2 68.4682 117.971 69.9033C112.54 76.1014 106.173 81.6191 102.094 88.906C99.3558 93.5865 97.4671 98.7331 96.2258 103.995C99.5662 99.8218 103.067 95.5371 107.933 93.0628C106.206 96.3578 103.921 99.4342 103.117 103.133C101.822 108.857 101.921 114.775 101.81 120.602C106.75 115.051 112.057 109.257 119.229 106.7C113.777 111.83 107.917 117.257 106.008 124.812C109.546 121.893 112.808 118.466 117.183 116.787C114.165 120.565 111.125 124.466 109.785 129.2C110.556 129.34 111.327 129.468 112.103 129.592C112.676 129.58 113.228 129.489 113.765 129.316C119.018 127.563 124.396 126.165 129.786 124.932C128 123.32 126.243 121.633 124.969 119.571C128.165 120.656 131.402 121.917 134.85 121.6C133.328 120.086 131.761 118.614 130.243 117.092C132.891 117.901 135.6 118.548 138.384 118.594C136.871 117.435 135.254 116.363 134.083 114.833C133.745 114.424 133.411 114.02 133.077 113.608C137.139 113.249 142.124 115.996 145.444 112.729C141.691 110.585 137.877 108.086 135.613 104.296C138.751 105.43 141.7 107.125 145.04 107.624C146.409 106.403 147.601 105.018 148.875 103.711C147.762 102.424 146.722 101.08 145.84 99.6239C149.16 100.614 152.29 102.226 155.75 102.721C161.556 103.632 167.453 104.399 172.929 106.647C173.783 106.28 174.629 105.917 175.474 105.558C173.808 103.966 172.113 102.403 170.364 100.915C171.75 101.179 173.144 101.397 174.521 101.702C173.622 100.741 172.707 99.7971 171.804 98.8445C173.325 99.2238 174.839 99.6197 176.361 99.9661C176.517 98.6712 176.732 97.3722 176.942 96.0856C171.016 92.6875 164.723 90.0235 158.57 87.0915C168.715 86.4605 178.55 91.7803 184.847 99.5455C190.142 103.682 194.341 109.171 196.613 115.513C197.145 113.81 197.701 112.107 198.275 110.412C198.555 110.296 199.116 110.065 199.396 109.954C204.312 113.538 204.852 119.93 206.663 125.258C207.71 124.553 208.753 123.843 209.788 123.134C210.325 126.017 210.89 128.907 211.492 131.778C215.228 133.052 218.985 135.015 221.141 138.458C222.544 140.438 223.018 142.904 224.408 144.871C228.721 145.951 233.311 145.716 237.682 145.081C239.901 138.833 244.462 133.844 249.056 129.225C249.155 129.918 249.25 130.606 249.357 131.299C250.949 129.427 252.578 127.575 254.198 125.715C254.058 127.497 253.897 129.287 253.905 131.085C254.12 131.171 254.557 131.332 254.771 131.411C254.99 131.373 255.427 131.287 255.646 131.25C257.382 127.93 258.475 124.326 260.058 120.936C261.939 116.725 264.809 113.08 267.308 109.232C265.32 107.245 266.347 104.474 266.924 102.123C265.889 102.993 264.858 103.859 263.819 104.717C264.99 101.17 266.265 97.4753 269.139 94.9144C277.675 86.8688 285.465 77.2107 288.059 65.5114C288.595 61.0576 288.773 56.2698 287.008 52.0511H287.024ZM209.949 100.873C205.685 96.1639 200.357 92.6174 195.582 88.4936C198.712 86.7739 202.316 89.4503 204.914 91.1906C208.271 94.4938 212.877 97.8506 213.046 102.985C211.879 102.502 210.778 101.847 209.945 100.878L209.949 100.873ZM191.136 82.7119C191.796 82.1016 192.279 81.0624 193.305 81.1201C196.58 80.8356 199.664 82.3614 202.316 84.1305C204.597 85.71 207.083 87.1904 208.555 89.6235C205.306 88.774 202.679 86.5595 199.615 85.2646C196.955 83.9202 194.006 83.3965 191.136 82.7161V82.7119ZM227.975 92.003C212.234 77.3262 191.718 67.8537 170.393 65.1237C164.669 64.3649 158.863 63.602 153.118 64.6453C147.461 64.9588 141.576 68.0558 139.786 73.7467C139.163 73.4003 138.541 73.0498 137.914 72.7116C137.473 68.93 140.442 65.9609 143.531 64.3526C151.403 60.7648 160.203 60.4101 168.698 60.0926C166.269 58.2616 163.045 59.1854 160.224 58.9998C153.16 59.5978 145.828 60.6411 139.72 64.534C137.559 65.9196 135.646 67.6846 133.345 68.864C134.763 66.2537 137.345 64.6701 139.741 63.0783C148.665 57.4616 159.609 56.8471 169.861 57.3503C183.359 58.6988 196.831 62.604 208.217 70.1259C210.254 72.0518 212.51 73.6766 214.952 75.0498C222.638 81.6109 230.593 88.8482 234 98.6589C231.88 96.5392 230.136 94.0814 227.975 92.0071V92.003ZM239.682 106.573C239.521 104.729 239.649 102.886 239.827 101.059C240.218 96.2918 239.018 91.5823 237.443 87.1245C243.522 91.1865 244.825 101.298 239.682 106.573ZM257.101 79.3716C256.149 80.4521 254.928 81.2397 253.745 82.0398C256.879 74.4642 257.65 65.7052 254.33 58.0472C252.705 53.1604 249.287 49.2716 246.511 45.0406C250.759 48.2118 254.347 52.1047 257.085 56.6533C260.211 59.3668 260.718 63.9154 261.011 67.8001C261.04 71.8456 260.73 76.8272 257.101 79.3716Z" fill="#FC9903"/>
<path d="M286.344 78.6458C284.418 81.5324 282.801 84.6624 281.457 87.8584C284.385 85.78 285.927 82.1222 286.344 78.6458Z" fill="#FC9903"/>
<path d="M282.014 100.308C285.197 93.578 291.956 88.9716 294.278 81.759C293 82.3694 291.787 83.1158 290.665 83.99L290.649 84.4065C290.789 86.5757 288.855 87.9984 287.713 89.5985C283.643 95.1121 278.207 99.3184 272.991 103.665C272.97 105.162 273.061 106.659 273.271 108.139C276.533 107.29 279.333 105.166 282.673 104.609C284.855 101.987 287.23 99.4998 288.863 96.4771C286.632 97.8421 284.443 99.306 282.014 100.308Z" fill="#FC9903"/>
<path d="M296.802 113.422C299.029 110.053 300.534 106.106 300.332 102.02C298.183 103.558 296.266 105.479 293.738 106.42C292.558 107.249 291.408 108.11 290.241 108.976C287.857 107.29 285.135 106.176 282.678 104.613C282.117 105.075 281.552 105.533 280.983 105.991C281.725 106.201 282.471 106.403 283.214 106.618C281.77 108.976 279.185 111.121 279.778 114.173C282.983 113.69 286.166 113.034 289.395 112.762C288.867 113.599 288.257 114.399 287.832 115.302C287.791 116.292 287.816 117.282 287.828 118.276C291.544 117.987 293.42 114.317 296.806 113.43L296.802 113.422Z" fill="#FC9903"/>
<path d="M122.02 156.306C115.806 155.869 109.566 156.017 103.339 156.013C97.1907 155.956 90.5926 156.867 85.6728 160.859C83.6934 162.356 83.314 164.929 82.8975 167.209C86.044 165.197 89.4709 163.581 93.2112 163.115C89.8544 166.418 85.5285 169.49 84.9264 174.554C92.8071 171.68 99.6197 166.48 107.352 163.226C106.865 164.447 106.375 165.671 105.777 166.847C107.348 166.137 108.894 165.383 110.49 164.739C108.907 166.537 106.857 167.911 105.459 169.865C105.385 170.661 105.356 171.465 105.319 172.269C106.131 172.579 106.94 172.896 107.748 173.21C107.327 173.585 106.902 173.96 106.474 174.34C104.845 175.701 103.381 177.255 102.123 178.975C105.29 178.105 108.296 176.76 111.41 175.742C109.9 177.932 108.779 180.377 108.317 183.012C111.579 182.884 114.837 182.645 118.099 182.596C115.967 184.604 113.146 186.212 112.342 189.239C114.078 188.905 115.798 188.476 117.517 188.105C117.187 188.484 116.853 188.872 116.511 189.26C117.014 189.647 117.505 190.031 118 190.423C115.158 193.198 110.746 194.456 109.171 198.357C111.674 198.147 114.16 197.726 116.639 197.33C115.216 198.736 113.748 200.093 112.276 201.446C116.193 202.369 120.227 202.023 124.206 202.019C123.336 202.815 122.462 203.615 121.583 204.407C123.427 203.842 125.282 203.33 127.146 202.852C126.124 203.706 125.105 204.559 124.086 205.417C127.146 205.809 130.219 206.036 133.287 206.361C132.833 207.281 132.375 208.205 131.922 209.128C135.431 209.846 139.019 209.957 142.586 210.11C139.65 211.244 136.635 212.176 133.757 213.463C143.481 215.063 153.539 215.026 163.284 213.566C168.603 212.147 174.129 210.733 178.814 207.743C166.22 207.747 153.473 209.029 140.97 206.951C134.136 205.97 128.264 201.227 125.418 195.008C119.612 182.963 121.752 169.189 122.02 156.306Z" fill="#FC9903"/>
<path d="M210.856 229.113C199.116 225.76 187.054 220.205 174.591 222.869C168.905 224.333 164.381 229.57 163.84 235.434C163.139 242.156 165.601 248.8 169.177 254.404C174.55 263.06 182.583 269.535 190.353 275.935C194.604 279.498 198.299 284.009 203.603 286.067C198.769 277.993 191.648 270.537 190.81 260.726C190.749 259.217 190.773 257.703 190.802 256.198C194.402 259.897 197.202 264.281 200.79 268C207.215 275.168 214.943 281.242 223.682 285.325C223.875 285.069 224.259 284.566 224.453 284.314C221.166 278.685 218.387 272.722 216.552 266.45C217.36 267.365 218.09 268.359 219.026 269.151C220.515 269.481 222.337 269.506 223.117 271.085C227.566 277.988 232.75 284.372 237.695 290.913C239.031 287.609 238.915 283.997 237.996 280.603C239.13 281.803 240.28 282.974 241.447 284.145C241.901 283.465 242.35 282.78 242.8 282.104C240.317 275.419 234.668 270.656 231.303 264.475C236.61 269.601 242.519 274.227 249.353 277.155C249.806 275.06 250.619 273.077 251.563 271.159C251.538 269.299 250.833 267.386 249.769 265.864C248.986 265.906 248.198 265.988 247.41 266.062C248.045 267.877 248.614 269.72 249.039 271.601C246.458 268.367 245.456 263.943 241.851 261.563C242.895 264.718 244.915 267.411 246.107 270.5C242.792 269.572 240 267.526 237.179 265.642C229.707 260.957 222.374 255.893 214.16 252.569C211.397 251.373 208.209 250.886 206.015 248.651C208.378 247.843 210.877 247.67 213.351 247.579C211.863 246.573 210.366 245.587 208.856 244.614C213.207 240.952 218.556 244.878 222.989 246.264C221.331 243.839 218.824 242.28 216.547 240.511C217.335 240.14 218.123 239.781 218.906 239.414C216.914 239.364 214.918 239.323 212.927 239.241C214.321 236.643 217.261 235.942 219.95 235.575C217.154 233.104 213.809 231.385 210.861 229.108L210.856 229.113Z" fill="#FC9903"/>
<path d="M248.767 37.1843C245.489 34.7595 242.264 32.0955 238.4 30.6604C240.375 34.2028 243.608 36.6977 246.305 39.6339C249.794 43.931 254.598 46.995 257.675 51.6384C262.396 58.6077 266.199 66.8018 265.588 75.4207C265.374 80.0023 262.565 83.8333 261.312 88.1386C262.677 87.3345 264.025 86.4973 265.341 85.619C270.442 79.7466 271.72 71.136 269.357 63.8203C266.058 52.7519 257.6 44.1908 248.767 37.1885V37.1843Z" fill="#FFE587"/>
<path d="M257.089 56.6533C254.351 52.1047 250.763 48.2076 246.515 45.0405C249.291 49.2716 252.709 53.1604 254.334 58.0472C257.65 65.7093 256.879 74.4683 253.744 82.0438C254.928 81.2397 256.149 80.452 257.101 79.3757C260.174 72.2538 260.174 63.7669 257.085 56.6574L257.089 56.6533Z" fill="#FFE587"/>
<path d="M285.774 46.2654C286.084 48.2118 286.265 50.2078 287.024 52.047C288.789 56.2657 288.616 61.0535 288.075 65.5073C285.477 77.2066 277.692 86.8647 269.155 94.9103C266.281 97.4671 265.007 101.166 263.835 104.713C264.875 103.855 265.91 102.993 266.941 102.119C266.363 104.469 265.337 107.237 267.324 109.228C268.966 107.133 271.032 105.439 272.99 103.669C278.211 99.3187 283.642 95.1124 287.713 89.5988C288.859 88.0029 290.793 86.576 290.649 84.4069C289.964 84.6626 289.288 84.9182 288.612 85.1698C290.084 83.2151 291.445 81.1284 292.092 78.7407C295.391 67.7548 292.793 55.276 285.774 46.2654ZM281.453 87.8544C282.801 84.6584 284.413 81.5284 286.339 78.6417C285.919 82.1181 284.376 85.776 281.453 87.8544Z" fill="#FFE587"/>
<path d="M208.217 70.1218C196.831 62.5957 183.359 58.6904 169.861 57.3461C159.613 56.843 148.665 57.4533 139.745 63.07C137.353 64.6659 134.767 66.2453 133.349 68.8557C135.65 67.6763 137.559 65.9154 139.724 64.5257C145.832 60.6328 153.164 59.5936 160.228 58.9915C163.049 59.1812 166.273 58.2533 168.702 60.0843C160.203 60.3977 151.403 60.7606 143.535 64.3484C140.442 65.9525 137.472 68.9258 137.914 72.7074C138.545 73.0497 139.163 73.4002 139.79 73.7425C141.58 68.0516 147.469 64.9587 153.123 64.6453C158.867 63.6019 164.669 64.3649 170.397 65.1236C191.726 67.8578 212.242 77.3261 227.979 92.0029C230.144 94.0772 231.884 96.535 234.004 98.6547C230.601 88.844 222.642 81.6067 214.956 75.0456C212.51 73.6724 210.254 72.0476 208.217 70.1218Z" fill="#FFE587"/>
<path d="M299.965 71.1567C298.694 75.0249 296.344 78.3363 294.278 81.7591C291.956 88.9718 285.197 93.5781 282.013 100.308C284.442 99.3061 286.632 97.8422 288.863 96.4772C287.234 99.4999 284.855 101.991 282.673 104.609C285.131 106.172 287.857 107.286 290.236 108.972C291.399 108.111 292.554 107.245 293.733 106.416C297.499 100.477 299.89 93.6235 300.257 86.5758C298.311 88.3697 296.463 90.3368 294.063 91.545C297.428 85.2644 299.874 78.3446 299.96 71.1526L299.965 71.1567Z" fill="#FFE587"/>
<path d="M202.312 84.1264C199.664 82.3573 196.58 80.8356 193.305 81.1201C192.274 81.0583 191.796 82.1016 191.136 82.7119C194.006 83.3965 196.955 83.9202 199.615 85.2605C202.679 86.5553 205.306 88.7699 208.555 89.6194C207.075 87.1904 204.592 85.7058 202.312 84.1264Z" fill="#FFE587"/>
<path d="M239.686 106.572C244.829 101.298 243.526 91.1904 237.447 87.1243C239.022 91.578 240.227 96.2875 239.835 101.055C239.653 102.886 239.525 104.729 239.686 106.572Z" fill="#FFE587"/>
<path d="M204.914 91.1906C202.316 89.4462 198.712 86.7698 195.582 88.4936C200.357 92.6174 205.685 96.1639 209.949 100.873C210.778 101.842 211.879 102.498 213.046 102.981C212.877 97.8423 208.271 94.4896 204.914 91.1906Z" fill="#FFE587"/>
<path d="M304.942 93.9367C303.763 96.8317 301.614 99.2441 300.328 102.019C300.53 106.106 299.02 110.053 296.798 113.422C295.573 115.335 294.187 117.146 292.826 118.964C293.754 119.476 294.694 119.975 295.63 120.478C292.909 122.156 290.327 124.185 288.781 127.055C289.329 127.488 289.874 127.917 290.41 128.354C295.837 125.509 300.282 120.717 302.332 114.911C304.724 108.214 305.132 100.984 304.938 93.9326L304.942 93.9367Z" fill="#FFE587"/>
<path d="M243.604 256.763C236.866 248.556 228.907 241.282 219.95 235.583C217.261 235.954 214.321 236.655 212.927 239.249C214.919 239.331 216.914 239.373 218.906 239.422C218.123 239.789 217.335 240.148 216.547 240.519C218.824 242.288 221.335 243.847 222.989 246.272C218.552 244.886 213.203 240.956 208.856 244.622C210.366 245.6 211.863 246.585 213.351 247.587C210.877 247.678 208.378 247.851 206.015 248.659C208.209 250.895 211.397 251.381 214.16 252.577C222.374 255.901 229.707 260.965 237.179 265.65C240 267.534 242.788 269.576 246.107 270.508C244.911 267.419 242.891 264.726 241.851 261.571C245.46 263.955 246.458 268.38 249.039 271.609C248.615 269.728 248.045 267.885 247.41 266.07C248.198 265.996 248.986 265.914 249.769 265.872C248.206 262.528 245.864 259.65 243.608 256.763H243.604Z" fill="#FFE587"/>
<path d="M117.979 69.903C116.14 70.5587 114.556 71.7134 113.03 72.9052C104.717 78.8477 97.4753 86.1304 90.539 93.6028C85.3471 99.5906 79.2974 105.459 71.2847 107.24C76.4107 110.197 81.5944 106.131 86.8317 106.329C83.248 112.379 76.3241 115.505 69.6641 116.849C79.2355 120.008 88.4565 114.168 96.3784 109.447C91.0421 117.047 84.0027 123.262 78.4809 130.697C88.4523 130.363 98.4321 130.503 108.404 130.19C109.67 130.161 110.903 129.889 112.119 129.579C111.348 129.456 110.573 129.332 109.802 129.188C111.142 124.453 114.181 120.556 117.2 116.775C112.824 118.453 109.558 121.88 106.024 124.804C107.933 117.249 113.793 111.822 119.249 106.692C112.074 109.249 106.766 115.043 101.83 120.593C101.941 114.766 101.838 108.849 103.137 103.125C103.942 99.4257 106.226 96.3493 107.954 93.0543C103.088 95.5286 99.5867 99.8133 96.2423 103.987C97.4836 98.7246 99.3723 93.5781 102.111 88.8975C106.189 81.6106 112.556 76.0929 117.987 69.8948L117.979 69.903Z" fill="#CE6501"/>
<path d="M184.86 99.5412C181.767 100.531 179.618 97.0958 176.954 96.0813C176.744 97.3679 176.534 98.6628 176.377 99.9577C176.727 100.803 178.212 100.877 178.991 101.389C187.115 104.605 192.831 112.234 194.984 120.544C195.384 119.047 195.965 117.595 196.757 116.268C197.743 118.857 197.813 121.649 197.866 124.387C198.934 122.693 199.862 120.919 200.687 119.101C200.778 122.227 200.926 125.357 200.646 128.474C202.118 127.072 203.512 125.583 204.865 124.058C204.778 126 204.39 127.955 204.671 129.897C207.104 129.905 209.199 131.225 211.504 131.781C210.906 128.907 210.341 126.02 209.801 123.134C208.766 123.843 207.722 124.552 206.675 125.258C204.865 119.934 204.324 113.538 199.409 109.954C199.128 110.065 198.563 110.296 198.287 110.412C197.714 112.102 197.161 113.806 196.625 115.513C194.349 109.166 190.151 103.682 184.86 99.5453V99.5412Z" fill="#CE6501"/>
<path d="M174.538 101.694C173.16 101.388 171.771 101.17 170.381 100.906C172.133 102.395 173.824 103.958 175.49 105.549C174.641 105.908 173.8 106.271 172.946 106.638C177.948 108.956 182.472 112.09 186.707 115.587C184.035 110.028 179.783 104.898 174.534 101.698L174.538 101.694Z" fill="#CE6501"/>
<path d="M153.251 107.418C151.82 106.156 150.38 104.902 148.892 103.702C147.617 105.009 146.421 106.395 145.056 107.616L144.834 107.814C147.65 107.966 150.471 107.921 153.251 107.418Z" fill="#CE6501"/>
<path d="M273.271 108.144C273.061 106.659 272.97 105.166 272.99 103.669C271.028 105.442 268.966 107.137 267.324 109.232C264.825 113.08 261.955 116.725 260.075 120.936C258.491 124.326 257.398 127.93 255.658 131.25C256.891 130.965 258.128 130.68 259.357 130.4C261.555 121.942 265.526 113.142 273.312 108.478L273.267 108.144H273.271Z" fill="#CE6501"/>
<path d="M283.209 106.614C282.467 106.399 281.721 106.197 280.978 105.987C275.589 110.016 270.524 115.492 269.275 122.321C272.289 119.121 275.465 115.822 279.787 114.482L279.778 114.169C279.185 111.117 281.77 108.972 283.214 106.614H283.209Z" fill="#CE6501"/>
<path d="M154.137 116.42C151.226 115.236 148.458 113.698 145.46 112.721C142.145 115.987 137.159 113.245 133.093 113.599C133.427 114.012 133.765 114.416 134.099 114.824C140.409 117.538 147.461 117.402 154.137 116.42Z" fill="#CE6501"/>
<path d="M296.802 113.422C293.42 114.313 291.54 117.979 287.824 118.268C287.816 117.278 287.787 116.288 287.828 115.294C285.931 116.762 284.851 118.932 283.948 121.097C286.711 120.07 289.42 118.705 292.426 118.614C288.806 121.798 283.783 124.416 283.226 129.798C285.684 129.703 288.125 129.266 290.414 128.359C289.874 127.922 289.334 127.489 288.785 127.06C290.331 124.189 292.909 122.156 295.635 120.482C294.699 119.979 293.758 119.48 292.831 118.969C294.191 117.15 295.577 115.34 296.802 113.426V113.422Z" fill="#CE6501"/>
<path d="M136.326 129.072C134.198 127.612 132.013 126.247 129.798 124.919C124.404 126.152 119.027 127.55 113.773 129.303C121.282 129.913 128.804 128.49 136.326 129.068V129.072Z" fill="#CE6501"/>
<path d="M254.215 125.715C252.594 127.575 250.969 129.423 249.373 131.299C249.27 130.606 249.175 129.918 249.072 129.225C244.474 133.843 239.917 138.833 237.699 145.081C240.767 144.751 241.319 141.349 242.932 139.299C245.666 135.175 250.334 133.101 254.788 131.41C254.574 131.328 254.136 131.167 253.926 131.085C253.918 129.287 254.079 127.497 254.215 125.715Z" fill="#CE6501"/>
<path d="M124.969 151.308C110.804 150.512 96.5846 150.76 82.4233 151.502C80.8439 151.749 78.8232 151.494 77.7221 152.908C73.9034 158.005 71.0126 164.009 70.6208 170.455C72.8931 168.641 75.2437 166.909 77.8994 165.7C75.7757 169.428 74.2375 173.453 72.8024 177.486C75.0004 175.272 77.2932 173.136 79.8253 171.305C78.518 174.356 76.3612 177.371 77.0376 180.868C80.5552 181.391 84.0687 180.645 87.3266 179.313C93.2237 177.251 97.6486 172.661 102.783 169.3C103.83 168.55 104.981 167.882 105.781 166.851C106.379 165.671 106.869 164.447 107.356 163.23C99.6239 166.488 92.8113 171.684 84.9306 174.558C85.5368 169.494 89.8586 166.418 93.2154 163.119C89.4751 163.585 86.0482 165.201 82.9017 167.214C83.3182 164.933 83.6935 162.36 85.677 160.863C90.5968 156.871 97.195 155.96 103.344 156.017C109.571 156.022 115.81 155.877 122.025 156.31C121.757 169.193 119.616 182.967 125.423 195.013C128.268 201.231 134.141 205.978 140.974 206.955C153.477 209.034 166.224 207.751 178.818 207.747C174.134 210.733 168.608 212.151 163.288 213.57C153.543 215.034 143.485 215.067 133.761 213.467C136.644 212.18 139.654 211.248 142.59 210.114C139.023 209.962 135.435 209.85 131.926 209.133C132.384 208.209 132.842 207.285 133.291 206.366C130.223 206.04 127.151 205.813 124.091 205.421C125.105 204.563 126.128 203.71 127.151 202.856C125.287 203.335 123.431 203.846 121.588 204.411C122.466 203.619 123.34 202.819 124.21 202.023C120.231 202.027 116.198 202.374 112.28 201.45C113.752 200.097 115.22 198.741 116.643 197.334C114.165 197.73 111.678 198.151 109.175 198.361C110.75 194.46 115.163 193.198 118.004 190.427C117.513 190.035 117.018 189.652 116.515 189.264C106.651 195.037 97.8919 202.716 87.2358 207.128C92.6381 209.17 98.3208 206.893 103.348 204.856C100.605 208.118 96.9351 210.37 93.6484 213.026C99.5043 214.287 105.34 212.782 111.142 212.081C109.331 213.958 107.051 215.236 104.968 216.77C104.964 217.1 104.96 217.764 104.952 218.098C106.721 219.013 108.585 219.756 110.536 220.16C121.963 222.75 133.881 222.923 145.444 221.207C153.04 220.09 160.117 216.935 167.535 215.141C165.173 218.692 161.469 221.1 159.168 224.721C153.745 231.909 153.869 241.806 156.281 250.103C160.113 259.897 167.453 267.926 175.474 274.537C179.136 277.535 183.227 280.026 187.672 281.675C193.615 283.906 199.433 286.508 205.545 288.269C204.968 287.494 204.539 286.488 203.603 286.075C198.299 284.018 194.604 279.506 190.353 275.943C182.583 269.543 174.554 263.068 169.177 254.413C165.606 248.808 163.139 242.165 163.841 235.443C164.381 229.579 168.905 224.341 174.591 222.877C187.054 220.213 199.116 225.768 210.857 229.121C211.054 228.403 211.244 227.698 211.426 226.989C205.12 224.803 198.609 222.453 193.792 217.62C191.367 215.553 189.813 212.757 187.924 210.246C184.373 210.642 181.025 212.254 177.412 212.473C179.684 210.374 182.666 208.836 183.783 205.763C172.562 206.473 161.242 206.522 150.042 205.384C142.545 204.741 134.582 201.813 130.289 195.281C126.412 188.996 125.031 181.532 124.4 174.274C123.806 166.632 123.856 158.916 124.965 151.32L124.969 151.308Z" fill="#CE6501"/>
<path d="M106.474 174.336C105.166 173.985 103.876 173.527 102.709 172.83C95.5208 180.336 88.7494 188.307 80.4646 194.662C89.6649 198.213 100.082 195.73 108.581 191.392C109.822 190.695 111.521 190.464 112.342 189.239C113.146 186.212 115.963 184.6 118.099 182.596C114.837 182.645 111.579 182.884 108.317 183.012C108.779 180.377 109.901 177.932 111.41 175.742C108.296 176.756 105.286 178.105 102.123 178.975C103.377 177.259 104.841 175.705 106.474 174.34V174.336Z" fill="#CE6501"/>
<path d="M241.802 176.245C237.315 174.026 231.88 174.092 227.311 176.034C223.546 177.663 220.878 180.971 218.597 184.261C220.342 184.002 221.863 184.917 222.148 186.728C223.467 184.204 225.67 182.187 228.391 181.276C229.447 181.119 230.515 181.012 231.571 180.884C230.754 180.245 229.95 179.593 229.154 178.933C230.998 178.591 232.853 178.29 234.721 178.158C237.682 177.956 240.878 177.948 243.452 179.643C246.961 181.676 248.928 185.354 251.732 188.138C258.058 193.849 266.17 196.815 273.882 200.101C277.873 202.79 282.397 204.477 287.037 205.681C289.189 205.916 291.367 206.052 293.474 206.592C292.971 206.172 292.492 205.722 291.936 205.384C281.201 201.371 269.91 198.155 260.244 191.804C253.365 187.47 249.419 179.544 241.802 176.253V176.245Z" fill="#CE6501"/>
<path d="M234.598 185.136C233.682 183.849 232.75 182.336 230.964 182.369C230.981 182.661 231.006 183.243 231.022 183.536C231.047 185.981 231.529 188.765 229.987 190.876C228.515 192.534 226.375 193.35 224.498 194.46C225.414 195.965 227.368 196.522 228.762 195.284C231.756 192.674 233.245 188.777 234.602 185.14L234.598 185.136Z" fill="#CE6501"/>
<path d="M216.782 183.227C213.331 186.975 211.137 191.709 207.458 195.276C205.722 197.318 203.937 199.656 200.959 199.611C212.18 206.011 225.381 207.005 237.954 208.374C256.743 210.151 275.465 213.261 294.389 212.931C295.367 212.968 296.294 212.609 297.132 212.139C287.255 210.481 277.263 209.615 267.267 209.1C250.029 207.145 232.577 206.823 215.516 203.421C212.019 202.802 208.683 201.545 205.5 200.011C210.902 196.039 214.172 190.085 218.123 184.827C217.677 184.295 217.228 183.759 216.778 183.227H216.782Z" fill="#CE6501"/>
<path d="M202.617 204.485C200.741 203.64 198.893 202.563 196.815 202.332C194.448 202.341 192.134 202.971 189.784 203.19C191.091 206.337 192.324 209.615 194.72 212.122C199.339 217.12 205.665 220.308 212.172 222.061C216.923 223.149 221.913 224.193 226.75 223.018C222.23 222.036 217.69 220.873 213.653 218.547C209.986 216.613 207.075 213.59 203.582 211.384C200.86 209.57 197.817 208.093 195.706 205.508C197.083 205.71 198.448 205.986 199.825 206.188C200.683 206.304 201.549 206.403 202.403 206.51C202.477 205.833 202.551 205.165 202.617 204.493V204.485Z" fill="#CE6501"/>
<path d="M238.816 213.186C230.729 212.885 222.787 210.873 214.667 211.261C219.331 213.632 224.77 213.657 229.826 214.7C240.891 215.793 252.074 215.463 263.089 217.158C269.601 217.516 276.141 217.62 282.669 217.582C285.915 217.459 289.305 217.475 292.303 216.048C289.964 215.587 287.577 215.718 285.21 215.727C273.44 215.351 261.79 213.45 250.054 212.597C250.54 213.273 251.031 213.953 251.522 214.634C247.621 212.308 243.047 213.871 238.816 213.182V213.186Z" fill="#CE6501"/>
<path d="M222.494 216.935C219.15 216.254 215.921 215.025 212.502 214.724C221.088 219.978 231.946 221.463 241.567 218.337C235.196 218.226 228.758 218.275 222.494 216.935Z" fill="#CE6501"/>
<path d="M200.79 268C197.202 264.281 194.402 259.897 190.802 256.198C190.778 257.703 190.753 259.217 190.811 260.726C194.58 264.268 197.483 268.607 201.285 272.116C208.226 278.628 216.193 284.686 225.69 286.719C225.278 285.914 224.865 285.114 224.449 284.314C224.255 284.57 223.871 285.073 223.678 285.325C214.939 281.238 207.211 275.168 200.786 268H200.79Z" fill="#CE6501"/>
<path d="M223.117 271.089C222.341 269.51 220.515 269.485 219.026 269.155C225.81 278.525 233.146 287.544 239.126 297.466C241.996 292.975 243.93 287.478 242.792 282.113C242.346 282.789 241.893 283.473 241.439 284.154C240.276 282.987 239.121 281.812 237.987 280.611C238.907 284.005 239.022 287.618 237.686 290.921C232.742 284.377 227.562 277.997 223.109 271.094L223.117 271.089Z" fill="#CE6501"/>
<path d="M252.26 278.154C252.376 275.807 252.561 273.362 251.559 271.164C250.615 273.077 249.802 275.065 249.349 277.16C250.326 277.469 251.295 277.803 252.26 278.154Z" fill="#CE6501"/>
<path d="M178.637 118.952C173.969 111.641 164.08 108.948 156.092 111.81C160.818 111.793 165.659 112.012 170.092 113.802C173.218 115.03 175.771 117.266 178.637 118.952Z" fill="#1AA4A9"/>
<path d="M210.7 137.724C203.776 135.472 196.398 135.575 189.21 134.99C170.282 134.895 151.213 134.281 132.483 137.613C131.761 140.161 130.73 142.677 130.549 145.345C131.757 146.685 133.98 146.293 135.637 146.458C137.089 143.811 137.65 139.736 141.192 139.163C148.59 137.452 156.236 137.122 163.791 136.78C179.189 137.019 194.943 135.489 210.011 139.378C215.446 140.557 217.331 146.153 218.308 150.949C227.356 153.848 237.15 153.539 246.326 151.362C247.072 148.582 247.794 145.695 249.493 143.32C251.089 141.11 253.757 140.058 256.31 139.402C266.083 136.957 276.24 137.208 286.24 137.328C293.012 137.868 299.944 137.926 306.472 139.996C309.825 141.159 309.058 145.225 309.623 147.996C310.551 147.931 311.483 147.869 312.406 147.803C311.903 144.174 312.056 138.343 307.454 137.534C295.816 135.052 283.824 135.402 271.993 135.435C266.161 135.909 260.169 135.852 254.557 137.736C251.052 138.912 248.099 141.629 246.68 145.052C245.649 147.089 244.866 149.943 242.198 150.281C235.492 151.597 228.358 151.778 221.706 150.091C219.042 149.63 218.799 146.652 218.003 144.594C216.952 141.225 214.024 138.726 210.704 137.72L210.7 137.724Z" fill="#1AA4A9"/>
<path d="M126.635 136.689C117.043 137.295 107.406 136.672 97.8052 137.105C92.7246 137.745 87.6028 137.353 82.5016 137.46C77.0705 137.674 71.6641 136.516 66.233 137.147C66.1753 137.542 66.1217 137.938 66.0598 138.343C72.4765 139.518 79.0293 139.901 85.5491 139.802C97.4011 139.753 109.253 139.86 121.109 139.74C122.792 139.749 124.462 139.951 126.111 140.206C126.26 139.027 126.433 137.86 126.635 136.689Z" fill="#1AA4A9"/>
<path d="M131.922 158.929C131.448 159.906 130.92 160.855 130.478 161.844C130.041 167.296 130.586 172.772 131.134 178.191C132.062 184.732 134.425 191.709 140.099 195.623C146.12 199.718 153.745 199.594 160.715 200.246C171.148 200.122 181.746 201.041 192.006 198.621C197.52 197.326 202.782 194.592 206.531 190.274C212.362 183.548 215.558 174.789 216.547 166.034C216.366 165.053 216.114 164.092 215.921 163.123C214.271 174.203 210.955 186.427 201.264 193.186C193.846 198.184 184.583 198.307 175.989 198.918C166.434 199.008 156.76 199.107 147.382 197.021C142.215 195.911 137.588 192.427 135.419 187.573C131.229 178.612 132.235 168.5 131.918 158.929H131.922Z" fill="#1AA4A9"/>
<path d="M306.456 162.921C306.286 161.964 306.064 161.024 305.895 160.071C304.493 169.56 303.338 179.449 298.781 188.043C295.734 193.631 289.911 197.314 283.655 198.167C288.455 199.619 293.255 196.724 296.591 193.474C302.13 187.804 303.816 179.783 305.326 172.29C305.837 169.189 306.6 166.075 306.456 162.921Z" fill="#1AA4A9"/>
<path d="M66.2331 137.147C62.3938 137.786 58.6369 136.4 54.9296 135.588C54.7152 137.254 54.1873 139.51 56.1915 140.281C61.6309 143.011 67.9486 142.652 73.8498 143.308C90.9349 143.332 108.02 143.308 125.113 143.324C125.443 142.281 125.786 141.242 126.116 140.206C124.466 139.947 122.792 139.749 121.113 139.74C109.261 139.856 97.4094 139.749 85.5533 139.802C79.0335 139.905 72.4807 139.518 66.064 138.342C66.1259 137.942 66.1795 137.547 66.2372 137.147H66.2331Z" fill="#0C3845"/>
<path d="M317.668 143.13C317.334 143.11 316.662 143.069 316.328 143.056C316.303 144.85 316.307 146.644 316.349 148.442C316.943 148.446 317.545 148.458 318.138 148.471C318.242 146.677 318.089 144.879 317.672 143.13H317.668Z" fill="#015B87"/>
<path d="M132.709 154.269C132.38 154.289 131.72 154.331 131.39 154.351C130.817 156.809 130.413 159.316 130.478 161.844C130.92 160.855 131.448 159.902 131.922 158.929C132.615 157.481 132.578 155.836 132.709 154.269Z" fill="#015B87"/>
<path d="M306.847 155.564C305.878 156.57 305.726 158.562 305.899 160.071C306.068 161.028 306.291 161.968 306.46 162.921C307.338 160.554 306.897 158.013 306.852 155.564H306.847Z" fill="#015B87"/>
<path d="M243.831 160.315C243.27 160.533 242.713 160.756 242.148 160.978C242.61 164.562 243.435 168.117 244.936 171.408C244.396 167.725 244.359 163.997 243.827 160.31L243.831 160.315Z" fill="#015B87"/>
<path d="M216.853 160.059C216.242 160.958 215.558 161.972 215.929 163.123C216.123 164.092 216.37 165.053 216.556 166.034C217.236 164.104 217.145 162.047 216.857 160.059H216.853Z" fill="#015B87"/>
<path d="M256.112 172.018C254.541 170.793 253.064 169.453 251.646 168.059C251.32 169.041 250.99 170.022 250.709 171.02C251.604 175.663 254.701 179.589 258.306 182.521C257.778 181.449 257.349 180.336 256.969 179.21C256.161 176.909 256.042 174.43 256.112 172.018Z" fill="#015B87"/>
<path d="M191.878 143.885C187.825 143.031 183.651 143.493 179.548 143.378C173.56 143.526 167.321 142.681 161.564 144.78C158.133 146.442 155.09 149.531 154.438 153.407C155.692 152.479 156.883 151.473 158.034 150.43C162.24 146.574 167.915 144.759 173.49 144.108C165.993 147.423 159.073 152.512 154.636 159.477C158.343 157.514 162.682 157.506 166.467 155.762C169.816 154.248 173.606 154.244 176.962 152.764C177.115 153.217 177.268 153.675 177.408 154.129C179.206 151.263 181.239 148.392 184.084 146.483C186.167 145.06 188.794 145.176 191.186 145.44C190.86 145.106 190.53 144.776 190.196 144.45C190.761 144.252 191.318 144.058 191.878 143.881V143.885Z" fill="#0189BD"/>
<path d="M156.892 143.885C151.96 144.099 146.656 145.58 143.316 149.444C141.481 151.902 139.98 154.85 140.083 158.001C141.064 156.957 142.116 156.001 143.147 155.015C143.922 155.238 144.697 155.456 145.469 155.679C146.256 155.093 147.027 154.495 147.865 153.996C149.019 153.122 150.166 154.508 151.155 155.019C152.454 151.007 154.504 147.341 156.888 143.889L156.892 143.885Z" fill="#0189BD"/>
<path d="M291.263 144.895C288.286 144.594 285.28 144.12 282.286 144.433C280.096 145.027 277.935 145.749 275.692 146.145C272.294 147.555 269.254 149.695 266.66 152.302C262.557 155.477 259.382 159.873 257.811 164.83C259.897 163.387 262.326 162.529 264.887 162.566C270.388 162.323 275.304 159.263 280.789 158.879C281.407 159.003 281.972 159.312 282.566 159.522C284.698 155.209 287.016 150.615 291.135 147.877C293.218 146.343 295.861 147.221 298.101 147.84C298.311 147.906 298.727 148.038 298.934 148.104C297.144 145.745 293.997 145.287 291.263 144.891V144.895Z" fill="#0189BD"/>
<path d="M282.286 144.433C277.514 143.666 272.673 144.565 267.922 145.064C262.652 145.794 258.879 150.491 258.24 155.601C262.821 150.821 268.582 145.522 275.692 146.145C277.939 145.749 280.096 145.027 282.286 144.433Z" fill="#005078"/>
<path d="M257.6 146.409C252.45 149.184 249.806 155.061 249.773 160.735C249.794 164.174 249.468 167.737 250.714 171.024C250.994 170.022 251.324 169.045 251.65 168.063C253.068 169.457 254.545 170.797 256.116 172.022C256.248 170.909 256.421 169.807 256.664 168.719C253.563 165.807 253.951 161.036 254.545 157.193C254.837 153.423 256.19 149.881 257.605 146.413L257.6 146.409Z" fill="#005078"/>
<path d="M208.019 147.906C203.471 144.355 197.339 144.471 191.879 143.881C191.318 144.058 190.761 144.252 190.196 144.45C190.53 144.776 190.86 145.106 191.186 145.44C192.299 146.491 192.901 147.91 193.392 149.333C195.054 149.489 196.708 149.691 198.349 149.988C199.669 148.768 201.095 147.423 202.935 147.122C204.514 147.073 205.875 148.034 207.236 148.698C207.43 148.5 207.821 148.104 208.011 147.906H208.019Z" fill="#04A7DB"/>
<path d="M191.186 145.444C188.794 145.18 186.167 145.064 184.085 146.487C181.239 148.396 179.206 151.267 177.408 154.133C172.868 162.018 168.731 170.129 164.335 178.101C163.115 180.266 162.096 182.596 161.948 185.111C163.651 186.179 165.556 187.524 167.684 186.979C170.727 186.348 172.323 183.387 173.771 180.938C176.179 176.991 177.915 172.657 180.674 168.921C184.377 162.059 188.32 155.296 193.392 149.333C192.906 147.91 192.299 146.491 191.186 145.44V145.444Z" fill="#12CAF7"/>
<path d="M298.101 147.84C295.861 147.221 293.218 146.343 291.136 147.877C287.016 150.615 284.698 155.209 282.566 159.523C279.717 165.354 276.974 171.255 274.017 177.028C272.624 179.408 271.242 181.796 269.795 184.142C269.712 189.445 277.213 188.959 279.308 185.35C286.084 175.173 290.121 163.411 297.099 153.353C298.303 151.757 298.245 149.724 298.101 147.84Z" fill="#38D2FB"/>
<path d="M207.24 148.702C205.879 148.038 204.518 147.077 202.939 147.126C201.1 147.427 199.673 148.772 198.353 149.992C192.629 156.995 189.491 165.659 184.992 173.445C183.297 178.154 179.355 181.96 178.942 187.111C181.037 187.482 183.433 188.179 185.334 186.851C188.749 184.538 190.481 180.653 192.382 177.148C195.796 170.995 198.654 164.558 202.04 158.393C203.743 155.143 206.395 152.368 207.248 148.706L207.24 148.702Z" fill="#38D2FB"/>
<path d="M299.33 163.23C296.484 167.016 294.649 171.408 292.385 175.54C290.389 179.387 287.902 182.959 285.828 186.753C284.64 188.65 287.659 189.186 288.801 189.911C296.34 183.783 298.48 173.552 299.507 164.393C299.466 164.104 299.379 163.519 299.334 163.23H299.33Z" fill="#38D2FB"/>
<path d="M209.521 165.832C205.768 171.639 202.811 177.923 198.86 183.614C197.495 185.548 196.361 187.627 195.182 189.68C204.485 185.783 208.222 175.078 209.521 165.832Z" fill="#38D2FB"/>
<path d="M298.934 148.103C298.724 148.037 298.307 147.905 298.101 147.839C298.249 149.724 298.303 151.757 297.099 153.353C290.117 163.411 286.084 175.172 279.308 185.35C277.209 188.958 269.712 189.445 269.795 184.142C268.504 186.575 269.997 189.041 271.321 191.078C270.475 191.033 269.63 190.995 268.78 190.925C274.908 194.043 283.131 194.051 288.802 189.915C287.659 189.189 284.641 188.649 285.828 186.756C287.907 182.962 290.389 179.391 292.385 175.543C294.649 171.411 296.484 167.019 299.33 163.234C299.375 163.522 299.462 164.108 299.503 164.397C300.286 160.698 300.385 156.879 300.34 153.11C300.159 151.427 300.171 149.386 298.934 148.112V148.103Z" fill="#38D2FB"/>
<path d="M208.019 147.906C207.826 148.104 207.434 148.499 207.244 148.697C206.39 152.359 203.739 155.135 202.036 158.384C198.654 164.554 195.792 170.991 192.378 177.14C190.477 180.645 188.745 184.534 185.33 186.843C183.429 188.171 181.033 187.474 178.938 187.103C179.35 181.952 183.293 178.146 184.988 173.436C184.678 173.304 184.047 173.041 183.738 172.913C183.103 174.711 181.738 176.026 179.878 176.529C179.053 173.923 180.946 171.535 180.674 168.921C177.915 172.657 176.179 176.987 173.771 180.938C172.323 183.387 170.727 186.348 167.684 186.979C165.556 187.523 163.651 186.175 161.948 185.111C162.241 186.402 162.591 187.688 162.937 188.967C162.212 189.491 161.474 190.002 160.731 190.517C159.139 189.932 157.465 189.573 155.762 189.656C156.904 190.385 158.075 191.082 159.313 191.631C165.453 192.753 171.783 192.633 178.014 192.662C183.792 192.406 189.973 192.489 195.182 189.68C196.361 187.627 197.495 185.548 198.86 183.614C202.807 177.923 205.764 171.638 209.52 165.832C210.898 160.009 211.104 153.275 208.015 147.91L208.019 147.906Z" fill="#38D2FB"/>
<path d="M282.566 159.522C281.973 159.308 281.408 158.999 280.789 158.879C275.3 159.267 270.389 162.322 264.887 162.566C262.326 162.529 259.898 163.391 257.811 164.83C257.436 166.125 256.998 167.407 256.664 168.714C256.421 169.803 256.248 170.904 256.116 172.018C256.046 174.43 256.165 176.909 256.974 179.21C257.72 180.092 258.524 180.925 259.304 181.779C264.182 180.591 269.098 179.123 273.321 176.331C273.494 176.504 273.844 176.851 274.018 177.024C276.974 171.246 279.717 165.349 282.566 159.518V159.522Z" fill="#38D2FB"/>
<path d="M198.349 149.988C196.707 149.695 195.05 149.489 193.392 149.332C188.32 155.295 184.377 162.058 180.674 168.921C180.942 171.535 179.053 173.923 179.878 176.529C181.738 176.026 183.103 174.71 183.738 172.912C184.047 173.04 184.678 173.304 184.987 173.436C189.491 165.654 192.625 156.986 198.349 149.984V149.988Z" fill="#12CAF7"/>
<path d="M176.963 152.763C173.606 154.244 169.816 154.248 166.467 155.761C162.682 157.506 158.343 157.514 154.636 159.477C152.69 161.65 151.584 164.434 150.277 167.011C149.7 170.587 148.236 174.129 148.867 177.803C149.481 182.43 151.473 187.313 155.77 189.655C157.473 189.573 159.147 189.936 160.739 190.517C161.482 190.006 162.22 189.49 162.946 188.967C162.599 187.688 162.249 186.402 161.956 185.111C162.104 182.595 163.123 180.265 164.344 178.1C168.74 170.129 172.872 162.017 177.416 154.132C177.276 153.675 177.123 153.217 176.971 152.767L176.963 152.763Z" fill="#12CAF7"/>
<path d="M273.316 176.335C269.093 179.123 264.178 180.591 259.299 181.783C258.516 180.929 257.716 180.096 256.969 179.214C257.349 180.339 257.778 181.453 258.305 182.525C261.006 186.092 264.664 189.156 268.776 190.921C269.625 190.991 270.471 191.028 271.316 191.074C269.996 189.037 268.5 186.571 269.79 184.138C271.238 181.791 272.619 179.403 274.013 177.024C273.84 176.851 273.489 176.504 273.316 176.331V176.335Z" fill="#12CAF7"/>
<path d="M151.164 155.015C150.174 154.508 149.024 153.118 147.873 153.992C147.036 154.491 146.261 155.089 145.477 155.675C144.706 155.452 143.931 155.234 143.155 155.011C142.124 155.997 141.073 156.957 140.091 157.997C138.796 161.094 139.234 164.611 138.735 167.894C138.957 174.327 139.349 181.387 143.436 186.686C147.452 190.913 153.869 191.181 159.321 191.631C158.08 191.082 156.913 190.385 155.77 189.655C151.473 187.313 149.481 182.431 148.867 177.804C148.236 174.129 149.7 170.591 150.277 167.011C149.242 163.028 149.898 158.859 151.168 155.015H151.164Z" fill="#07B8EB"/>
<path d="M238.012 165.923C237.587 162.756 234.094 161.535 231.315 161.407C228.684 161.283 225.595 161.605 224.008 164.005C228.783 163.279 233.847 163.015 238.008 165.927L238.012 165.923Z" fill="#0297CC"/>
<path d="M238.012 165.923C233.851 163.012 228.787 163.275 224.012 164.001L223.702 164.026C222.416 167.391 221.533 170.888 221.022 174.451C226.457 170.583 233.661 169.173 239.967 171.684C239.377 169.775 239.336 167.482 238.016 165.923H238.012Z" fill="#017DAF"/>
<path d="M105.463 169.865C104.523 170.834 103.616 171.832 102.708 172.83C103.876 173.527 105.166 173.985 106.474 174.336C106.907 173.96 107.327 173.585 107.748 173.206C106.94 172.892 106.131 172.575 105.319 172.265C105.36 171.461 105.385 170.661 105.459 169.861L105.463 169.865Z" fill="#FE6805"/>
<path d="M234.725 178.159C232.857 178.291 231.002 178.596 229.158 178.934C229.954 179.594 230.758 180.245 231.575 180.885C233.113 181.866 234.309 183.289 234.598 185.136C233.241 188.774 231.752 192.671 228.758 195.281C227.364 196.522 225.41 195.961 224.494 194.456C222.791 192.25 221.838 189.528 222.148 186.724C221.863 184.914 220.337 184.002 218.597 184.258C218.482 184.398 218.242 184.679 218.123 184.823C214.172 190.081 210.898 196.036 205.5 200.007C208.683 201.541 212.024 202.795 215.517 203.417C232.577 206.82 250.029 207.141 267.267 209.096C277.259 209.607 287.255 210.477 297.132 212.135C297.589 209.665 295.693 207.384 293.474 206.58C291.367 206.04 289.189 205.904 287.037 205.669C289.692 207.187 293.367 207.793 294.554 210.989C288.901 208.663 282.657 208.007 277.251 205.1C276.088 206.197 274.855 207.772 273.04 207.422C270.632 206.964 268.731 205.273 266.553 204.263C261.304 201.743 255.947 199.273 251.415 195.561C250.087 194.378 248.619 193.071 248.231 191.26C248.718 190.015 249.588 188.976 250.347 187.891C246.544 185.553 242.008 184.493 237.604 185.512C236.42 183.153 235.406 180.707 234.73 178.151L234.725 178.159Z" fill="#FE6805"/>
<path d="M250.054 212.601C234.09 211.219 217.599 210.807 202.617 204.481C202.551 205.153 202.481 205.821 202.403 206.498C201.549 206.39 200.687 206.296 199.825 206.176C204.728 207.924 209.438 210.778 214.667 211.257C222.787 210.869 230.725 212.881 238.816 213.182C243.047 213.875 247.621 212.308 251.522 214.634C251.027 213.954 250.54 213.273 250.054 212.597V212.601Z" fill="#FE6805"/>
<path d="M243.456 179.639C240.886 177.948 237.69 177.952 234.725 178.154C235.402 180.711 236.416 183.156 237.6 185.515C242.004 184.493 246.54 185.556 250.342 187.895C249.584 188.975 248.718 190.018 248.227 191.264C248.619 193.078 250.087 194.382 251.41 195.565C255.943 199.281 261.304 201.747 266.549 204.266C268.731 205.277 270.628 206.967 273.036 207.425C274.85 207.776 276.083 206.2 277.246 205.104C282.653 208.011 288.896 208.667 294.55 210.992C293.362 207.796 289.688 207.19 287.032 205.673C282.393 204.468 277.873 202.782 273.877 200.093C266.166 196.806 258.05 193.837 251.728 188.13C248.924 185.346 246.957 181.668 243.447 179.635L243.456 179.639Z" fill="#FEBE85"/>
<path d="M234.598 185.136C234.309 183.288 233.113 181.866 231.575 180.884C230.519 181.012 229.451 181.119 228.395 181.276C229.319 181.973 230.239 182.682 231.022 183.536C231.006 183.243 230.981 182.661 230.964 182.369C232.746 182.34 233.682 183.853 234.598 185.136Z" fill="#694525"/>
<path opacity="0.4" d="M185.429 167.465C186.823 166.48 189.474 164.368 187.903 160.516C186.336 156.665 180.443 156.17 180.443 156.17L180.641 151.032L176.851 150.887L176.653 156.026L174.22 155.935L174.414 150.797L170.987 150.665L170.793 155.803L164.29 155.828L164.146 159.659L168.245 159.902L167.593 176.686L163.502 176.649L163.346 180.765L169.696 181.156L169.498 186.356L173.127 186.493L173.259 181.239L175.758 181.358L175.581 186.587L179.264 186.728L179.466 181.437C179.466 181.437 187.144 182.571 189.008 176.323C190.872 170.071 185.433 167.457 185.433 167.457L185.429 167.465ZM174.942 158.962C176.534 158.962 178.121 158.953 179.709 158.949C180.344 158.949 180.955 159.226 181.346 159.729C181.891 160.413 182.167 161.288 182.089 162.17C182.006 163.073 181.581 163.741 181.169 164.187C180.769 164.624 180.196 164.859 179.606 164.851C177.977 164.826 176.344 164.805 174.715 164.78L174.938 158.966L174.942 158.962ZM183.334 172.463C183.235 173.729 182.414 174.843 181.235 175.35C180.922 175.486 180.575 175.54 180.233 175.531C178.262 175.503 176.286 175.478 174.315 175.449L174.567 168.892C176.484 168.892 178.402 168.884 180.319 168.88C180.707 168.88 181.099 168.946 181.445 169.127C182.682 169.766 183.445 171.086 183.334 172.463Z" fill="#0189BD"/>
<path d="M183.722 166.166C185.116 165.181 187.767 163.069 186.196 159.218C184.629 155.366 178.736 154.871 178.736 154.871L178.934 149.733L175.144 149.588L174.946 154.727L172.513 154.636L172.707 149.498L169.28 149.366L169.086 154.504L162.583 154.529L162.438 158.36L166.538 158.603L165.886 175.387L161.795 175.35L161.638 179.466L167.989 179.857L167.791 185.058L171.42 185.194L171.552 179.94L174.051 180.06L173.874 185.289L177.556 185.429L177.759 180.138C177.759 180.138 185.437 181.272 187.301 175.024C189.165 168.773 183.726 166.158 183.726 166.158L183.722 166.166ZM173.235 157.663C174.827 157.663 176.414 157.655 178.002 157.651C178.637 157.651 179.247 157.927 179.639 158.43C180.183 159.115 180.46 159.989 180.381 160.871C180.299 161.774 179.874 162.442 179.462 162.888C179.062 163.325 178.488 163.56 177.899 163.552C176.27 163.527 174.637 163.506 173.008 163.482L173.231 157.667L173.235 157.663ZM181.627 171.164C181.528 172.43 180.707 173.544 179.528 174.051C179.214 174.187 178.868 174.241 178.526 174.233C176.554 174.204 174.579 174.179 172.608 174.15L172.859 167.593C174.777 167.593 176.695 167.585 178.612 167.581C179 167.581 179.392 167.647 179.738 167.828C180.975 168.467 181.738 169.787 181.627 171.164Z" fill="white"/>
<path opacity="0.4" d="M285.684 168.224C286.711 167.498 288.661 165.943 287.507 163.106C286.352 160.269 282.01 159.906 282.01 159.906L282.154 156.125L279.362 156.017L279.218 159.799L277.428 159.729L277.572 155.947L275.048 155.852L274.904 159.634L270.116 159.65L270.009 162.475L273.028 162.657L272.545 175.02L269.531 174.991L269.415 178.022L274.092 178.311L273.947 182.142L276.62 182.245L276.719 178.377L278.558 178.464L278.43 182.315L281.139 182.418L281.288 178.521C281.288 178.521 286.942 179.354 288.315 174.756C289.688 170.154 285.68 168.228 285.68 168.228L285.684 168.224ZM277.96 161.96C279.131 161.96 280.302 161.956 281.473 161.952C281.939 161.952 282.389 162.158 282.682 162.525C283.082 163.028 283.284 163.671 283.226 164.323C283.164 164.987 282.851 165.482 282.55 165.807C282.257 166.129 281.832 166.302 281.399 166.294C280.199 166.278 278.999 166.261 277.795 166.24L277.96 161.96ZM284.142 171.902C284.067 172.834 283.461 173.655 282.595 174.03C282.364 174.133 282.108 174.171 281.857 174.166C280.405 174.146 278.95 174.125 277.498 174.105L277.684 169.271C279.098 169.271 280.508 169.267 281.923 169.263C282.207 169.263 282.496 169.313 282.752 169.445C283.663 169.915 284.224 170.888 284.146 171.902H284.142Z" fill="#0189BD"/>
<path d="M284.426 167.267C285.453 166.541 287.403 164.987 286.249 162.149C285.094 159.312 280.752 158.949 280.752 158.949L280.896 155.168L278.104 155.061L277.96 158.842L276.17 158.772L276.314 154.99L273.791 154.896L273.646 158.677L268.859 158.694L268.751 161.519L271.77 161.7L271.287 174.063L268.273 174.034L268.157 177.065L272.834 177.354L272.69 181.185L275.362 181.288L275.461 177.42L277.3 177.507L277.172 181.358L279.882 181.461L280.03 177.564C280.03 177.564 285.684 178.397 287.057 173.799C288.43 169.197 284.422 167.271 284.422 167.271L284.426 167.267ZM276.702 161.003C277.873 161.003 279.044 160.999 280.216 160.995C280.682 160.995 281.131 161.201 281.424 161.568C281.824 162.071 282.026 162.714 281.968 163.366C281.906 164.03 281.593 164.525 281.292 164.851C280.999 165.172 280.574 165.345 280.141 165.337C278.941 165.321 277.741 165.304 276.537 165.284L276.702 161.003ZM282.884 170.946C282.809 171.878 282.203 172.698 281.337 173.074C281.106 173.177 280.851 173.214 280.599 173.21C279.148 173.189 277.692 173.168 276.24 173.148L276.426 168.315C277.84 168.315 279.251 168.311 280.665 168.306C280.95 168.306 281.238 168.356 281.494 168.488C282.405 168.958 282.966 169.931 282.888 170.946H282.884Z" fill="white"/>
<path d="M409.564 353.703C407.379 356.445 404.125 358.025 400.653 358.025C399.663 358.025 398.661 357.897 397.684 357.637L397.514 357.587C393.453 356.511 389.333 355.451 385.275 354.445L379.44 353.006L373.571 351.653C343.43 344.622 312.959 339.022 282.088 336.502C266.496 335.228 250.747 334.325 235.097 334.325C224.927 334.139 214.758 334.11 204.588 334.218C194.534 334.329 184.48 334.576 174.435 334.968C164.929 335.343 155.424 335.847 145.935 336.519C137.407 337.121 128.887 337.859 120.392 338.807C105.047 340.519 89.8216 343.632 74.753 347.026C63.2103 349.628 51.4285 351.261 39.9766 354.387C35.7455 355.431 31.5268 356.515 27.3163 357.633C26.3514 357.893 25.3575 358.02 24.3719 358.02C18.083 358.02 12.9653 352.899 12.9653 346.597V266.842C12.9653 260.562 18.0707 255.436 24.3554 255.419L78.5016 255.266L168.278 255.13L194.246 255.114L197.314 255.122L204.089 255.114H231.22C231.253 255.114 250.775 255.13 256.458 255.13C260.871 255.139 303.157 255.188 303.157 255.188L326.865 255.229L351.538 255.287L386.392 255.378L400.162 255.427C403.886 255.436 407.259 257.184 409.42 260.211C411.581 263.246 412.134 267.011 410.934 270.533C407.68 280.067 404.344 289.565 401.024 298.773L400.941 299.008L400.999 299.251C404.616 313.701 408.187 328.568 411.618 343.455L411.754 344.045C412.538 347.451 411.738 350.973 409.569 353.703H409.564Z" fill="#0F1E28"/>
<path d="M53.2512 327.533C53.2388 331.541 53.2182 335.541 53.1976 339.546C43.5601 341.702 33.9516 344.049 24.376 346.601V266.846C28.5699 266.834 32.768 266.821 36.9661 266.805C36.9455 276.987 36.929 287.169 36.9042 297.346C36.9001 300.456 36.8919 303.565 36.8836 306.674C36.8712 314.708 36.8548 322.741 36.8383 330.77C42.2982 329.64 47.7747 328.564 53.2512 327.537V327.533Z" fill="#FC9903"/>
<path d="M92.9145 291.457C92.9021 293.424 92.8815 295.383 92.8568 297.342C92.8197 300.464 92.7743 303.569 92.7207 306.67C92.663 309.895 92.5929 313.111 92.5186 316.316C92.3908 322.2 90.9722 326.592 88.2546 329.595C85.5369 332.593 81.0584 334.692 74.8108 335.908C68.5384 337.133 64.0682 336.737 61.3835 334.531C58.6989 332.329 57.3298 327.962 57.2762 321.491C57.2391 316.584 57.2143 311.643 57.2102 306.67C57.2102 303.573 57.2143 300.464 57.2226 297.342C57.2267 296.274 57.2308 295.189 57.2349 294.113C57.2762 284.892 57.3752 275.766 57.5319 266.747C61.7299 266.735 65.9322 266.726 70.1261 266.714C69.9818 272.525 69.8828 278.578 69.8292 284.88C69.7962 289.036 69.7756 293.189 69.7632 297.342C69.7591 299.49 69.7591 301.635 69.7591 303.783C69.7591 304.748 69.7591 305.713 69.7632 306.67C69.7673 311.936 69.7838 317.021 69.7962 321.924C69.788 323.343 70.2292 324.357 71.1158 324.976C72.0025 325.59 73.2561 325.755 74.8727 325.487C76.514 325.215 77.7676 324.638 78.6254 323.755C79.479 322.873 79.912 321.747 79.9244 320.374C79.9986 315.949 80.0687 311.384 80.1347 306.674C80.1553 305.359 80.1677 304.039 80.1883 302.703C80.2172 300.921 80.2337 299.132 80.2543 297.346C80.3079 293.008 80.3368 288.674 80.3574 284.339C80.3863 278.22 80.3615 272.343 80.2873 266.693C84.4854 266.685 88.6876 266.673 92.8856 266.669C92.9599 274.846 92.9681 283.106 92.9104 291.461L92.9145 291.457Z" fill="#FC9903"/>
<path d="M134.029 306.666C134.029 307.062 134.029 307.47 134.025 307.891C134.013 309.4 133.98 310.757 133.914 311.953C133.703 317.33 132.206 321.298 129.427 323.933C126.643 326.564 122.148 328.279 115.95 329.116C109.616 329.978 105.125 329.459 102.469 327.376C99.8178 325.306 98.4445 321.359 98.3497 315.59C98.3373 313.371 98.3249 310.798 98.3249 307.887C98.3249 307.483 98.3249 307.074 98.3208 306.666C98.3208 304.122 98.329 301.495 98.3538 298.785C98.3579 298.299 98.3579 297.82 98.362 297.342C98.3868 294.707 98.4198 292.142 98.461 289.663C98.5146 286.727 98.56 284.121 98.6053 281.841C98.7291 276.933 100.193 272.995 102.997 270.125C105.801 267.238 110.288 265.844 116.445 265.852C122.495 265.852 126.866 267.032 129.563 269.325C132.26 271.622 133.675 275.424 133.798 280.756C133.823 281.577 133.831 282.467 133.823 283.42C133.819 284.377 133.794 285.338 133.757 286.29C133.728 287.247 133.691 288.138 133.658 288.958C129.456 289.136 125.25 289.325 121.047 289.532C121.08 288.583 121.117 287.474 121.159 286.183C121.196 284.9 121.221 283.614 121.229 282.327C121.237 281.04 121.233 279.931 121.216 278.987C121.196 277.766 120.763 276.838 119.917 276.191C119.064 275.548 117.884 275.238 116.371 275.267C114.779 275.3 113.534 275.663 112.651 276.356C111.76 277.049 111.286 278.022 111.22 279.275C111.088 282.005 110.985 284.966 110.919 288.146C110.853 291.152 110.812 294.22 110.783 297.346C110.783 297.519 110.779 297.688 110.779 297.866C110.754 300.86 110.75 303.8 110.767 306.674V307.561C110.787 310.72 110.841 313.648 110.932 316.341C110.977 317.607 111.439 318.535 112.317 319.124C113.196 319.706 114.433 319.9 116.033 319.714C117.682 319.52 118.961 319.038 119.868 318.262C120.767 317.491 121.237 316.485 121.274 315.231C121.307 314.316 121.34 313.215 121.365 311.924C121.39 310.642 121.398 309.359 121.394 308.072C121.394 307.582 121.394 307.116 121.386 306.674C121.386 305.969 121.373 305.338 121.361 304.777C125.563 304.443 129.769 304.13 133.976 303.845C134.004 304.703 134.029 305.643 134.033 306.674L134.029 306.666Z" fill="#FC9903"/>
<path d="M177.561 322.749C173.28 322.955 169.004 323.199 164.723 323.479C162.822 317.904 160.929 312.303 159.036 306.662C158.525 305.14 158.018 303.623 157.506 302.097C156.698 303.61 155.886 305.136 155.077 306.662C154.298 308.13 153.514 309.598 152.735 311.079C152.706 315.512 152.677 319.945 152.644 324.382C148.347 324.733 144.046 325.129 139.745 325.562C139.786 319.265 139.827 312.963 139.877 306.666C139.902 303.557 139.918 300.447 139.943 297.338C140.017 287.086 140.087 276.83 140.161 266.578C144.644 266.574 149.123 266.57 153.597 266.57C153.514 271.238 153.424 275.906 153.337 280.579C152.554 284.9 151.77 289.239 150.986 293.594C151.741 293.561 152.5 293.532 153.259 293.503C154.632 289.14 156.009 284.806 157.378 280.496C159.424 275.807 161.465 271.164 163.507 266.553C168.1 266.549 172.69 266.549 177.28 266.545C173.523 274.257 169.758 282.043 165.985 289.94C166.847 292.414 167.709 294.876 168.566 297.338C169.659 300.46 170.752 303.565 171.845 306.666C173.746 312.052 175.647 317.409 177.548 322.749H177.561Z" fill="#FC9903"/>
<path d="M216.927 266.537C213.863 276.801 210.791 287.057 207.71 297.338C206.77 300.443 205.842 303.548 204.91 306.666C204.704 307.351 204.498 308.039 204.292 308.724C204.287 308.749 204.287 308.765 204.287 308.794L204.275 321.953C200.052 322.007 195.821 322.085 191.594 322.205C191.607 317.8 191.619 313.392 191.631 308.984V308.918C191.404 308.167 191.186 307.412 190.959 306.662C190.035 303.557 189.107 300.443 188.18 297.334C185.153 287.123 182.142 276.871 179.14 266.541C183.421 266.537 187.701 266.537 191.986 266.537C193.178 271.036 194.374 275.527 195.565 280.014C195.978 285.453 196.386 290.884 196.798 296.323C197.586 296.315 198.37 296.299 199.157 296.299C199.586 290.855 200.019 285.424 200.448 279.989C201.66 275.498 202.869 271.011 204.073 266.537C208.358 266.533 212.642 266.533 216.923 266.533L216.927 266.537Z" fill="#FC9903"/>
<path d="M274.875 297.338C274.875 295.231 274.851 293.119 274.818 291.016C274.772 287.989 274.694 284.797 274.591 281.436C274.442 276.133 272.954 272.314 270.125 270.001C267.296 267.692 262.735 266.553 256.434 266.549C250.751 266.545 245.068 266.545 239.39 266.541C239.423 276.805 239.456 287.078 239.489 297.338C239.497 300.447 239.509 303.557 239.517 306.666C239.538 311.916 239.55 317.165 239.571 322.415C245.291 322.625 251.007 322.906 256.726 323.26C263.061 323.644 267.634 322.86 270.446 320.766C273.263 318.679 274.702 314.967 274.781 309.652C274.801 308.641 274.814 307.648 274.826 306.666C274.859 304.39 274.88 302.2 274.884 300.084C274.888 299.169 274.888 298.253 274.88 297.338H274.875ZM262.137 310.204C262.116 311.487 261.646 312.448 260.718 313.087C259.79 313.726 258.446 313.998 256.673 313.903C255.18 313.829 253.687 313.759 252.202 313.689C252.194 311.347 252.182 309.013 252.169 306.67C252.157 303.561 252.136 300.447 252.124 297.342C252.095 290.187 252.062 283.028 252.029 275.869C253.514 275.882 254.998 275.898 256.487 275.915C258.252 275.935 259.597 276.286 260.52 276.974C261.448 277.663 261.931 278.636 261.972 279.898C262.067 282.418 262.145 284.946 262.203 287.482C262.256 290.014 262.294 292.546 262.306 295.066C262.31 295.824 262.314 296.591 262.314 297.346C262.314 299.111 262.306 300.864 262.285 302.625C262.265 303.973 262.248 305.322 262.219 306.674C262.195 307.854 262.166 309.029 262.137 310.213V310.204Z" fill="#FC9903"/>
<path d="M316.163 297.338C316.168 300.46 316.168 303.569 316.155 306.666C316.147 309.243 316.13 311.813 316.102 314.369C316.06 320.011 314.699 323.875 312.015 325.92C309.326 327.974 304.848 328.539 298.559 327.78C292.245 327.017 287.717 325.388 284.971 322.844C282.232 320.295 280.793 316.419 280.678 311.149C280.645 309.656 280.616 308.163 280.587 306.666C280.525 303.569 280.476 300.46 280.443 297.338C280.401 294.513 280.377 291.68 280.36 288.835C280.302 281.337 280.307 273.919 280.368 266.57C284.567 266.574 288.773 266.582 292.967 266.59C292.893 271.601 292.868 276.822 292.897 282.253C292.921 287.284 292.971 292.311 293.045 297.338C293.045 297.746 293.053 298.15 293.058 298.559C293.099 301.317 293.14 304.019 293.185 306.666C293.231 309.243 293.28 311.763 293.321 314.233C293.33 315.458 293.792 316.44 294.695 317.186C295.594 317.937 296.86 318.398 298.485 318.559C300.142 318.732 301.392 318.53 302.241 317.949C303.091 317.367 303.507 316.452 303.503 315.202C303.511 312.419 303.516 309.577 303.524 306.662C303.528 304.229 303.528 301.75 303.528 299.227C303.528 298.6 303.528 297.969 303.524 297.334C303.516 292.422 303.487 287.511 303.441 282.591C303.384 277.044 303.276 271.712 303.128 266.603C307.326 266.607 311.528 266.615 315.726 266.628C315.924 274.492 316.06 282.447 316.126 290.492C316.147 292.777 316.155 295.062 316.163 297.338Z" fill="#FC9903"/>
<path d="M357.394 319.833C357.262 326.098 355.831 330.329 353.101 332.481C350.375 334.638 345.937 335.071 339.76 333.954C333.45 332.819 328.943 330.824 326.258 327.933C323.566 325.034 322.126 320.765 321.941 315.029C321.9 312.823 321.846 310.283 321.796 307.396C321.792 307.153 321.788 306.909 321.784 306.666C321.747 303.998 321.714 301.243 321.689 298.394C321.685 298.043 321.685 297.688 321.681 297.338C321.66 294.604 321.656 291.948 321.656 289.379C321.66 286.484 321.669 283.902 321.685 281.651C321.726 276.813 323.137 273.007 325.9 270.158C328.663 267.32 333.125 265.852 339.282 265.844C345.323 265.84 349.715 267.135 352.449 269.824C355.179 272.504 356.647 277.011 356.849 283.271C356.882 284.232 356.907 285.271 356.911 286.393C356.915 287.511 356.911 288.628 356.886 289.742C356.866 290.859 356.845 291.894 356.82 292.847C352.631 292.529 348.437 292.22 344.247 291.923C344.267 290.888 344.288 289.663 344.309 288.245C344.321 286.834 344.329 285.416 344.317 283.997C344.309 282.587 344.288 281.35 344.251 280.315C344.214 278.966 343.764 277.91 342.911 277.16C342.049 276.409 340.865 276.009 339.356 275.976C337.76 275.931 336.527 276.257 335.648 276.941C334.774 277.63 334.312 278.624 334.263 279.935C334.172 282.801 334.123 285.894 334.098 289.226C334.09 291.886 334.09 294.583 334.098 297.334C334.102 298.022 334.106 298.723 334.11 299.416C334.131 301.87 334.156 304.287 334.201 306.662C334.213 307.652 334.234 308.629 334.255 309.602C334.321 312.926 334.42 316.015 334.556 318.868C334.622 320.217 335.096 321.314 335.978 322.168C336.869 323.021 338.102 323.57 339.698 323.813C341.344 324.065 342.614 323.895 343.504 323.293C344.391 322.691 344.845 321.697 344.861 320.328C344.886 319.326 344.894 318.114 344.902 316.695C344.907 315.277 344.894 313.862 344.874 312.439C344.849 311.021 344.816 309.804 344.783 308.794C348.973 309.276 353.158 309.788 357.348 310.32C357.41 311.722 357.443 313.314 357.455 315.087C357.464 316.86 357.447 318.44 357.398 319.825L357.394 319.833Z" fill="#FC9903"/>
<path d="M400.62 346.601C396.422 345.484 392.219 344.408 388.013 343.364C385.588 333.042 383.147 322.951 380.697 313.087C379.151 316.625 377.605 320.118 376.062 323.566C376.083 329.219 376.103 334.873 376.128 340.527C371.881 339.554 367.625 338.618 363.377 337.715C363.32 327.368 363.27 317.017 363.212 306.67C363.2 303.561 363.179 300.451 363.167 297.342C363.109 287.144 363.06 276.937 363.006 266.731C367.48 266.743 371.959 266.76 376.442 266.768C376.405 272.739 376.372 278.715 376.339 284.678C375.765 288.925 375.2 293.148 374.631 297.342C374.466 298.546 374.301 299.759 374.141 300.959C374.891 301.041 375.646 301.124 376.396 301.202C376.714 299.915 377.031 298.637 377.349 297.342C378.347 293.243 379.353 289.098 380.359 284.913C382.347 278.987 384.343 272.954 386.347 266.797C390.937 266.817 395.523 266.826 400.117 266.842C396.521 277.362 392.954 287.519 389.39 297.338C389.263 297.693 389.131 298.047 389.007 298.398C389.696 301.132 390.384 303.891 391.077 306.666C394.281 319.574 397.461 332.873 400.62 346.597V346.601Z" fill="#FC9903"/>
<path opacity="0.5" d="M36.8383 330.766C42.2982 329.636 47.7747 328.56 53.2512 327.533C53.2388 331.541 53.2182 335.541 53.1976 339.546C43.5601 341.702 33.9516 344.049 24.376 346.602V306.67H36.8836C36.8712 314.704 36.8548 322.737 36.8383 330.766Z" fill="#CE6501"/>
<path opacity="0.5" d="M92.7248 306.666C92.6671 309.891 92.597 313.108 92.5228 316.312C92.3949 322.197 90.9763 326.589 88.2587 329.591C85.5411 332.589 81.0626 334.688 74.8149 335.904C68.5426 337.129 64.0723 336.733 61.3877 334.527C58.7031 332.325 57.3339 327.958 57.2803 321.487C57.2432 316.58 57.2185 311.64 57.2144 306.666H69.7715C69.7756 311.932 69.7921 317.017 69.8045 321.92C69.7962 323.339 70.2375 324.353 71.1241 324.972C72.0107 325.586 73.2644 325.751 74.8809 325.483C76.5222 325.211 77.7759 324.634 78.6336 323.751C79.4873 322.869 79.9203 321.743 79.9326 320.37C80.0069 315.945 80.077 311.38 80.143 306.67H92.7207L92.7248 306.666Z" fill="#CE6501"/>
<path opacity="0.5" d="M134.029 306.666C134.029 307.062 134.029 307.47 134.025 307.891C134.013 309.4 133.98 310.757 133.914 311.953C133.703 317.331 132.206 321.298 129.427 323.933C126.643 326.564 122.148 328.279 115.95 329.117C109.616 329.978 105.125 329.459 102.469 327.376C99.8178 325.306 98.4445 321.36 98.3497 315.59C98.3373 313.372 98.3249 310.798 98.3249 307.887C98.3249 307.483 98.3249 307.075 98.3208 306.666H110.762V307.553C110.783 310.712 110.837 313.64 110.927 316.333C110.973 317.599 111.435 318.526 112.313 319.116C113.191 319.698 114.429 319.891 116.029 319.706C117.678 319.512 118.957 319.03 119.864 318.254C120.763 317.483 121.233 316.477 121.27 315.223C121.303 314.308 121.336 313.207 121.361 311.916C121.386 310.633 121.394 309.351 121.39 308.064C121.39 307.574 121.39 307.108 121.381 306.666H134.029Z" fill="#CE6501"/>
<path opacity="0.5" d="M139.881 306.666H155.077C154.298 308.134 153.514 309.602 152.735 311.083C152.706 315.516 152.677 319.949 152.644 324.386C148.347 324.737 144.046 325.133 139.745 325.566C139.786 319.269 139.827 312.968 139.877 306.67L139.881 306.666Z" fill="#CE6501"/>
<path opacity="0.5" d="M171.857 306.666C173.759 312.052 175.66 317.409 177.561 322.749C173.28 322.955 169.004 323.198 164.723 323.479C162.822 317.903 160.929 312.303 159.036 306.662H171.853L171.857 306.666Z" fill="#CE6501"/>
<path opacity="0.5" d="M190.959 306.666H204.914C204.708 307.351 204.502 308.039 204.296 308.724C204.291 308.749 204.291 308.765 204.291 308.794L204.279 321.953C200.056 322.007 195.825 322.085 191.598 322.205C191.611 317.8 191.623 313.392 191.635 308.984V308.918C191.408 308.167 191.19 307.412 190.963 306.662L190.959 306.666Z" fill="#CE6501"/>
<path opacity="0.5" d="M274.826 306.666C274.814 307.647 274.797 308.641 274.781 309.652C274.702 314.967 273.259 318.679 270.446 320.765C267.634 322.864 263.061 323.648 256.726 323.26C251.007 322.91 245.291 322.625 239.571 322.415C239.551 317.165 239.538 311.916 239.518 306.666H252.17C252.182 309.008 252.194 311.342 252.203 313.685C253.691 313.755 255.18 313.825 256.673 313.899C258.446 313.994 259.786 313.722 260.718 313.083C261.642 312.444 262.116 311.483 262.137 310.2C262.17 309.017 262.199 307.841 262.219 306.662H274.822L274.826 306.666Z" fill="#CE6501"/>
<path opacity="0.5" d="M316.155 306.666C316.147 309.243 316.13 311.813 316.102 314.369C316.06 320.011 314.699 323.875 312.015 325.92C309.326 327.974 304.848 328.539 298.559 327.78C292.245 327.017 287.717 325.388 284.971 322.844C282.232 320.295 280.793 316.419 280.678 311.149C280.645 309.656 280.616 308.163 280.587 306.666H293.185C293.231 309.243 293.28 311.763 293.321 314.233C293.33 315.458 293.791 316.44 294.695 317.186C295.594 317.936 296.86 318.398 298.484 318.559C300.142 318.732 301.392 318.53 302.241 317.949C303.091 317.367 303.507 316.452 303.503 315.202C303.511 312.419 303.516 309.577 303.524 306.662H316.151L316.155 306.666Z" fill="#CE6501"/>
<path opacity="0.5" d="M357.447 315.095C357.455 316.869 357.439 318.448 357.39 319.834C357.258 326.098 355.827 330.329 353.097 332.482C350.371 334.638 345.933 335.071 339.756 333.954C333.446 332.82 328.939 330.824 326.254 327.933C323.562 325.034 322.122 320.766 321.937 315.029C321.895 312.823 321.842 310.283 321.792 307.396C321.788 307.153 321.784 306.91 321.78 306.666H334.193C334.205 307.656 334.226 308.633 334.246 309.607C334.312 312.93 334.411 316.019 334.547 318.873C334.613 320.221 335.088 321.318 335.97 322.172C336.861 323.026 338.094 323.574 339.69 323.817C341.335 324.069 342.605 323.9 343.496 323.298C344.383 322.696 344.836 321.702 344.853 320.333C344.878 319.331 344.886 318.118 344.894 316.7C344.898 315.281 344.886 313.867 344.865 312.444C344.841 311.025 344.808 309.809 344.775 308.798C348.964 309.281 353.15 309.792 357.34 310.324C357.402 311.726 357.435 313.318 357.447 315.091V315.095Z" fill="#CE6501"/>
<path opacity="0.5" d="M400.62 346.602C396.422 345.484 392.22 344.408 388.013 343.364C385.588 333.042 383.147 322.951 380.698 313.087C379.151 316.625 377.605 320.118 376.062 323.566C376.083 329.219 376.104 334.873 376.128 340.527C371.881 339.554 367.625 338.618 363.377 337.715C363.32 327.368 363.27 317.017 363.212 306.67H391.077C394.282 319.578 397.461 332.877 400.62 346.602Z" fill="#CE6501"/>
</svg>
