<svg width="59" height="52" viewBox="0 0 59 52" fill="none" xmlns="http://www.w3.org/2000/svg">
<path d="M56.1285 51.7142C55.8787 51.7142 55.6289 51.6815 55.3855 51.6173L55.3499 51.6074C54.7605 51.451 54.1879 51.3045 53.6486 51.1708L52.8327 50.9695L52.0122 50.7804C47.1809 49.6534 43.1253 48.9811 39.2453 48.6641C36.7083 48.457 34.6277 48.3601 32.6971 48.3601H32.6743C31.8111 48.3443 30.9263 48.3361 30.0445 48.3361C29.5005 48.3361 28.9449 48.3391 28.3934 48.3455C26.974 48.3612 25.55 48.3963 24.1615 48.4511C22.7789 48.5054 21.4348 48.5784 20.1678 48.6682C18.8715 48.7599 17.7055 48.8643 16.6036 48.9875C14.4039 49.2326 12.1739 49.7018 10.2817 50.1279C9.61699 50.2779 8.94582 50.4057 8.29683 50.5294C7.29474 50.7203 6.34868 50.9012 5.4143 51.1556L5.38512 51.1632C4.79624 51.3086 4.20094 51.4615 3.61498 51.6173C3.37628 51.6815 3.1259 51.7148 2.87436 51.7148C1.28923 51.7148 0 50.4244 0 48.8381V37.5507C0 35.9685 1.2869 34.6781 2.86852 34.674L10.5309 34.6525L23.2388 34.6332L26.9145 34.6309L27.3528 34.632L28.307 34.6309H32.1893C32.5319 34.6309 34.9726 34.6332 35.7202 34.6332C35.9047 34.6332 36.0827 34.6384 36.2554 34.6484V34.6326L42.3304 34.6414L54.1115 34.6676L56.0614 34.6746C56.9975 34.6764 57.8478 35.1159 58.3929 35.8798C58.9375 36.645 59.0764 37.5916 58.774 38.4787C58.3585 39.6973 57.9243 40.9369 57.4825 42.169C57.9634 44.0979 58.442 46.095 58.9065 48.1103L58.9252 48.1914C59.1236 49.0517 58.9229 49.9388 58.3748 50.628C57.8239 51.3196 57.0051 51.7159 56.1273 51.7159L56.1285 51.7142Z" fill="white"/>
<path d="M32.8932 44.2508C32.0055 44.2508 31.0338 43.6438 30.3866 43.146C30.0457 43.2061 29.5998 43.2575 29.0711 43.2575C27.9575 43.2575 26.2195 43.0234 24.2637 41.9105C21.3322 40.2419 19.293 37.444 18.9405 34.6099L18.8185 33.6259C18.3604 33.6527 17.9326 33.6802 17.5258 33.7088L17.4937 33.7111H17.4616C17.3717 33.7134 17.2818 33.7146 17.192 33.7146C13.713 33.7146 10.5544 32.4242 8.52686 30.1743L7.09464 28.5851L7.85744 28.4089C7.61582 28.0879 7.40863 27.7453 7.23763 27.3852L6.23029 25.2573L6.82384 25.3442C6.57813 24.3789 6.63241 23.2998 6.98258 22.2423C6.33242 21.9633 5.7593 21.5939 5.28598 21.1456L4.95332 20.8299L4.90137 20.3741C4.78932 19.3907 5.00701 18.3419 5.56671 17.1682L5.72078 16.8455C5.64608 16.7579 5.57429 16.6646 5.50659 16.5648L4.50509 15.0934L4.84651 15.003L5.59005 14.5606C5.4529 14.4801 5.31575 14.3954 5.1786 14.3067L2.72095 12.707L5.57313 12.0247C6.03069 11.915 6.47891 11.845 6.91138 11.7773C7.31467 11.7142 7.69694 11.6541 8.05879 11.5672C7.49793 11.1668 6.97616 10.6801 6.55537 10.0655L4.67143 7.31196L7.9053 8.13254C8.52219 8.28895 9.12974 8.36832 9.71162 8.36832C9.85752 8.36832 10.004 8.36307 10.147 8.35315L10.1861 8.35081C11.6399 8.29478 13.033 7.65221 14.5079 6.97229L14.8288 6.82463C17.3098 5.62003 19.8054 4.91326 22.2567 4.72008L21.8289 4.19773L23.3883 3.54407C23.8003 3.37132 24.2527 3.2114 24.7709 3.2114C24.9979 3.2114 25.2209 3.24292 25.4339 3.30478C26.035 3.46061 26.635 3.6322 27.2151 3.79853C28.1495 4.06583 29.0337 4.31854 29.9372 4.51697C29.3489 3.97945 25.9376 1.54398 25.9376 1.54398L27.57 0.5454C27.9552 0.369729 28.3777 0.283936 28.8621 0.283936C29.1499 0.283936 29.4207 0.3137 29.6594 0.339964C29.7615 0.351053 29.8636 0.362725 29.964 0.370312L29.999 0.37323L30.0341 0.377899C32.4485 0.705313 34.7556 1.73775 36.6745 3.30945L35.8697 0.676716L38.4494 1.89941C40.1722 2.7159 41.6838 4.11602 42.8207 5.94861C43.7639 7.41468 44.4286 9.18365 44.7975 11.2059C45.1558 13.1079 45.136 14.9277 44.7362 16.6068C44.6755 16.8828 44.5938 17.1554 44.4928 17.4227C44.8196 17.5575 45.15 17.7443 45.4529 18.0238L45.5328 18.0979L45.5988 18.1843C46.3143 19.1199 46.2571 20.2247 46.2151 21.0313L46.2028 21.2898L46.19 21.3651C46.0768 22.0368 45.6396 22.5428 45.0058 22.788C44.9906 22.8994 44.976 23.0121 44.9609 23.1259C44.8862 23.692 44.8091 24.2704 44.693 24.8546L45.813 23.7813L44.9825 27.761C44.6609 29.3012 43.7621 30.6984 42.4519 31.6947L42.4291 31.7116C41.5537 32.346 40.4664 32.7137 39.2857 32.775H39.2676C39.117 32.7814 38.9629 32.7843 38.8089 32.7843C37.7747 32.7843 36.6996 32.6653 35.3567 32.3997C35.0375 32.5707 34.7042 32.7295 34.3511 32.8783C36.5928 34.984 37.6311 37.0763 37.442 39.1178C37.1619 42.141 34.2794 43.7693 33.8282 44.0063C33.5522 44.1662 33.2306 44.2502 32.8927 44.2502L32.8932 44.2508ZM22.7387 34.7727C23.1373 35.7591 23.8978 36.7057 25.0621 37.664C25.1812 37.7615 25.3014 37.8525 25.4234 37.9366C25.2991 37.58 25.211 37.1994 25.176 36.7903L24.8958 33.5109L27.2945 35.7649C27.6073 36.059 27.8671 36.3637 28.1174 36.659C28.3199 36.8965 28.5114 37.1224 28.7086 37.3132L27.2799 32.4236C26.8329 32.1896 26.3922 31.8954 25.9948 31.505C25.7952 31.3287 25.63 31.1385 25.4882 30.9546C25.2279 31.0241 24.939 31.0906 24.611 31.1105L24.0291 31.1455C23.8371 31.3935 23.6317 31.5966 23.4461 31.7811C23.2646 31.9614 23.1076 32.1172 23.016 32.2614L22.9885 32.3046L22.9576 32.3454C22.5467 32.8905 22.4656 33.7946 22.7376 34.7721L22.7387 34.7727ZM29.4685 34.9023L28.5802 33.2693C28.5528 33.2489 28.5254 33.2279 28.4974 33.2069L27.8297 32.6903L27.8315 32.6845C27.6499 32.6069 27.4667 32.5217 27.2846 32.4265L29.4685 34.9023ZM16.7723 29.9374C17.1388 29.9712 17.5112 29.9887 17.8876 29.9887C18.3831 29.9887 18.8885 29.959 19.3951 29.9C18.7257 29.7139 18.1368 29.4197 17.6501 29.0281L16.7729 29.9374H16.7723ZM15.9926 28.4275L16.9538 28.3108C16.9054 28.246 16.8587 28.1795 16.8138 28.1118L16.7945 28.0815C16.7204 27.9618 16.6521 27.8404 16.5885 27.7184L15.9926 28.427V28.4275ZM33.23 28.0213C33.9817 28.0925 34.7387 28.1795 35.4705 28.263C35.7011 28.2892 35.9298 28.3155 36.1575 28.3412C35.9614 28.2309 35.767 28.1136 35.5756 27.9881C35.0176 27.6344 34.5928 27.185 34.2181 26.7881C33.8399 26.3884 33.5136 26.0428 33.1483 25.8847L33.1185 25.8718L33.0893 25.8573C32.9504 25.7884 32.7841 25.7522 32.609 25.7522C32.4339 25.7522 32.2536 25.789 32.0919 25.8578C31.8532 25.9611 31.6075 26.2816 31.3997 26.5815L31.3741 26.6189L31.3455 26.6545C31.3315 26.6714 31.3104 26.6971 31.2889 26.7222L31.2725 26.7414L30.5261 27.6607C31.2608 27.8118 32.0406 27.8947 32.8425 27.9799L33.23 28.0213ZM36.8969 24.7349L36.9885 24.8563C37.2541 25.2071 37.6095 25.4954 37.9632 25.6477L38.0005 25.6641L38.0367 25.6828C38.2626 25.7977 38.534 25.8608 38.8019 25.8608C39.0843 25.8608 39.3423 25.7901 39.532 25.6617C40.2335 25.0664 40.4459 23.9389 40.5615 22.9111L40.5685 22.8504L40.5813 22.7903C40.6636 22.4022 40.6765 21.9779 40.6741 21.5705C40.6134 21.56 40.5475 21.5501 40.4938 21.5425C40.4232 21.5355 40.352 21.5273 40.2808 21.5197C40.0602 21.4952 39.8518 21.4719 39.6726 21.4719C39.6125 21.4719 39.5588 21.4742 39.5098 21.4795L39.3429 21.497L39.2793 21.4865L38.9273 21.6324C38.6174 21.7608 38.325 21.9616 38.0595 22.2289L38.0017 22.2866L37.9375 22.3362C37.5512 22.6351 37.2611 23.0407 37.1187 23.4807C37.0983 23.5508 37.0767 23.6202 37.0551 23.6903C37.0236 23.7924 36.9938 23.8887 36.9716 23.9745L36.7977 24.655L36.8969 24.7355V24.7349ZM21.0415 25.524C21.3077 25.5882 21.6444 25.6151 21.938 25.6384L22.1399 25.6547L22.2006 25.6658C22.8636 25.7866 23.5768 25.7884 24.3326 25.7901H24.5958C24.6758 25.7878 24.7563 25.7843 24.8374 25.7814C25.4625 25.758 26.0526 25.7359 26.4535 25.5199L26.5078 25.4907L26.5644 25.4668C27.4276 25.105 27.7293 23.8157 27.8326 23.0792L27.8408 23.0214L27.8542 22.9642C27.9814 22.4267 27.9902 21.954 27.8828 21.5991C27.6231 21.5028 27.2542 21.4719 26.8696 21.4392C26.7272 21.427 26.5866 21.4153 26.4483 21.4001L26.3852 21.3931L26.3234 21.3803C26.122 21.3377 25.888 21.3324 25.6849 21.3324C25.5862 21.3324 25.4882 21.3342 25.3896 21.3353C25.2787 21.3371 25.1684 21.3382 25.0581 21.3382C24.9839 21.3382 24.9098 21.3377 24.8363 21.3359C24.761 21.3377 24.6857 21.3382 24.6098 21.3382C24.5649 21.3382 24.5205 21.3382 24.4756 21.3377C23.8208 21.6295 22.9302 22.1588 22.3751 23.0308L22.3197 23.1177L22.2508 23.1948C22.1516 23.3051 22.0506 23.5146 21.9438 23.7364C21.903 23.8216 21.8615 23.9062 21.8195 23.9897L21.0427 25.5228L21.0415 25.524ZM14.3258 25.6973C14.3584 25.6822 14.39 25.6687 14.4191 25.6565L14.5563 25.4516C14.4793 25.5333 14.4028 25.6156 14.3263 25.6973H14.3258ZM15.7533 24.1963C15.7031 24.2435 15.6547 24.2879 15.608 24.3299C15.5181 24.4122 15.4154 24.505 15.3792 24.5558L15.3243 24.6328L15.2584 24.7011C15.13 24.8336 15.0051 24.9707 14.9001 25.0875L14.8738 25.1161C14.7746 25.2194 14.6759 25.3238 14.5779 25.4283L15.0862 25.3291C15.2228 25.3022 15.3594 25.2713 15.4948 25.2404C15.5952 25.2176 15.6955 25.1948 15.7959 25.1732L15.8432 25.1633C15.8158 24.9521 15.7953 24.7484 15.7784 24.5552C15.7691 24.4344 15.7609 24.3141 15.7533 24.1951V24.1963ZM12.387 23.3471C12.4301 23.3144 12.4733 23.2811 12.5177 23.2467C12.7517 23.0669 12.9939 22.8808 13.2612 22.7045C13.2922 22.6829 13.3231 22.6613 13.354 22.6397C13.3797 22.6222 13.4124 22.5995 13.4346 22.5837L13.5793 22.3969C13.3196 22.4016 13.0546 22.4074 12.785 22.4156L12.387 23.3465V23.3471ZM32.0266 19.1321C32.0563 19.1327 32.0873 19.1333 32.1182 19.1333C32.2565 19.1333 32.4047 19.1257 32.5664 19.1094C32.6224 19.0067 32.6925 18.8864 32.7824 18.7656C33.3514 17.9316 34.2023 17.5225 35.0381 17.2044L35.1425 17.1647C35.5248 16.0675 36.0658 15.2008 36.7592 14.5752L36.7487 14.497L36.6734 14.525L36.7405 14.4363L36.7014 14.1515L37.0166 14.0692L38.0093 12.7502C37.8867 12.8307 37.7694 12.899 37.6626 12.9609L33.4232 15.4354L33.3053 16.3669L32.9534 15.7098L31.0262 16.8344L32.5909 15.0327L31.4412 12.8862C30.8575 11.7965 29.8438 10.8172 28.5096 10.0532C26.9595 9.18015 25.1363 8.71616 23.2453 8.71616C21.1688 8.71616 19.157 9.26127 17.426 10.2925C17.3682 10.3281 17.3098 10.3632 17.2509 10.3982C17.1879 10.4349 17.1032 10.4851 17.0688 10.5114L16.8645 10.7507L16.5482 10.8633C16.4502 10.8983 16.2821 11.0302 16.201 11.0939L16.1794 11.1108L16.1572 11.1265C15.1574 11.8415 14.2715 12.7122 13.4597 13.5731L15.7586 12.2033L15.7329 12.1601L15.7936 12.1823L17.482 11.1761L16.5774 12.4654L18.0656 13.0029L17.3028 11.7411L20.4299 12.6749C20.6388 12.7373 20.8349 12.8103 21.0077 12.8751C21.0847 12.9037 21.1583 12.9311 21.2283 12.9562L19.841 11.4977L24.2124 12.5909C24.3641 12.6294 24.5153 12.6673 24.667 12.7017L25.302 12.8459L25.3767 13.0262C25.9954 13.2982 26.5498 13.7067 27.0115 14.218L27.5274 13.3537L27.7106 13.8375L28.9281 11.1417L29.0343 14.7544L29.8409 13.8474L29.6874 17.2161L29.7119 17.2219L29.7668 17.2406C30.3737 17.4478 30.864 17.7198 31.2474 18.0635L32.0937 17.9649L31.4418 18.2532C31.5661 18.3863 31.677 18.5287 31.775 18.681C31.883 18.838 31.9618 18.9909 32.026 19.131L32.0266 19.1321ZM14.0982 15.9981C13.8542 16.3459 13.5927 16.6692 13.3266 16.978C13.7941 16.9727 14.2657 16.9651 14.7285 16.9505C14.8026 16.9488 14.9322 16.9155 14.9806 16.9027L15.1218 16.8665L15.2047 16.8647L15.381 16.8081L15.6302 16.8286C15.657 16.8309 15.6844 16.8326 15.7119 16.8344L14.6806 15.1658L14.097 15.9975L14.0982 15.9981ZM15.4977 14.3126L15.3845 14.1649L15.3191 14.2577L15.4977 14.3126ZM16.819 13.9816L16.219 12.976L15.8158 13.5503L16.819 13.9816ZM32.4567 8.95428C32.4964 9.00156 32.5355 9.04883 32.574 9.09785C33.2376 9.92835 33.9776 11.0618 33.8014 12.4502L33.6245 13.8416L36.0273 11.0746C36.4306 10.61 36.5596 9.85832 36.3483 9.20291L36.3395 9.17489C36.1119 8.41034 35.6264 7.66972 34.8367 6.89642C34.685 7.45728 34.3669 7.95511 33.9122 8.30529C33.5049 8.63679 33.0175 8.8539 32.4561 8.95428H32.4567Z" fill="white"/>
<path d="M44.5982 18.9507C44.0718 18.4646 43.3067 18.4074 42.6513 18.1891C43.0639 17.6358 43.3592 17.0002 43.5074 16.3256C43.8909 14.7241 43.8611 13.045 43.5576 11.433C43.2489 9.74111 42.6915 8.07544 41.7548 6.62279C40.8222 5.11704 39.5219 3.80388 37.9087 3.03875C38.3605 4.5159 39.1268 6.01816 38.7678 7.60562C38.4836 7.214 38.2291 6.80197 37.9338 6.41852C35.995 3.86808 33.0524 2.05884 29.8646 1.62695C29.2775 1.58085 28.6518 1.43669 28.0921 1.69232C28.1925 1.79912 28.297 1.90534 28.426 1.97713C29.3639 2.51698 30.3117 3.08018 31.071 3.86283C31.4573 4.29296 31.853 4.81414 31.8133 5.42519C31.8151 5.66798 31.6143 5.89326 31.3715 5.91602C30.8241 5.96388 30.2766 5.86875 29.7415 5.76428C28.1721 5.42578 26.6465 4.92094 25.0952 4.51882C24.6791 4.39042 24.2577 4.54567 23.8749 4.70558C24.3715 5.31138 25.0614 5.69074 25.6765 6.15531C24.7532 6.02866 23.8235 5.8991 22.8885 5.94228C20.2733 6.06309 17.7147 6.82239 15.3679 7.9628C13.7355 8.71101 12.0634 9.53859 10.2344 9.60921C9.34666 9.67107 8.45546 9.57127 7.59461 9.35241C8.42453 10.5658 9.82932 11.1973 11.1326 11.7692C10.3458 12.3318 9.37526 12.5326 8.45371 12.7655C7.60162 12.9826 6.71917 13.0444 5.86475 13.2487C6.6789 13.7786 7.58061 14.1872 8.54884 14.3255C8.24419 14.5076 7.91444 14.6401 7.61096 14.821C7.93545 14.9447 8.27512 15.0177 8.60895 15.111C7.99206 15.5196 7.25319 15.6672 6.54759 15.854C6.81255 16.2439 7.20884 16.5112 7.59928 16.7621C8.11462 17.0872 8.67024 17.3784 9.28246 17.4549C9.14356 17.7117 9.01166 17.9731 8.87509 18.2323C8.12279 18.2171 7.40435 17.9626 6.704 17.7088C6.33048 18.492 6.05326 19.3517 6.15364 20.2294C6.85983 20.8989 7.78604 21.2788 8.73093 21.4591C7.90685 22.7957 7.54092 24.6469 8.48581 26.0167C8.78404 26.4445 9.27546 26.6674 9.64197 27.0246C9.21593 27.0024 8.79922 26.9055 8.37667 26.8437C8.85816 27.8609 9.70851 28.6558 10.6925 29.1799C10.2816 29.215 9.86667 29.2348 9.4628 29.3282C11.457 31.5407 14.5018 32.5066 17.4369 32.4494C18.247 32.3922 19.0792 32.3438 19.9231 32.3006L20.1904 34.4518C20.5208 37.1126 22.5564 39.4862 24.8863 40.8128C28.1744 42.6845 30.7056 41.7734 30.7056 41.7734C30.7056 41.7734 32.4903 43.3685 33.214 42.9039C33.214 42.9039 40.7942 39.1489 31.8133 32.3969C32.9257 32.1027 34.0235 31.7181 35.0227 31.1427C35.1108 31.0843 35.217 31.0826 35.3168 31.1047C36.5985 31.3703 37.9076 31.5646 39.2207 31.5156C40.0962 31.4707 40.9751 31.2086 41.69 30.6904C42.7184 29.9089 43.4847 28.7737 43.7497 27.5026C43.438 27.8008 43.0662 28.0279 42.6559 28.1615C42.7896 27.9753 42.9075 27.7775 42.9898 27.5633C42.6653 27.6882 42.3402 27.8213 41.9929 27.865C42.66 27.2061 43.0406 26.3243 43.2617 25.4261C43.6108 24.2039 43.6831 22.9281 43.8979 21.6809C44.3058 21.7194 44.865 21.6453 44.9473 21.1551C44.9811 20.4215 45.0721 19.57 44.5977 18.9496L44.5982 18.9507ZM9.51474 14.9622C10.6487 14.7107 11.5049 13.8802 12.2397 13.0322C13.2214 11.9746 14.2462 10.944 15.4222 10.103C15.6381 9.9337 15.8623 9.77087 16.1226 9.67807C16.2965 9.47497 16.5451 9.35883 16.7669 9.21934C20.4706 7.00623 25.3543 6.83173 29.1345 8.96138C30.5259 9.75745 31.7871 10.8669 32.551 12.2933C32.666 11.3898 32.1279 10.5599 31.5881 9.88468C30.5842 8.62405 29.0884 7.92953 27.913 6.8615C28.8684 7.12413 29.7987 7.48656 30.7733 7.67974C31.56 7.7988 32.4769 7.86125 33.1312 7.31789C33.608 6.96188 33.7586 6.31522 33.6378 5.75261C33.5327 5.05109 33.1014 4.47271 32.7162 3.89959C32.8679 3.96788 33.05 3.99998 33.1662 4.12487C33.7136 4.32739 34.17 4.70558 34.6334 5.04817C35.8841 6.03917 37.0811 7.25019 37.5475 8.81723C37.8819 9.85258 37.701 11.0712 36.979 11.9023C37.2037 11.7715 37.4337 11.6437 37.6198 11.4593C38.2548 10.8459 39.0404 10.3633 39.4909 9.58119C39.9567 8.85808 39.9853 7.98089 40.0477 7.15214C39.9409 6.89184 39.9146 6.60937 39.8709 6.3339C40.8642 7.60912 41.2319 9.37459 40.765 10.93C40.6739 11.2679 40.4808 11.5632 40.2724 11.8398C40.3687 11.8042 40.4644 11.768 40.5607 11.7319L40.5631 11.6729C40.7218 11.5492 40.8928 11.4435 41.0737 11.3572C41.3655 10.8722 41.6988 10.4041 41.8785 9.85666C41.8663 10.8745 41.519 11.8538 41.044 12.7427C41.3831 12.5723 41.6451 12.2939 41.92 12.04C41.8686 13.0374 41.5295 14.0068 40.9973 14.8478C41.3556 14.7148 41.6258 14.4428 41.9305 14.2251C42.1126 13.8329 42.4167 13.4909 42.583 13.0812C42.6104 14.0792 42.5532 15.1023 42.2141 16.0501C41.9241 16.8718 41.2943 17.5494 40.5269 17.9521C40.2024 18.0805 39.8575 18.1418 39.5096 18.1552C39.5884 17.3936 40.2987 17.0236 40.8111 16.573C40.3856 16.5853 40.0022 16.779 39.6112 16.925C39.7396 16.6186 39.8925 16.3116 40.1604 16.1038C40.2205 15.9754 40.3068 15.8628 40.3821 15.7443C39.9246 15.7834 39.4746 15.8756 39.0205 15.9445L39.0223 15.9888C38.4101 16.1785 37.9607 16.6454 37.5346 17.0983C37.7115 16.1318 38.4282 15.3568 39.191 14.7866C39.2715 14.7218 39.352 14.657 39.4314 14.5922C38.9581 14.671 38.5618 14.9716 38.1002 15.0918L38.1066 15.1391C37.0041 15.7991 36.4427 17.0446 36.1316 18.2422C35.9577 18.2819 35.7826 18.3222 35.6081 18.3624C35.5771 18.3677 35.5153 18.3799 35.4843 18.3852C34.854 18.6251 34.1928 18.918 33.8058 19.5022C33.5782 19.7917 33.5 20.2732 33.0658 20.3205C32.4466 20.4104 31.797 20.4431 31.1871 20.2907C30.9904 20.0123 30.9227 19.6627 30.7249 19.3832C30.4196 18.8959 29.888 18.6181 29.3592 18.4377C29.0324 18.3589 28.7365 18.1728 28.3915 18.1716C28.3524 17.8967 28.4067 17.6201 28.419 17.3458C28.2275 17.5611 28.0303 17.7718 27.8219 17.9702C27.861 17.529 27.8406 17.086 27.8272 16.6436C27.711 16.901 27.5791 17.1526 27.428 17.3924C27.421 17.0043 27.4105 16.6098 27.2716 16.2427C27.1589 16.4312 27.0772 16.6361 27.0206 16.8479C26.7159 15.6725 25.907 14.5922 24.7567 14.1376C24.6464 14.0646 24.4363 14.0541 24.3867 13.935C24.1708 13.886 23.9566 13.83 23.7418 13.7763C23.8702 13.9111 23.9992 14.0448 24.1264 14.1807C24.8694 14.6342 25.4711 15.3603 25.8493 16.1464C25.2499 15.6521 24.6096 15.2085 23.9011 14.8805C23.1261 14.5624 22.2915 14.4539 21.4697 14.3249C20.9801 14.2549 20.5371 14.0267 20.0673 13.8866C20.1916 14.0926 20.3393 14.2829 20.4968 14.465C20.7075 14.6348 20.9112 14.8122 21.1137 14.9908C20.7204 15.062 20.3206 15.0684 19.9225 15.0468L19.9541 15.0194C19.4813 14.9488 19.064 14.7083 18.6199 14.5484C18.9403 15.0848 19.4802 15.4385 20.0113 15.7419C20.435 15.8803 20.8272 16.098 21.2392 16.2655C20.2943 16.4038 19.2969 16.4236 18.4039 16.0402C18.5697 16.2567 18.7985 16.4079 19.0127 16.5724C18.6187 16.566 18.2347 16.4744 17.8606 16.36C18.0754 16.5754 18.2971 16.7837 18.5125 16.9979C18.0246 17.0428 17.5664 16.8643 17.1141 16.7108C17.2945 17.0026 17.5431 17.2413 17.7958 17.4695C18.1092 17.6568 18.4185 17.8506 18.7197 18.0572C17.6563 17.9749 16.5906 18.1763 15.5284 18.0899C15.4526 18.1144 15.3743 18.1272 15.2932 18.129C15.1216 18.1727 14.9471 18.2113 14.7674 18.2154C13.3562 18.2597 11.9438 18.2399 10.5326 18.2871C11.3141 17.2343 12.3109 16.3548 13.0661 15.2791C11.945 15.9474 10.64 16.7738 9.28538 16.3267C10.2279 16.1359 11.2078 15.6935 11.715 14.8373C10.9738 14.8093 10.2408 15.3848 9.51474 14.9663V14.9622ZM24.7083 16.6197C24.3027 16.381 23.9408 16.0647 23.499 15.8908C22.871 15.6375 22.1858 15.6065 21.5176 15.6089C22.6487 15.2038 24.0476 15.5855 24.7083 16.6197ZM18.5925 26.3307C18.8994 27.0176 19.5543 27.5113 20.2856 27.6678C21.6133 27.9631 22.9819 27.9491 24.3348 27.9362C25.551 27.8499 26.8619 27.8323 27.9118 27.1256C29.2839 26.169 29.7526 24.4391 29.9866 22.8709C29.9341 22.7087 30.0309 22.5645 30.1173 22.4373C30.1582 22.718 30.171 23.0098 30.0747 23.283C29.9346 24.5214 29.4823 25.7611 28.6565 26.7135C28.126 27.3246 27.3807 27.7115 26.601 27.8948C25.1495 28.238 23.649 28.1078 22.1724 28.1247C21.1861 28.0331 20.1064 28.05 19.2543 27.4711C18.4518 26.9172 18.1168 25.9291 17.9855 25.0041C17.9084 24.2366 17.8314 23.4616 17.8933 22.69C17.8839 22.3323 17.9405 21.9774 18.0223 21.6296C18.0689 21.6266 18.1623 21.6208 18.209 21.6179C18.1898 21.8391 18.195 22.0725 18.097 22.2774C18.1413 23.632 17.9995 25.063 18.5925 26.3313V26.3307ZM19.7101 20.9345C20.1823 20.3882 20.9328 20.1781 21.6314 20.1477C21.2941 20.6362 21.004 21.1551 20.8202 21.7229C20.641 22.2669 20.5476 22.8575 20.6947 23.4207C20.8797 23.0559 21.0361 22.662 21.3116 22.3544C21.9396 21.3687 22.9189 20.6491 23.9793 20.1793C23.1908 20.2709 22.3872 20.5283 21.7925 21.074C21.6296 21.221 21.461 21.3634 21.283 21.4953C21.3758 20.9467 21.8065 20.5096 22.2915 20.2744C23.1062 19.9773 23.9892 20.0964 24.8373 20.076C25.418 20.0923 26.0086 20.0269 26.5817 20.1477C27.3544 20.2306 28.2223 20.2149 28.866 20.7174C29.3037 21.4767 29.2734 22.4297 29.079 23.2538C28.8958 24.5623 28.3664 26.0774 27.0504 26.6289C26.3132 27.0264 25.4384 27.0147 24.6201 27.0509C23.7389 27.0468 22.843 27.0637 21.974 26.905C21.2024 26.8413 20.2943 26.8034 19.7253 26.2052C19.1469 25.4552 19.0915 24.4555 19.0599 23.545C19.1306 23.0805 19.0687 22.5832 19.252 22.1443C19.2374 21.6984 19.4498 21.2811 19.7095 20.9333L19.7101 20.9345ZM7.37926 19.6382C7.09561 19.5291 7.17032 19.2093 7.20067 18.9741C7.72593 19.0885 8.25703 19.2851 8.80097 19.1947C9.5696 19.1054 10.3347 19.2694 11.1034 19.239C11.8253 19.2239 12.5502 19.2793 13.2692 19.1883C14.6279 19.1276 15.9924 19.2151 17.3493 19.1293C17.3207 19.2945 17.2962 19.4596 17.2752 19.6266C17.2285 19.7731 17.1801 19.9207 17.1334 20.0678C14.7148 20.0654 12.2969 20.0695 9.87893 20.0654C9.04376 19.9732 8.14964 20.0228 7.37984 19.6371L7.37926 19.6382ZM33.9027 36.1233C34.222 36.5313 34.5535 36.9392 34.7752 37.4126C34.9252 37.6273 35.025 37.8987 35.0291 38.1614C35.1704 38.473 35.1447 38.8185 35.1277 39.1512C34.9912 39.101 34.854 39.0537 34.7157 39.0099C33.7486 38.5956 32.9123 37.9407 32.1612 37.2153C32.6374 38.0902 33.437 38.7642 33.7883 39.7103C33.9494 40.4696 33.6751 41.2476 33.2695 41.8831C32.4226 40.4789 31.3844 39.2025 30.4249 37.8765C30.293 37.7645 30.1891 37.6238 30.0747 37.4943C30.3338 38.3814 30.7272 39.2253 31.1929 40.022C31.2519 40.1352 31.3103 40.2484 31.3686 40.3622C30.0239 40.0745 28.897 39.2177 27.9141 38.2956C27.376 37.7983 26.9652 37.1849 26.4317 36.6836C26.5502 38.0715 27.5581 39.1273 28.2421 40.2694C28.374 40.3284 28.4347 40.4702 28.5164 40.5805C27.6515 40.3313 26.8286 39.9624 25.987 39.6473C25.3579 39.4138 24.7789 39.0613 24.2606 38.637C23.1255 37.7015 22.086 36.5657 21.5444 35.179C21.2024 34.0054 21.1849 32.6047 21.9524 31.5868C22.2781 31.0738 22.8022 30.733 23.1366 30.231C22.0866 30.4849 21.0851 30.9308 20.0101 31.089C18.3736 31.3318 16.6863 31.3073 15.0697 30.9413C14.7936 30.8835 14.5293 30.7791 14.2795 30.6495C14.2795 30.6028 14.2812 30.5083 14.2818 30.4616C14.5765 30.2445 14.8993 30.063 15.1555 29.798C14.3349 29.8972 13.5091 30.1102 12.6803 29.9316C13.1449 29.5558 13.6643 29.2371 14.0524 28.7755C13.3416 29.0638 12.5368 29.386 11.7722 29.0965C13.2797 28.4726 14.5193 27.3853 15.916 26.5688C15.9644 26.5139 16.0117 26.4597 16.0584 26.406C15.8144 26.4579 15.5716 26.5186 15.3259 26.5665C15.2103 26.7398 14.9693 26.7725 14.7936 26.8711C13.5908 27.4845 12.1171 27.8364 10.8145 27.3339C11.9864 26.4346 12.9447 25.3064 13.9626 24.2442C14.0904 24.1024 14.2193 23.9617 14.3524 23.824C14.5497 23.5474 14.8397 23.3536 15.0639 23.0991C14.8386 23.1902 14.6186 23.2964 14.3968 23.3974C14.2835 23.5433 14.1207 23.6372 13.9725 23.7435C13.2464 24.2197 12.6202 24.8693 11.7856 25.1611C11.3246 25.349 10.8267 25.4552 10.3295 25.3805C10.2338 24.8862 10.539 24.4596 10.724 24.0277C10.3657 24.2868 10.0418 24.5891 9.73068 24.9025C9.9332 24.3312 10.1515 23.7621 10.452 23.2345C10.0762 23.405 9.74294 23.6507 9.42136 23.9075C9.47681 22.9947 9.88593 22.1449 10.4264 21.4235C10.5816 21.2228 10.8682 21.2601 11.0917 21.2245C13.0953 21.1195 15.1082 21.0845 17.1124 21.1971C16.956 22.2716 16.949 23.3641 17.033 24.4456C17.1223 25.4727 17.3172 26.5291 17.8664 27.4186C18.474 28.343 19.601 28.7574 20.6614 28.8484C22.2465 29.0101 23.8486 29.0031 25.4366 28.9027C25.2785 29.3375 24.8559 29.5552 24.5349 29.8523C25.0462 29.8213 25.5195 29.5937 26.0226 29.5377C26.2899 29.8925 26.5099 30.2882 26.8531 30.5806C27.5348 31.2646 28.4563 31.5973 29.3487 31.9066C29.3224 32.007 29.2962 32.1074 29.2681 32.2084C29.6849 32.5305 30.1588 32.7739 30.5545 33.1235C31.8221 33.9306 32.9485 34.9602 33.9021 36.1216L33.9027 36.1233ZM29.501 30.1744C29.9848 30.217 30.4424 30.391 30.9151 30.4867C31.8017 30.6769 32.7133 30.6693 33.6144 30.6851C32.2522 31.1275 30.7161 30.918 29.5004 30.1744H29.501ZM39.432 30.5795C38.5081 30.5841 37.5831 30.5695 36.6615 30.5188C35.1027 30.2789 33.5199 30.3256 31.954 30.1709C31.2385 30.0239 30.4681 30.0198 29.808 29.6848C29.0685 29.6171 28.4015 29.2132 27.7081 28.9657C27.5132 28.9371 27.3194 28.898 27.1251 28.8689C27.4233 29.2354 27.854 29.4443 28.2392 29.7011C28.7335 30.0134 29.145 30.4406 29.6644 30.7149C30.2364 31.044 30.8778 31.2086 31.518 31.3481C30.8334 31.5144 30.1272 31.3668 29.4549 31.2127C28.5339 30.9641 27.6392 30.5135 26.985 29.8062C26.6459 29.4519 26.4708 28.9873 26.2858 28.542C26.6191 28.5117 26.9459 28.4224 27.2809 28.4206C27.575 28.4539 27.8371 28.6062 28.1021 28.7253C30.2224 29.6206 32.5563 29.6784 34.8155 29.8744C36.4765 29.9953 38.1253 30.2643 39.7915 30.3174C40.1265 30.3157 40.4644 30.2976 40.7953 30.3624C40.371 30.5643 39.8913 30.5625 39.432 30.5795ZM41.4793 29.8085C41.3603 29.8756 41.229 29.9258 41.0907 29.9211C38.4124 29.9678 35.7627 29.5278 33.1037 29.2762C31.3243 29.0825 29.4561 28.9418 27.868 28.036C28.2894 28.0424 28.5415 27.7115 28.7878 27.4232C29.3084 26.9184 29.6189 26.2484 30.1068 25.7179C30.171 25.7932 30.234 25.8684 30.2977 25.9437C30.314 25.9239 30.3484 25.8848 30.3648 25.8644C30.6875 25.3992 31.0645 24.9306 31.598 24.7C32.2441 24.4246 33.0139 24.4152 33.6488 24.7292C34.7268 25.1949 35.2853 26.3167 36.2588 26.9301C37.6268 27.8288 39.2248 28.2847 40.744 28.8525C40.8234 28.9004 40.8905 28.964 40.9617 29.0229C41.2757 29.1373 41.5441 29.4595 41.4793 29.8091V29.8085ZM30.7074 24.4753C30.7797 23.9717 30.9046 23.4756 31.0867 22.9999L31.1305 22.9964C31.3552 22.6567 31.7917 22.6118 32.1641 22.6287C32.5575 22.6468 33.0518 22.8202 33.1119 23.2678C33.2987 23.4884 33.3045 23.8129 33.388 24.0831C32.4956 23.7277 31.476 23.9279 30.7068 24.4747L30.7074 24.4753ZM33.6979 22.5686C33.7778 22.5365 33.8566 22.505 33.936 22.4741C34.0107 22.9953 34.0165 23.5229 34.0924 24.0446C33.8794 23.5783 33.7632 23.0752 33.6979 22.5686ZM34.7764 22.5336C34.7811 21.7305 35.1552 20.8989 35.8847 20.5061C35.6845 20.9975 35.4937 21.4983 35.4517 22.0323C35.3682 22.5762 35.3133 23.2515 35.7516 23.6635C35.7989 23.4779 35.8608 23.297 35.9139 23.1137C36.1363 22.4122 36.5856 21.7901 37.1669 21.3407C37.5346 20.9718 37.9642 20.6689 38.4451 20.4693C37.4389 20.3806 36.6236 21.1306 35.9746 21.8076C36.0656 21.0845 36.5996 20.4197 37.3455 20.3164C38.0179 20.2458 38.703 20.1186 39.3783 20.2271C39.8014 20.1828 40.2275 20.2499 40.6483 20.2925C41.0352 20.3485 41.4811 20.4133 41.7344 20.7471C41.9101 20.9275 41.9077 21.2169 41.934 21.4545C41.9398 21.9885 41.9258 22.5284 41.8149 23.0524C41.6696 24.3487 41.3673 25.7967 40.3004 26.6639C39.4979 27.2487 38.3342 27.2481 37.4663 26.8069C36.885 26.5571 36.3668 26.1235 35.9845 25.6181C35.4744 25.2031 35.0361 24.6475 34.9095 23.9903C34.7332 23.5252 34.7787 23.0215 34.7764 22.5342V22.5336ZM42.6396 24.1683C42.426 25.2294 42.1873 26.3645 41.4035 27.167C40.9319 27.6275 40.2526 28.0372 39.5726 27.8312C40.458 27.7104 41.2821 27.1892 41.7134 26.3984C42.3577 25.1815 42.5217 23.7826 42.7201 22.4396C42.6956 22.226 42.7172 21.9441 42.8544 21.8017C42.8608 22.1484 42.9232 22.5079 42.7989 22.8429C42.8199 23.2894 42.712 23.73 42.6396 24.1683ZM43.246 20.7308C43.166 20.3386 43.2746 19.7631 42.8001 19.5985C41.8762 19.3056 40.8957 19.2974 39.9368 19.2209C38.5221 19.204 37.0846 19.169 35.7015 19.5145C35.3396 19.6073 34.9626 19.7561 34.7361 20.0689C34.4957 20.4051 34.3941 20.8142 34.2885 21.207C32.9899 21.5158 31.6038 21.5589 30.3233 21.1487C30.185 20.4699 29.9183 19.6773 29.1497 19.5104C27.0171 18.9606 24.7876 19.1772 22.6084 19.1427C21.5392 19.1912 20.4571 19.2379 19.4101 19.4801C18.9088 19.5612 18.83 20.1378 18.6246 20.5125C18.3894 20.4892 18.0754 20.5446 17.9038 20.3549C17.93 19.9773 18.0754 19.6219 18.1775 19.26C20.8289 18.7891 23.527 18.876 26.2059 18.8894C27.2231 18.9723 28.2672 18.9571 29.2471 19.2764C29.7175 19.4182 30.1313 19.7719 30.2801 20.2487C30.3934 20.5399 30.4272 20.9613 30.8042 21.0273C31.7456 21.266 32.7547 21.2397 33.7043 21.0541C34.0813 21.0063 34.1922 20.6024 34.3381 20.3147C34.5395 19.8297 34.9567 19.4451 35.4528 19.2787C36.2471 19.0126 37.0951 19.0202 37.9204 18.9531C39.5948 18.9484 41.292 18.8988 42.939 19.2501C43.5909 19.3645 43.5687 20.1898 43.6399 20.7028C43.5092 20.7121 43.3773 20.7209 43.246 20.7302V20.7308ZM44.4518 20.7979C44.3677 20.7956 44.2825 20.7938 44.1985 20.7938C44.1926 20.5388 44.192 20.2849 44.1955 20.031C44.2428 20.0333 44.3379 20.0392 44.3852 20.0421C44.4442 20.2896 44.4658 20.544 44.4518 20.7979Z" fill="#0F1E28"/>
<path d="M36.3658 9.38028C36.325 8.8305 36.2532 8.18676 35.8108 7.80273C36.2479 8.80949 36.2479 10.01 35.8131 11.0179C36.3267 10.6578 36.3705 9.95223 36.3658 9.38028Z" fill="#0F1E28"/>
<path d="M25.5885 13.8726C24.6979 12.7731 23.3053 12.0202 21.8696 12.1095C22.7404 12.525 23.631 12.902 24.4697 13.3829C24.8467 13.5265 25.1508 14.0127 25.5885 13.8726Z" fill="#0F1E28"/>
<path d="M32.1217 25.7598C32.0108 25.639 31.8807 25.5386 31.7499 25.4399C31.3648 25.5689 31.0531 25.8543 30.8663 26.2115C30.8226 26.6084 30.9574 26.9936 31.1984 27.3058C31.464 27.1488 31.7663 27.0332 31.9752 26.7986C32.1941 26.4992 32.1252 26.1053 32.1217 25.7598Z" fill="#0F1E28"/>
<path d="M40.0473 7.15138C39.9848 7.98013 39.9562 8.85673 39.4905 9.58043C39.04 10.3625 38.2538 10.8451 37.6194 11.4585C37.4332 11.643 37.2033 11.7708 36.9786 11.9015C36.7924 12.0258 36.6021 12.1443 36.4084 12.2581C36.5864 11.6494 36.9833 11.1072 37.0136 10.4588C37.0994 9.23901 36.5613 8.07993 35.8936 7.0936C35.4577 6.43585 34.7783 6.0028 34.2846 5.39408C33.9023 4.97912 33.4453 4.62544 33.1658 4.12469C33.0496 4.00038 32.8675 3.96828 32.7158 3.89941C33.101 4.47253 33.5329 5.05032 33.6373 5.75243C33.7581 6.31504 33.6076 6.9617 33.1307 7.31771C32.4771 7.86107 31.5602 7.79862 30.7729 7.67956C29.7982 7.4858 28.8679 7.12336 27.9125 6.86132C29.088 7.92935 30.5838 8.62387 31.5876 9.8845C32.1275 10.5603 32.6656 11.3903 32.5506 12.2931C31.7872 10.8667 30.5254 9.75785 29.1341 8.9612C25.3539 6.83155 20.4707 7.00605 16.7665 9.21916C16.5447 9.35865 16.2961 9.47479 16.1221 9.67789C15.3535 10.5551 14.4524 11.336 13.8752 12.3672C13.4877 13.0297 13.2203 13.758 13.0447 14.5027C13.5174 13.9121 14.0129 13.3057 14.7016 12.9555C14.4571 13.4219 14.1337 13.8572 14.0199 14.3808C13.8367 15.1908 13.8507 16.0283 13.8349 16.853C14.5341 16.0674 15.2852 15.2474 16.3001 14.8856C15.5286 15.6116 14.6993 16.3797 14.429 17.4489C14.9298 17.0357 15.3914 16.5507 16.0107 16.3131C15.5835 16.8477 15.1533 17.3998 14.9636 18.0699C15.0728 18.0897 15.1819 18.1078 15.2916 18.1253C15.3728 18.1235 15.451 18.1107 15.5268 18.0862C16.2704 17.8382 17.0314 17.6403 17.7942 17.4658C17.5415 17.2376 17.2929 16.9989 17.1126 16.7071C17.5649 16.8606 18.023 17.0392 18.5109 16.9942C18.2956 16.78 18.0738 16.5717 17.859 16.3563C18.2337 16.4707 18.6171 16.5623 19.0111 16.5688C18.7969 16.4048 18.5681 16.253 18.4024 16.0365C18.3545 15.9787 18.3072 15.9215 18.26 15.8632C18.8348 15.8124 19.5404 16.2011 20.0103 15.7388C19.4792 15.4354 18.9393 15.0817 18.6189 14.5453C19.063 14.7058 19.4803 14.9457 19.9531 15.0163C20.1468 14.8436 20.3155 14.6475 20.4958 14.4625C20.3383 14.2804 20.1912 14.0901 20.0663 13.8841C20.5361 14.0242 20.9791 14.2524 21.4687 14.3224C22.2905 14.4514 23.1251 14.5599 23.9001 14.878C24.0209 14.8261 24.1406 14.7747 24.2602 14.7239C24.0244 14.4986 23.7846 14.2775 23.5371 14.0668C23.7332 14.1041 23.9305 14.135 24.1254 14.1782C23.9982 14.0422 23.8686 13.9086 23.7408 13.7738C23.9561 13.8275 24.1703 13.8835 24.3857 13.9325C24.4079 13.7493 24.4382 13.5654 24.468 13.3833C23.6293 12.9024 22.7387 12.5254 21.8679 12.1104C23.3037 12.0212 24.6956 12.774 25.5868 13.873C26.3362 14.4584 26.9303 15.2352 27.2519 16.1328C27.3272 15.8918 27.406 15.6507 27.4871 15.4109C27.5268 15.3945 27.6061 15.3618 27.6458 15.3461C28.3415 15.8532 28.418 16.7579 28.6742 17.5119C28.8224 17.4121 28.9701 17.3117 29.1166 17.2113C29.1924 17.6193 29.2724 18.0284 29.3576 18.4346C29.8864 18.615 30.4181 18.8928 30.7233 19.3801C30.9217 19.6602 30.9888 20.0092 31.1855 20.2876C31.796 20.4405 32.4456 20.4073 33.0642 20.3174C33.3782 19.4332 34.0237 18.727 34.6739 18.0734C34.6879 18.1714 34.7013 18.2689 34.7165 18.3669C34.9417 18.102 35.1723 17.8399 35.4016 17.5767C35.3818 17.8288 35.359 18.0821 35.3602 18.3366C35.3905 18.3488 35.4524 18.3716 35.4828 18.3827C35.5137 18.3774 35.5756 18.3652 35.6065 18.3599C35.8522 17.8901 36.0069 17.38 36.231 16.9003C36.4971 16.3044 36.9033 15.7885 37.257 15.2439C36.9757 14.9626 37.121 14.5704 37.2027 14.2378C37.0562 14.3609 36.9103 14.4835 36.7632 14.6049C36.929 14.1029 37.1093 13.58 37.5161 13.2176C38.7242 12.0789 39.8267 10.7121 40.1938 9.05633C40.2697 8.42602 40.2948 7.74843 40.045 7.15138H40.0473ZM29.1393 14.0609C28.5359 13.3944 27.7818 12.8925 27.106 12.3089C27.5489 12.0655 28.059 12.4443 28.4267 12.6906C28.9018 13.1581 29.5537 13.6331 29.5776 14.3597C29.4125 14.2915 29.2566 14.1987 29.1387 14.0615L29.1393 14.0609ZM26.4768 11.4906C26.5702 11.4043 26.6385 11.2572 26.7838 11.2654C27.2472 11.2251 27.6838 11.441 28.059 11.6914C28.3818 11.9149 28.7337 12.1245 28.9421 12.4688C28.4822 12.3486 28.1104 12.0352 27.6768 11.8519C27.3003 11.6616 26.883 11.5875 26.4768 11.4912V11.4906ZM31.6904 12.8055C29.4627 10.7284 26.5591 9.38783 23.5412 9.00147C22.7311 8.89408 21.9094 8.78611 21.0964 8.93377C20.2956 8.97813 19.4628 9.41643 19.2095 10.2218C19.1214 10.1728 19.0333 10.1232 18.9446 10.0753C18.8821 9.54016 19.3023 9.11995 19.7394 8.89233C20.8536 8.38458 22.099 8.33439 23.3013 8.28945C22.9576 8.03032 22.5012 8.16105 22.102 8.13479C21.1022 8.21941 20.0645 8.36707 19.2002 8.91801C18.8944 9.11411 18.6236 9.3639 18.2979 9.53082C18.4987 9.16139 18.864 8.93727 19.2031 8.71199C20.4661 7.9171 22.015 7.83014 23.4659 7.90134C25.3761 8.09218 27.2828 8.64488 28.8942 9.70941C29.1825 9.98196 29.5018 10.2119 29.8473 10.4063C30.9351 11.3348 32.061 12.3591 32.543 13.7475C32.243 13.4475 31.9962 13.0997 31.6904 12.8061V12.8055ZM33.3473 14.8675C33.3245 14.6066 33.3426 14.3457 33.3677 14.0872C33.4231 13.4125 33.2533 12.746 33.0304 12.1151C33.8906 12.69 34.0751 14.121 33.3473 14.8675ZM35.8125 11.0179C35.6777 11.1708 35.5049 11.2823 35.3374 11.3955C35.781 10.3234 35.8901 9.08376 35.4203 7.99997C35.1904 7.30837 34.7065 6.75801 34.3138 6.15921C34.9149 6.60802 35.4226 7.15897 35.8102 7.8027C36.2526 8.18673 36.3243 8.83047 36.3658 9.38025C36.3699 9.95278 36.3261 10.6578 35.8125 11.0179Z" fill="#FC9903"/>
<path d="M39.9509 10.9153C39.6783 11.3238 39.4495 11.7668 39.2593 12.2191C39.6737 11.925 39.8919 11.4073 39.9509 10.9153Z" fill="#FC9903"/>
<path d="M39.3382 13.9811C39.7887 13.0286 40.7453 12.3767 41.0739 11.356C40.8929 11.4423 40.7214 11.548 40.5626 11.6717L40.5603 11.7306C40.5801 12.0376 40.3064 12.239 40.1447 12.4654C39.5687 13.2457 38.7995 13.841 38.0612 14.4562C38.0583 14.668 38.0711 14.8799 38.1009 15.0894C38.5625 14.9692 38.9588 14.6686 39.4316 14.5898C39.7403 14.2186 40.0765 13.8667 40.3076 13.4389C39.9918 13.6321 39.6819 13.8393 39.3382 13.9811Z" fill="#FC9903"/>
<path d="M41.4311 15.8369C41.7462 15.36 41.9592 14.8015 41.9306 14.2231C41.6266 14.4408 41.3552 14.7128 40.9974 14.8459C40.8305 14.9632 40.6677 15.0852 40.5025 15.2077C40.1652 14.969 39.78 14.8114 39.4321 14.5902C39.3528 14.6556 39.2728 14.7204 39.1923 14.7852C39.2973 14.8149 39.403 14.8435 39.508 14.8739C39.3037 15.2077 38.9378 15.5112 39.0218 15.9431C39.4753 15.8748 39.9259 15.782 40.3829 15.7435C40.3082 15.862 40.2218 15.9752 40.1617 16.103C40.1558 16.2431 40.1593 16.3831 40.1611 16.5238C40.6869 16.4829 40.9525 15.9635 41.4316 15.838L41.4311 15.8369Z" fill="#FC9903"/>
<path d="M16.6951 21.9062C15.8155 21.8444 14.9325 21.8654 14.0512 21.8648C13.1811 21.8566 12.2472 21.9856 11.551 22.5506C11.2708 22.7624 11.2171 23.1266 11.1582 23.4493C11.6035 23.1645 12.0885 22.9357 12.6179 22.8698C12.1428 23.3373 11.5306 23.7721 11.4453 24.4888C12.5607 24.082 13.5248 23.346 14.6191 22.8856C14.5502 23.0583 14.4808 23.2316 14.3962 23.398C14.6185 23.2976 14.8374 23.1908 15.0632 23.0997C14.8391 23.3542 14.5491 23.5486 14.3512 23.8252C14.3407 23.9378 14.3366 24.0516 14.3314 24.1654C14.4464 24.2092 14.5607 24.2542 14.6751 24.2985C14.6156 24.3516 14.5555 24.4047 14.4948 24.4584C14.2643 24.651 14.0571 24.8711 13.8791 25.1144C14.3273 24.9913 14.7528 24.801 15.1934 24.6569C14.9798 24.9668 14.821 25.3129 14.7557 25.6858C15.2173 25.6677 15.6784 25.6339 16.14 25.6268C15.8383 25.9111 15.4391 26.1387 15.3253 26.5671C15.571 26.5198 15.8144 26.4591 16.0577 26.4066C16.0111 26.4603 15.9638 26.5151 15.9153 26.57C15.9865 26.6248 16.056 26.6791 16.126 26.7346C15.7239 27.1274 15.0994 27.3054 14.8765 27.8575C15.2307 27.8277 15.5827 27.7682 15.9334 27.7121C15.7321 27.9112 15.5243 28.1032 15.316 28.2946C15.8704 28.4253 16.4412 28.3763 17.0044 28.3757C16.8812 28.4884 16.7575 28.6016 16.6332 28.7136C16.8941 28.6337 17.1567 28.5613 17.4205 28.4936C17.2758 28.6144 17.1316 28.7352 16.9875 28.8566C17.4205 28.9121 17.8553 28.9442 18.2895 28.9903C18.2253 29.1204 18.1605 29.2512 18.0963 29.3819C18.593 29.4834 19.1008 29.4992 19.6056 29.5208C19.1901 29.6813 18.7634 29.8132 18.3561 29.9953C19.7323 30.2217 21.1557 30.2165 22.5348 30.0099C23.2877 29.8091 24.0698 29.6089 24.7328 29.1858C22.9504 29.1864 21.1464 29.3679 19.3768 29.0737C18.4098 28.9348 17.5787 28.2637 17.176 27.3836C16.3542 25.6788 16.6571 23.7295 16.6951 21.9062Z" fill="#FC9903"/>
<path d="M29.2678 32.2101C27.6062 31.7356 25.8991 30.9494 24.1353 31.3265C23.3305 31.5336 22.6903 32.2748 22.6138 33.1048C22.5146 34.0561 22.863 34.9963 23.369 35.7894C24.1295 37.0145 25.2664 37.9308 26.366 38.8366C26.9677 39.3408 27.4906 39.9793 28.2412 40.2705C27.5571 39.1278 26.5492 38.0726 26.4307 36.6841C26.422 36.4705 26.4255 36.2563 26.4296 36.0433C26.9391 36.5668 27.3354 37.1872 27.8431 37.7137C28.7524 38.728 29.8461 39.5877 31.0828 40.1655C31.1103 40.1293 31.1645 40.0581 31.192 40.0225C30.7268 39.2258 30.3335 38.3819 30.0737 37.4942C30.1881 37.6238 30.2914 37.7644 30.4239 37.8765C30.6346 37.9232 30.8926 37.9267 31.0029 38.1502C31.6326 39.1272 32.3662 40.0307 33.066 40.9563C33.2551 40.4888 33.2387 39.9775 33.1086 39.4972C33.2691 39.6671 33.4319 39.8328 33.5971 39.9986C33.6613 39.9023 33.7249 39.8054 33.7885 39.7097C33.4372 38.7636 32.6376 38.0895 32.1614 37.2147C32.9125 37.9401 33.7488 38.5949 34.7159 39.0093C34.7801 38.7128 34.8951 38.4321 35.0287 38.1607C35.0252 37.8975 34.9254 37.6267 34.7748 37.4113C34.664 37.4172 34.5525 37.4289 34.441 37.4394C34.5309 37.6962 34.6114 37.957 34.6715 38.2232C34.3062 37.7656 34.1644 37.1394 33.6543 36.8026C33.8019 37.2491 34.0879 37.6302 34.2566 38.0673C33.7874 37.936 33.3922 37.6465 32.993 37.3798C31.9355 36.7168 30.8978 36.0001 29.7352 35.5297C29.3442 35.3605 28.8931 35.2916 28.5826 34.9753C28.917 34.8609 29.2707 34.8364 29.6208 34.8235C29.4102 34.6811 29.1983 34.5417 28.9847 34.4039C29.6004 33.8857 30.3574 34.4413 30.9848 34.6374C30.7502 34.2942 30.3953 34.0736 30.0732 33.8232C30.1846 33.7707 30.2961 33.7199 30.407 33.668C30.1251 33.661 29.8426 33.6551 29.5607 33.6435C29.758 33.2758 30.1741 33.1766 30.5546 33.1246C30.1589 32.775 29.6856 32.5316 29.2683 32.2095L29.2678 32.2101Z" fill="#FC9903"/>
<path d="M34.6328 5.04756C34.1688 4.70439 33.7124 4.32737 33.1655 4.12427C33.4451 4.6256 33.9026 4.9787 34.2843 5.39424C34.7781 6.00238 35.458 6.43601 35.8934 7.09317C36.5616 8.0795 37.0998 9.23917 37.0134 10.4589C36.983 11.1074 36.5856 11.6495 36.4082 12.2588C36.6013 12.145 36.7922 12.0266 36.9784 11.9023C37.7003 11.0712 37.8812 9.85256 37.5468 8.8172C37.0799 7.25075 35.8829 6.03914 34.6328 5.04815V5.04756Z" fill="#FFE587"/>
<path d="M35.8106 7.80291C35.4231 7.15918 34.9153 6.60765 34.3142 6.15942C34.707 6.75822 35.1908 7.30858 35.4208 8.00018C35.89 9.08456 35.7809 10.3242 35.3373 11.3963C35.5048 11.2825 35.6776 11.171 35.8124 11.0187C36.2472 10.0108 36.2472 8.80967 35.81 7.8035L35.8106 7.80291Z" fill="#FFE587"/>
<path d="M39.8703 6.33276C39.914 6.60824 39.9397 6.89071 40.0471 7.15101C40.2969 7.74806 40.2724 8.42565 40.1959 9.05596C39.8282 10.7117 38.7264 12.0786 37.5183 13.2172C37.1115 13.5791 36.9311 14.1026 36.7654 14.6045C36.9125 14.4831 37.0589 14.3611 37.2048 14.2374C37.1231 14.5701 36.9778 14.9617 37.2591 15.2436C37.4914 14.9471 37.7838 14.7072 38.061 14.4568C38.7999 13.8411 39.5685 13.2458 40.1446 12.4655C40.3068 12.2396 40.5805 12.0377 40.5601 11.7307C40.4632 11.7669 40.3675 11.8031 40.2718 11.8387C40.4802 11.5621 40.6728 11.2667 40.7644 10.9288C41.2313 9.37404 40.8636 7.60799 39.8703 6.33276ZM39.2586 12.2186C39.4495 11.7663 39.6777 11.3233 39.9502 10.9148C39.8907 11.4068 39.6724 11.9245 39.2586 12.2186Z" fill="#FFE587"/>
<path d="M28.8941 9.70913C27.2827 8.64401 25.376 8.09132 23.4658 7.90106C22.0155 7.82985 20.4659 7.91623 19.2035 8.71113C18.865 8.93699 18.4991 9.16052 18.2983 9.52996C18.624 9.36304 18.8942 9.11383 19.2006 8.91715C20.065 8.36621 21.1027 8.21913 22.1024 8.13392C22.5016 8.16077 22.958 8.02945 23.3018 8.28858C22.0989 8.33294 20.8535 8.3843 19.7399 8.89205C19.3022 9.11908 18.882 9.53988 18.9444 10.0751C19.0337 10.1235 19.1213 10.1731 19.21 10.2216C19.4633 9.41615 20.2967 8.97843 21.0968 8.93407C21.9098 8.78642 22.731 8.89439 23.5416 9.00178C26.5601 9.38872 29.4637 10.7287 31.6908 12.8058C31.9972 13.0994 32.2435 13.4473 32.5435 13.7472C32.062 12.3588 30.9356 11.3345 29.8477 10.406C29.5016 10.2116 29.1824 9.98168 28.8941 9.70913Z" fill="#FFE587"/>
<path d="M41.8787 9.85556C41.6989 10.403 41.3662 10.8717 41.0738 11.3561C40.7453 12.3768 39.7887 13.0287 39.3381 13.9812C39.6819 13.8394 39.9918 13.6322 40.3075 13.439C40.077 13.8668 39.7403 14.2193 39.4315 14.5899C39.7794 14.8111 40.1651 14.9687 40.5019 15.2074C40.6665 15.0854 40.8299 14.9629 40.9968 14.8456C41.5297 14.0051 41.8682 13.0352 41.9201 12.0377C41.6446 12.2916 41.3832 12.57 41.0435 12.741C41.5197 11.8521 41.8658 10.8728 41.8781 9.85498L41.8787 9.85556Z" fill="#FFE587"/>
<path d="M28.0584 11.6911C27.6837 11.4407 27.2472 11.2253 26.7838 11.2656C26.6379 11.2569 26.5702 11.4045 26.4768 11.4909C26.883 11.5878 27.3003 11.6619 27.6767 11.8516C28.1104 12.0348 28.4821 12.3482 28.942 12.4685C28.7325 12.1247 28.3812 11.9146 28.0584 11.6911Z" fill="#FFE587"/>
<path d="M33.3479 14.8676C34.0757 14.1212 33.8913 12.6907 33.031 12.1152C33.254 12.7456 33.4244 13.4121 33.3689 14.0867C33.3432 14.3459 33.3252 14.6067 33.3479 14.8676Z" fill="#FFE587"/>
<path d="M28.4267 12.6909C28.059 12.444 27.5489 12.0652 27.106 12.3092C27.7818 12.8928 28.5358 13.3947 29.1393 14.0612C29.2566 14.1984 29.4124 14.2912 29.5776 14.3594C29.5537 13.6322 28.9018 13.1578 28.4267 12.6909Z" fill="#FFE587"/>
<path d="M42.5829 13.0794C42.416 13.4891 42.1119 13.8306 41.9298 14.2233C41.9584 14.8017 41.7448 15.3603 41.4302 15.8371C41.2569 16.1079 41.0608 16.3641 40.8682 16.6215C40.9995 16.6938 41.1326 16.7645 41.2651 16.8357C40.8799 17.0732 40.5145 17.3603 40.2957 17.7665C40.3733 17.8278 40.4503 17.8885 40.5262 17.9504C41.2942 17.5477 41.9234 16.8695 42.2134 16.0478C42.552 15.1 42.6097 14.0769 42.5823 13.0789L42.5829 13.0794Z" fill="#FFE587"/>
<path d="M33.9023 36.1232C32.9486 34.9618 31.8222 33.9323 30.5546 33.1257C30.1741 33.1783 29.7579 33.2775 29.5607 33.6446C29.8426 33.6562 30.125 33.6621 30.4069 33.6691C30.296 33.721 30.1846 33.7718 30.0731 33.8243C30.3953 34.0747 30.7507 34.2953 30.9847 34.6385C30.3567 34.4424 29.5998 33.8862 28.9846 34.405C29.1982 34.5434 29.4101 34.6828 29.6208 34.8247C29.2706 34.8375 28.9169 34.862 28.5825 34.9764C28.893 35.2927 29.3442 35.3616 29.7352 35.5309C30.8978 36.0013 31.9355 36.7179 32.993 37.3809C33.3922 37.6477 33.7867 37.9366 34.2565 38.0685C34.0873 37.6313 33.8013 37.2502 33.6542 36.8037C34.1649 37.1411 34.3061 37.7673 34.6715 38.2243C34.6114 37.9582 34.5308 37.6973 34.441 37.4405C34.5524 37.43 34.6639 37.4183 34.7748 37.4125C34.5536 36.9391 34.2221 36.5318 33.9029 36.1232H33.9023Z" fill="#FFE587"/>
<path d="M16.1232 9.67792C15.8629 9.77072 15.6388 9.93414 15.4228 10.1028C14.2462 10.9438 13.2214 11.9745 12.2397 13.032C11.5049 13.8794 10.6488 14.7099 9.51477 14.9621C10.2402 15.3805 10.9738 14.8051 11.715 14.8331C11.2079 15.6893 10.228 16.1317 9.2854 16.3219C10.64 16.769 11.945 15.9426 13.0661 15.2743C12.3109 16.3499 11.3147 17.2295 10.5332 18.2817C11.9444 18.2345 13.3568 18.2543 14.768 18.21C14.9472 18.2059 15.1217 18.1673 15.2938 18.1236C15.1847 18.1061 15.075 18.0886 14.9658 18.0681C15.1555 17.3981 15.5856 16.8466 16.0129 16.3114C15.3936 16.549 14.9314 17.0339 14.4312 17.4477C14.7014 16.3785 15.5308 15.6105 16.3029 14.8845C15.2874 15.2463 14.5363 16.0663 13.8377 16.8519C13.8534 16.0272 13.8389 15.1897 14.0227 14.3796C14.1365 13.8561 14.4598 13.4207 14.7044 12.9544C14.0157 13.3046 13.5202 13.911 13.0469 14.5016C13.2225 13.7569 13.4898 13.0285 13.8774 12.3661C14.4546 11.3348 15.3557 10.5539 16.1243 9.67676L16.1232 9.67792Z" fill="#CE6501"/>
<path d="M25.5885 13.8725C25.1507 14.0125 24.8467 13.5264 24.4696 13.3828C24.4399 13.5649 24.4101 13.7482 24.3879 13.9314C24.4375 14.0511 24.6477 14.0616 24.758 14.1339C25.9077 14.5892 26.7166 15.6689 27.0213 16.8449C27.0779 16.633 27.1602 16.4276 27.2722 16.2397C27.4117 16.6062 27.4216 17.0013 27.4292 17.3888C27.5804 17.149 27.7117 16.898 27.8284 16.6406C27.8413 17.083 27.8623 17.526 27.8226 17.9672C28.0309 17.7688 28.2282 17.5581 28.4196 17.3421C28.4074 17.617 28.3525 17.8937 28.3922 18.1685C28.7365 18.1697 29.033 18.3565 29.3593 18.4353C29.2746 18.0285 29.1947 17.6199 29.1182 17.2114C28.9717 17.3118 28.8241 17.4122 28.6758 17.512C28.4196 16.7585 28.3432 15.8533 27.6475 15.3461C27.6078 15.3619 27.5278 15.3946 27.4887 15.4109C27.4076 15.6502 27.3294 15.8912 27.2535 16.1329C26.9314 15.2347 26.3372 14.4584 25.5885 13.8731V13.8725Z" fill="#CE6501"/>
<path d="M24.1278 14.1771C23.9329 14.134 23.7362 14.103 23.5396 14.0657C23.7876 14.2764 24.0269 14.4976 24.2627 14.7228C24.1424 14.7736 24.0234 14.825 23.9026 14.8769C24.6105 15.2049 25.2507 15.6485 25.8501 16.1434C25.4719 15.3567 24.8702 14.6306 24.1273 14.1777L24.1278 14.1771Z" fill="#CE6501"/>
<path d="M21.115 14.9873C20.9125 14.8087 20.7088 14.6313 20.4981 14.4614C20.3178 14.6464 20.1485 14.8425 19.9553 15.0153L19.9238 15.0433C20.3224 15.0649 20.7216 15.0585 21.115 14.9873Z" fill="#CE6501"/>
<path d="M38.1008 15.09C38.0711 14.8799 38.0582 14.6686 38.0611 14.4568C37.7833 14.7077 37.4915 14.9476 37.2592 15.2441C36.9056 15.7886 36.4993 16.3045 36.2332 16.9004C36.0091 17.3802 35.8544 17.8903 35.6082 18.3601C35.7827 18.3198 35.9577 18.2795 36.1317 18.2398C36.4427 17.0428 37.0048 15.7974 38.1067 15.1373L38.1002 15.09H38.1008Z" fill="#CE6501"/>
<path d="M39.5075 14.8734C39.4024 14.843 39.2968 14.8144 39.1917 14.7847C38.4289 15.3549 37.7122 16.1299 37.5354 17.0964C37.962 16.6435 38.4114 16.1766 39.0231 15.9869L39.0219 15.9426C38.9379 15.5107 39.3038 15.2072 39.5081 14.8734H39.5075Z" fill="#CE6501"/>
<path d="M21.2404 16.2613C20.8284 16.0938 20.4368 15.8761 20.0125 15.7378C19.5433 16.2 18.8377 15.8119 18.2622 15.8621C18.3095 15.9205 18.3573 15.9777 18.4046 16.0354C19.2976 16.4195 20.2956 16.4002 21.2404 16.2613Z" fill="#CE6501"/>
<path d="M41.4311 15.8369C40.9525 15.963 40.6864 16.4818 40.1605 16.5227C40.1593 16.3826 40.1553 16.2425 40.1611 16.1019C39.8926 16.3096 39.7397 16.6166 39.6119 16.923C40.0029 16.7777 40.3864 16.5845 40.8118 16.5717C40.2994 17.0223 39.5886 17.3929 39.5098 18.1545C39.8576 18.1411 40.2031 18.0792 40.527 17.9508C40.4506 17.8889 40.3741 17.8277 40.2965 17.767C40.5154 17.3608 40.8801 17.073 41.2659 16.8361C41.1334 16.7649 41.0003 16.6943 40.869 16.6219C41.0616 16.3645 41.2577 16.1083 41.4311 15.8375V15.8369Z" fill="#CE6501"/>
<path d="M18.7197 18.0518C18.4185 17.8452 18.1092 17.652 17.7958 17.4641C17.0324 17.6386 16.2714 17.8365 15.5278 18.0845C16.5906 18.1709 17.6551 17.9695 18.7197 18.0512V18.0518Z" fill="#CE6501"/>
<path d="M35.4038 17.5767C35.1745 17.8399 34.9445 18.1013 34.7187 18.3669C34.7041 18.2688 34.6906 18.1714 34.676 18.0733C34.0253 18.727 33.3804 19.4332 33.0664 20.3174C33.5006 20.2707 33.5788 19.7892 33.807 19.4991C34.194 18.9155 34.8546 18.6219 35.485 18.3826C35.4546 18.371 35.3927 18.3482 35.363 18.3365C35.3618 18.0821 35.3846 17.8288 35.4038 17.5767Z" fill="#CE6501"/>
<path d="M17.1125 21.1987C15.1077 21.0861 13.0954 21.1211 11.0912 21.2262C10.8677 21.2612 10.5817 21.225 10.4259 21.4252C9.88546 22.1465 9.47634 22.9963 9.4209 23.9085C9.74248 23.6517 10.0751 23.4066 10.451 23.2356C10.1504 23.7632 9.93274 24.3328 9.72964 24.9036C10.0407 24.5902 10.3652 24.2879 10.7236 24.0287C10.5385 24.4606 10.2333 24.8872 10.329 25.3822C10.8269 25.4563 11.3241 25.3506 11.7852 25.1621C12.6198 24.8703 13.246 24.2207 13.9726 23.7451C14.1208 23.6389 14.2837 23.5443 14.3969 23.3984C14.4815 23.2315 14.551 23.0582 14.6198 22.886C13.5255 23.347 12.5614 24.0824 11.4461 24.4892C11.5319 23.7725 12.1435 23.3371 12.6186 22.8702C12.0892 22.9362 11.6042 23.165 11.1589 23.4498C11.2179 23.127 11.271 22.7628 11.5517 22.551C12.248 21.986 13.1818 21.8571 14.052 21.8652C14.9332 21.8658 15.8163 21.8454 16.6958 21.9067C16.6579 23.7299 16.355 25.6792 17.1767 27.384C17.5794 28.2641 18.4105 28.9358 19.3776 29.0742C21.1471 29.3683 22.9511 29.1868 24.7335 29.1862C24.0705 29.6088 23.2884 29.8095 22.5356 30.0103C21.1564 30.2175 19.733 30.2222 18.3568 29.9957C18.7647 29.8136 19.1908 29.6817 19.6063 29.5212C19.1015 29.4996 18.5937 29.4839 18.0971 29.3823C18.1619 29.2516 18.2266 29.1209 18.2903 28.9907C17.856 28.9446 17.4212 28.9125 16.9882 28.8571C17.1318 28.7357 17.2765 28.6149 17.4212 28.494C17.1574 28.5617 16.8948 28.6341 16.6339 28.7141C16.7582 28.602 16.882 28.4888 17.0051 28.3762C16.4419 28.3767 15.8711 28.4258 15.3167 28.295C15.525 28.1036 15.7328 27.9116 15.9342 27.7126C15.5834 27.7686 15.2315 27.8281 14.8772 27.8579C15.1002 27.3058 15.7246 27.1272 16.1268 26.735C16.0573 26.6796 15.9873 26.6253 15.9161 26.5704C14.52 27.3875 13.2804 28.4742 11.7723 29.0987C12.5369 29.3876 13.3411 29.0654 14.0526 28.7771C13.6644 29.2388 13.145 29.5574 12.6799 29.9333C13.5086 30.1119 14.3344 29.8988 15.1556 29.7996C14.8994 30.0652 14.5766 30.2461 14.2819 30.4632C14.2813 30.5099 14.2808 30.6039 14.2796 30.6511C14.53 30.7807 14.7938 30.8857 15.0698 30.9429C16.687 31.3095 18.3737 31.334 20.0102 31.0912C21.0852 30.933 22.0867 30.4865 23.1367 30.2327C22.8023 30.7352 22.2782 31.076 21.9525 31.5884C21.185 32.6057 21.2026 34.0064 21.544 35.1806C22.0862 36.5668 23.125 37.7031 24.2602 38.6386C24.7784 39.0629 25.3574 39.4154 25.9865 39.6489C26.8275 39.9646 27.651 40.3329 28.516 40.5821C28.4343 40.4724 28.3736 40.33 28.2411 40.2716C27.4905 39.9804 26.9676 39.3419 26.3659 38.8376C25.2663 37.9319 24.13 37.0156 23.369 35.7905C22.8636 34.9974 22.5145 34.0572 22.6138 33.1059C22.6902 32.2759 23.3305 31.5347 24.1353 31.3275C25.899 30.9505 27.6061 31.7367 29.2677 32.2112C29.2957 32.1096 29.3225 32.0098 29.3482 31.9094C28.4559 31.6001 27.5343 31.2674 26.8526 30.5834C26.5095 30.291 26.2894 29.8953 26.0221 29.5399C25.5196 29.5959 25.0457 29.8241 24.5345 29.8551C24.8561 29.558 25.278 29.3403 25.4362 28.9055C23.8481 29.0059 22.2461 29.0129 20.6609 28.8518C19.5999 28.7608 18.4729 28.3464 17.8654 27.4219C17.3168 26.5325 17.1213 25.4761 17.032 24.4489C16.9479 23.3675 16.9549 22.2755 17.1119 21.2005L17.1125 21.1987Z" fill="#CE6501"/>
<path d="M14.4949 24.4577C14.3099 24.408 14.1272 24.3433 13.962 24.2446C12.9448 25.3068 11.9865 26.435 10.814 27.3343C12.116 27.8368 13.5903 27.4855 14.7931 26.8715C14.9688 26.7729 15.2093 26.7402 15.3254 26.5669C15.4392 26.1385 15.8378 25.9103 16.1401 25.6267C15.6785 25.6337 15.2174 25.6675 14.7558 25.6856C14.8211 25.3127 14.9799 24.9666 15.1935 24.6567C14.7529 24.8002 14.3268 24.9911 13.8792 25.1142C14.0566 24.8714 14.2638 24.6514 14.4949 24.4582V24.4577Z" fill="#CE6501"/>
<path d="M33.6473 24.728C33.0124 24.414 32.2431 24.4233 31.5965 24.6982C31.0636 24.9287 30.686 25.3968 30.3633 25.8625C30.6102 25.8258 30.8255 25.9553 30.8658 26.2115C31.0525 25.8544 31.3642 25.569 31.7494 25.44C31.8988 25.4178 32.05 25.4026 32.1994 25.3845C32.0838 25.2941 31.97 25.2019 31.8574 25.1085C32.1182 25.06 32.3809 25.0174 32.6453 24.9988C33.0643 24.9702 33.5166 24.969 33.8808 25.2089C34.3775 25.4966 34.6558 26.0172 35.0527 26.4111C35.948 27.2195 37.096 27.6391 38.1874 28.1042C38.7523 28.4848 39.3926 28.7235 40.0491 28.8939C40.3538 28.9272 40.6619 28.9464 40.9602 29.0229C40.889 28.9633 40.8213 28.8997 40.7425 28.8519C39.2233 28.284 37.6253 27.8288 36.2573 26.93C35.2838 26.3166 34.7253 25.1949 33.6473 24.7291V24.728Z" fill="#CE6501"/>
<path d="M32.6275 25.9862C32.498 25.8041 32.3661 25.5899 32.1134 25.5946C32.1157 25.636 32.1192 25.7183 32.1215 25.7597C32.125 26.1058 32.1933 26.4998 31.975 26.7986C31.7667 27.0332 31.4638 27.1488 31.1982 27.3057C31.3278 27.5188 31.6044 27.5976 31.8017 27.4225C32.2254 27.053 32.4361 26.5015 32.6281 25.9868L32.6275 25.9862Z" fill="#CE6501"/>
<path d="M30.1063 25.7161C29.6178 26.2466 29.3073 26.9166 28.7867 27.4214C28.541 27.7103 28.2883 28.0412 27.8669 28.0348C29.455 28.9406 31.3232 29.0813 33.1027 29.275C35.7617 29.5266 38.4113 29.9666 41.0896 29.9199C41.2279 29.9252 41.3592 29.8744 41.4777 29.8079C40.0799 29.5732 38.6658 29.4507 37.2511 29.3777C34.8115 29.1011 32.3416 29.0556 29.9271 28.5741C29.4322 28.4865 28.9601 28.3085 28.5095 28.0914C29.2741 27.5294 29.7369 26.6866 30.296 25.9425C30.233 25.8672 30.1693 25.7914 30.1057 25.7161H30.1063Z" fill="#CE6501"/>
<path d="M28.1016 28.7246C27.8361 28.6049 27.5746 28.4526 27.2805 28.4199C26.9455 28.4211 26.6181 28.5104 26.2854 28.5413C26.4704 28.9866 26.6449 29.4506 26.984 29.8054C27.6377 30.5128 28.5329 30.9639 29.4539 31.212C30.1262 31.3661 30.8324 31.5137 31.517 31.3474C30.8774 31.2085 30.2348 31.0439 29.6634 30.7147C29.1446 30.441 28.7325 30.0132 28.2382 29.701C27.853 29.4442 27.4223 29.2352 27.1235 28.8693C27.3184 28.8979 27.5116 28.937 27.7065 28.9656C27.8279 28.982 27.9505 28.996 28.0713 29.0111C28.0818 28.9154 28.0923 28.8209 28.1016 28.7257V28.7246Z" fill="#CE6501"/>
<path d="M33.2246 29.9561C32.0801 29.9135 30.956 29.6286 29.8069 29.6835C30.467 30.0191 31.2368 30.0226 31.9523 30.1702C33.5182 30.3249 35.101 30.2782 36.6598 30.5181C37.5814 30.5689 38.507 30.5835 39.4309 30.5782C39.8902 30.5607 40.3699 30.563 40.7942 30.3611C40.4633 30.2957 40.1254 30.3144 39.7904 30.3156C38.1247 30.2625 36.476 29.9934 34.815 29.8726C34.8838 29.9683 34.9533 30.0646 35.0227 30.1609C34.4706 29.8317 33.8234 30.0529 33.2246 29.9555V29.9561Z" fill="#CE6501"/>
<path d="M30.9146 30.4867C30.4413 30.3904 29.9843 30.2164 29.5005 30.1738C30.7156 30.9174 32.2523 31.1275 33.6139 30.6851C32.7122 30.6693 31.8011 30.6763 30.9146 30.4867Z" fill="#CE6501"/>
<path d="M27.8432 37.7135C27.3354 37.1871 26.9391 36.5667 26.4296 36.0432C26.4261 36.2562 26.4226 36.4704 26.4308 36.684C26.9642 37.1854 27.3751 37.7993 27.9132 38.296C28.8954 39.2176 30.023 40.0749 31.3671 40.3626C31.3087 40.2488 31.2504 40.1356 31.1914 40.0224C31.164 40.0586 31.1097 40.1298 31.0823 40.1654C29.8456 39.587 28.7519 38.7279 27.8426 37.7135H27.8432Z" fill="#CE6501"/>
<path d="M31.0028 38.1507C30.8931 37.9271 30.6345 37.9236 30.4238 37.877C31.3839 39.203 32.4222 40.4793 33.2684 41.8835C33.6746 41.248 33.9483 40.47 33.7873 39.7107C33.7242 39.8064 33.66 39.9033 33.5958 39.9996C33.4313 39.8344 33.2678 39.6681 33.1073 39.4983C33.2375 39.9786 33.2538 40.4898 33.0647 40.9573C32.365 40.0311 31.6319 39.1282 31.0016 38.1513L31.0028 38.1507Z" fill="#CE6501"/>
<path d="M35.1274 39.1506C35.1437 38.8185 35.17 38.4724 35.0282 38.1614C34.8945 38.4322 34.7795 38.7135 34.7153 39.01C34.8537 39.0537 34.9908 39.101 35.1274 39.1506Z" fill="#CE6501"/>
<path d="M24.7078 16.6196C24.0471 15.5849 22.6476 15.2038 21.5171 15.6088C22.1859 15.6065 22.8711 15.6374 23.4985 15.8907C23.9409 16.0646 24.3022 16.3809 24.7078 16.6196Z" fill="#1AA4A9"/>
<path d="M29.2455 19.2763C28.2655 18.9577 27.2214 18.9723 26.2042 18.8894C23.5253 18.876 20.8266 18.789 18.1758 19.2606C18.0737 19.6213 17.9278 19.9773 17.9021 20.3549C18.0731 20.5445 18.3877 20.4891 18.6223 20.5124C18.8277 20.1378 18.9071 19.5611 19.4084 19.48C20.4555 19.2378 21.5375 19.1911 22.6067 19.1427C24.786 19.1765 27.0154 18.96 29.148 19.5104C29.9172 19.6773 30.1839 20.4693 30.3222 21.148C31.6027 21.5583 32.9888 21.5145 34.2874 21.2064C34.393 20.813 34.4952 20.4045 34.7356 20.0683C34.9615 19.7555 35.3391 19.6067 35.7004 19.5139C37.0835 19.1678 38.521 19.2034 39.9363 19.2203C40.8946 19.2968 41.8757 19.3049 42.7996 19.5979C43.2741 19.7625 43.1655 20.3379 43.2455 20.7301C43.3768 20.7208 43.5087 20.712 43.6394 20.7027C43.5682 20.1891 43.5898 19.3639 42.9385 19.2495C41.2915 18.8981 39.5943 18.9477 37.9199 18.9524C37.0946 19.0195 36.2466 19.0114 35.4523 19.2781C34.9562 19.4444 34.5384 19.829 34.3376 20.3134C34.1917 20.6017 34.0808 21.0056 33.7032 21.0535C32.7542 21.2396 31.7445 21.2653 30.8031 21.0266C30.4261 20.9613 30.3917 20.5399 30.2791 20.2486C30.1302 19.7718 29.7159 19.4181 29.246 19.2757L29.2455 19.2763Z" fill="#1AA4A9"/>
<path d="M17.3483 19.1299C15.9908 19.2157 14.6268 19.1275 13.2681 19.1888C12.5491 19.2793 11.8243 19.2238 11.1023 19.239C10.3337 19.2694 9.56854 19.1054 8.7999 19.1947C8.79173 19.2507 8.78415 19.3067 8.77539 19.3639C9.68351 19.5303 10.6109 19.5845 11.5336 19.5705C13.2109 19.5635 14.8883 19.5787 16.5662 19.5618C16.8043 19.5629 17.0407 19.5915 17.2742 19.6277C17.2952 19.4608 17.3197 19.2956 17.3483 19.1299Z" fill="#1AA4A9"/>
<path d="M18.0964 22.2773C18.0293 22.4157 17.9546 22.5499 17.8922 22.69C17.8303 23.4615 17.9073 24.2366 17.9849 25.0035C18.1163 25.9291 18.4507 26.9166 19.2538 27.4704C20.1058 28.05 21.185 28.0325 22.1713 28.1247C23.6479 28.1072 25.1478 28.2373 26.5999 27.8947C27.3802 27.7115 28.1249 27.3245 28.6554 26.7135C29.4806 25.7616 29.9329 24.522 30.073 23.2829C30.0473 23.144 30.0117 23.008 29.9843 22.8709C29.7508 24.4391 29.2816 26.169 27.9101 27.1255C26.8601 27.8329 25.5493 27.8504 24.333 27.9368C22.9808 27.9496 21.6116 27.9636 20.2844 27.6683C19.5532 27.5113 18.8983 27.0181 18.5913 26.3312C17.9984 25.063 18.1408 23.6319 18.0958 22.2773H18.0964Z" fill="#1AA4A9"/>
<path d="M42.7974 22.8423C42.7735 22.7068 42.742 22.5738 42.7181 22.439C42.5196 23.7819 42.3562 25.1814 41.7113 26.3977C41.28 27.1885 40.4559 27.7097 39.5706 27.8305C40.2499 28.0359 40.9292 27.6262 41.4014 27.1663C42.1852 26.3638 42.4239 25.2287 42.6375 24.1682C42.7099 23.7294 42.8178 23.2887 42.7974 22.8423Z" fill="#1AA4A9"/>
<path d="M8.79988 19.1945C8.25652 19.2849 7.72484 19.0889 7.20016 18.9739C7.16981 19.2097 7.09511 19.5289 7.37875 19.638C8.14855 20.0244 9.04267 19.9736 9.87784 20.0664C12.2958 20.0699 14.7138 20.0664 17.1329 20.0688C17.1796 19.9211 17.228 19.774 17.2747 19.6275C17.0413 19.5908 16.8043 19.5628 16.5668 19.5616C14.8894 19.5779 13.2121 19.5628 11.5342 19.5703C10.6115 19.5849 9.68407 19.5301 8.77595 19.3637C8.78471 19.3071 8.79229 19.2511 8.80046 19.1945H8.79988Z" fill="#0C3845"/>
<path d="M44.3842 20.0415C44.337 20.0386 44.2418 20.0328 44.1945 20.031C44.191 20.2849 44.1916 20.5388 44.1975 20.7932C44.2815 20.7938 44.3667 20.7956 44.4508 20.7973C44.4654 20.5434 44.4438 20.289 44.3848 20.0415H44.3842Z" fill="#015B87"/>
<path d="M18.2081 21.6179C18.1614 21.6208 18.068 21.6267 18.0213 21.6296C17.9402 21.9774 17.883 22.3323 17.8924 22.69C17.9548 22.55 18.0295 22.4152 18.0966 22.2774C18.1947 22.0726 18.1894 21.8397 18.2081 21.6179Z" fill="#015B87"/>
<path d="M42.8527 21.801C42.7156 21.9434 42.694 22.2253 42.7185 22.4389C42.7424 22.5743 42.7739 22.7074 42.7978 22.8422C42.9222 22.5072 42.8597 22.1477 42.8533 21.801H42.8527Z" fill="#015B87"/>
<path d="M33.9344 22.4735C33.855 22.5044 33.7762 22.5359 33.6963 22.5674C33.7617 23.0746 33.8784 23.5777 34.0908 24.0434C34.0144 23.5223 34.0091 22.9947 33.9338 22.4729L33.9344 22.4735Z" fill="#015B87"/>
<path d="M30.1163 22.4373C30.0299 22.5645 29.933 22.7081 29.9856 22.8709C30.013 23.008 30.048 23.144 30.0743 23.2829C30.1706 23.0098 30.1577 22.7186 30.1169 22.4373H30.1163Z" fill="#015B87"/>
<path d="M35.6725 24.1299C35.4501 23.9565 35.2412 23.7668 35.0404 23.5696C34.9943 23.7085 34.9476 23.8474 34.908 23.9886C35.0346 24.6458 35.4729 25.2014 35.983 25.6164C35.9083 25.4646 35.8476 25.307 35.7939 25.1477C35.6795 24.822 35.6626 24.4713 35.6725 24.1299Z" fill="#015B87"/>
<path d="M26.5819 20.1483C26.0082 20.0275 25.4176 20.0928 24.8369 20.0765C23.9895 20.0975 23.1065 19.9779 22.2917 20.2749C21.8061 20.5101 21.3754 20.9473 21.2832 21.4959C21.4606 21.3646 21.6293 21.2222 21.7921 21.0745C22.3874 20.5288 23.1905 20.272 23.9796 20.1798C22.9185 20.649 21.9392 21.3692 21.3112 22.355C21.8359 22.0772 22.4499 22.076 22.9856 21.8291C23.4595 21.6149 23.9959 21.6144 24.471 21.4048C24.4926 21.469 24.5142 21.5338 24.534 21.598C24.7885 21.1924 25.0762 20.7862 25.4789 20.516C25.7736 20.3146 26.1454 20.331 26.4839 20.3683C26.4378 20.321 26.3911 20.2744 26.3438 20.2282C26.4238 20.2002 26.5026 20.1728 26.5819 20.1477V20.1483Z" fill="#0189BD"/>
<path d="M21.6303 20.1482C20.9323 20.1785 20.1817 20.3881 19.709 20.9349C19.4493 21.2828 19.2369 21.7001 19.2514 22.1459C19.3903 21.9983 19.5392 21.8629 19.6851 21.7234C19.7948 21.7549 19.9045 21.7858 20.0137 21.8174C20.1251 21.7345 20.2343 21.6499 20.3527 21.5792C20.5162 21.4555 20.6784 21.6516 20.8185 21.724C21.0023 21.1561 21.2924 20.6373 21.6297 20.1488L21.6303 20.1482Z" fill="#0189BD"/>
<path d="M40.6472 20.2914C40.2258 20.2488 39.8004 20.1816 39.3767 20.226C39.0668 20.31 38.7609 20.4122 38.4434 20.4682C37.9625 20.6678 37.5324 20.9707 37.1653 21.3396C36.5846 21.7889 36.1352 22.4111 35.9128 23.1126C36.2082 22.9083 36.5519 22.7869 36.9143 22.7922C37.6929 22.7578 38.3886 22.3247 39.1648 22.2704C39.2524 22.2879 39.3323 22.3317 39.4163 22.3615C39.7181 21.751 40.0461 21.1009 40.6291 20.7133C40.9239 20.4962 41.298 20.6205 41.6149 20.7081C41.6446 20.7174 41.7036 20.7361 41.7328 20.7454C41.4795 20.4116 41.0342 20.3468 40.6472 20.2908V20.2914Z" fill="#0189BD"/>
<path d="M39.3768 20.2257C38.7015 20.1172 38.0163 20.2444 37.344 20.315C36.5981 20.4183 36.0641 21.0831 35.9736 21.8062C36.622 21.1298 37.4374 20.3798 38.4435 20.4679C38.7616 20.4119 39.0668 20.3098 39.3768 20.2257Z" fill="#005078"/>
<path d="M35.8831 20.5054C35.1541 20.8982 34.78 21.7298 34.7753 22.5329C34.7783 23.0196 34.7322 23.5239 34.9084 23.989C34.9481 23.8472 34.9948 23.7089 35.0409 23.57C35.2417 23.7673 35.4506 23.9569 35.673 24.1303C35.6916 23.9727 35.7162 23.8169 35.7506 23.6628C35.3117 23.2507 35.3666 22.5755 35.4506 22.0316C35.492 21.4981 35.6835 20.9968 35.8837 20.506L35.8831 20.5054Z" fill="#005078"/>
<path d="M28.8662 20.7173C28.2224 20.2148 27.3546 20.2312 26.5819 20.1477C26.5025 20.1728 26.4237 20.2002 26.3438 20.2282C26.391 20.2744 26.4377 20.321 26.4838 20.3683C26.6414 20.5171 26.7266 20.7179 26.7961 20.9193C27.0313 20.9414 27.2653 20.97 27.4976 21.0121C27.6843 20.8393 27.8863 20.649 28.1466 20.6064C28.3701 20.5994 28.5627 20.7354 28.7553 20.8294C28.7827 20.8014 28.8382 20.7453 28.865 20.7173H28.8662Z" fill="#04A7DB"/>
<path d="M26.4839 20.3688C26.1454 20.3314 25.7736 20.3151 25.4789 20.5164C25.0762 20.7867 24.7884 21.1929 24.534 21.5985C23.8914 22.7144 23.306 23.8624 22.6839 24.9905C22.5111 25.2969 22.367 25.6267 22.3459 25.9827C22.587 26.1338 22.8566 26.3241 23.1578 26.2471C23.5885 26.1578 23.8144 25.7387 24.0192 25.3921C24.36 24.8335 24.6057 24.2201 24.9962 23.6914C25.5203 22.7202 26.0782 21.7631 26.7961 20.9191C26.7272 20.7178 26.6414 20.517 26.4839 20.3682V20.3688Z" fill="#12CAF7"/>
<path d="M41.6147 20.708C41.2978 20.6204 40.9237 20.4961 40.629 20.7132C40.046 21.1007 39.718 21.7509 39.4162 22.3614C39.0129 23.1866 38.6248 24.0218 38.2064 24.8389C38.0091 25.1756 37.8136 25.5135 37.6087 25.8456C37.5971 26.5962 38.6587 26.5273 38.9552 26.0166C39.9141 24.5762 40.4854 22.9117 41.4729 21.4883C41.6433 21.2624 41.6352 20.9747 41.6147 20.708Z" fill="#38D2FB"/>
<path d="M28.7558 20.8299C28.5632 20.7359 28.3706 20.5999 28.1471 20.6069C27.8868 20.6496 27.6849 20.8398 27.4981 21.0126C26.688 22.0036 26.2439 23.2298 25.6072 24.3317C25.3673 24.9982 24.8093 25.5368 24.751 26.2658C25.0475 26.3183 25.3865 26.4169 25.6556 26.229C26.1388 25.9016 26.384 25.3518 26.653 24.8557C27.1363 23.985 27.5407 23.0739 28.0199 22.2014C28.2609 21.7415 28.6362 21.3487 28.757 20.8305L28.7558 20.8299Z" fill="#38D2FB"/>
<path d="M41.7889 22.886C41.3862 23.4218 41.1265 24.0433 40.8061 24.6281C40.5236 25.1726 40.1717 25.6781 39.8781 26.215C39.71 26.4835 40.1372 26.5593 40.2989 26.662C41.3658 25.7948 41.6687 24.3468 41.814 23.0506C41.8081 23.0097 41.7959 22.9268 41.7895 22.886H41.7889Z" fill="#38D2FB"/>
<path d="M29.0786 23.2542C28.5475 24.0759 28.129 24.9653 27.5699 25.7707C27.3767 26.0445 27.2162 26.3386 27.0493 26.6293C28.366 26.0777 28.8947 24.5626 29.0786 23.2542Z" fill="#38D2FB"/>
<path d="M41.7328 20.7454C41.703 20.736 41.6441 20.7173 41.6149 20.708C41.6359 20.9747 41.6435 21.2625 41.4731 21.4883C40.485 22.9118 39.9142 24.5763 38.9553 26.0167C38.6583 26.5273 37.5972 26.5962 37.6089 25.8457C37.4262 26.19 37.6375 26.539 37.8248 26.8273C37.7052 26.8209 37.5856 26.8157 37.4653 26.8057C38.3326 27.247 39.4963 27.2481 40.2988 26.6627C40.1372 26.56 39.71 26.4836 39.878 26.2157C40.1722 25.6787 40.5235 25.1733 40.806 24.6288C41.1264 24.044 41.3861 23.4225 41.7888 22.8867C41.7952 22.9275 41.8075 23.0104 41.8133 23.0513C41.9242 22.5278 41.9382 21.9873 41.9318 21.4539C41.9061 21.2158 41.9079 20.9269 41.7328 20.7465V20.7454Z" fill="#38D2FB"/>
<path d="M28.8662 20.7175C28.8387 20.7455 28.7833 20.8016 28.7564 20.8296C28.6356 21.3478 28.2604 21.7406 28.0193 22.2005C27.5408 23.0736 27.1357 23.9847 26.6525 24.8549C26.3834 25.3509 26.1383 25.9013 25.6551 26.2281C25.386 26.4161 25.0469 26.3174 24.7504 26.2649C24.8088 25.5359 25.3667 24.9973 25.6066 24.3308C25.5628 24.3121 25.4735 24.2747 25.4298 24.2566C25.3399 24.5111 25.1467 24.6973 24.8835 24.7685C24.7668 24.3996 25.0347 24.0617 24.9961 23.6917C24.6057 24.2205 24.36 24.8333 24.0192 25.3924C23.8143 25.739 23.5884 26.1581 23.1577 26.2474C22.8566 26.3244 22.5869 26.1336 22.3459 25.983C22.3873 26.1657 22.4369 26.3478 22.486 26.5287C22.3832 26.6028 22.2788 26.6752 22.1737 26.7481C21.9484 26.6653 21.7115 26.6145 21.4705 26.6262C21.6321 26.7295 21.7979 26.8281 21.973 26.9057C22.842 27.0645 23.7378 27.0475 24.6197 27.0516C25.4374 27.0154 26.3122 27.0271 27.0493 26.6297C27.2163 26.339 27.3768 26.0449 27.5699 25.7711C28.1285 24.9657 28.5469 24.0763 29.0786 23.2546C29.2735 22.4305 29.3027 21.4774 28.8656 20.7181L28.8662 20.7175Z" fill="#38D2FB"/>
<path d="M39.4164 22.3616C39.3324 22.3312 39.2524 22.2874 39.1649 22.2705C38.3881 22.3254 37.693 22.7578 36.9144 22.7923C36.552 22.787 36.2083 22.909 35.9129 23.1127C35.8598 23.2959 35.798 23.4774 35.7507 23.6625C35.7163 23.8165 35.6917 23.9724 35.6731 24.1299C35.6631 24.4714 35.6801 24.8221 35.7945 25.1478C35.9001 25.2727 36.0139 25.3906 36.1242 25.5114C36.8146 25.3433 37.5103 25.1355 38.108 24.7404C38.1325 24.7649 38.1821 24.8139 38.2066 24.8385C38.625 24.0208 39.0132 23.1862 39.4164 22.361V22.3616Z" fill="#38D2FB"/>
<path d="M27.4975 21.012C27.2653 20.9705 27.0306 20.9414 26.796 20.9192C26.0782 21.7631 25.5202 22.7203 24.9961 23.6914C25.0341 24.0614 24.7668 24.3994 24.8835 24.7682C25.1467 24.697 25.3399 24.5108 25.4298 24.2564C25.4735 24.2745 25.5628 24.3118 25.6066 24.3305C26.2439 23.2292 26.6875 22.0024 27.4975 21.0114V21.012Z" fill="#12CAF7"/>
<path d="M24.4708 21.4048C23.9957 21.6143 23.4594 21.6149 22.9855 21.8291C22.4497 22.076 21.8357 22.0771 21.3111 22.3549C21.0356 22.6625 20.8792 23.0564 20.6942 23.4212C20.6125 23.9272 20.4053 24.4286 20.4946 24.9486C20.5815 25.6034 20.8634 26.2944 21.4716 26.6259C21.7126 26.6142 21.9495 26.6656 22.1748 26.7479C22.2799 26.6755 22.3843 26.6026 22.4871 26.5284C22.438 26.3475 22.3884 26.1654 22.347 25.9827C22.368 25.6267 22.5122 25.297 22.6849 24.9906C23.3071 23.8624 23.8919 22.7144 24.535 21.5985C24.5152 21.5338 24.4936 21.469 24.472 21.4054L24.4708 21.4048Z" fill="#12CAF7"/>
<path d="M38.1072 24.7408C37.5096 25.1353 36.8139 25.3431 36.1235 25.5118C36.0126 25.391 35.8993 25.2731 35.7937 25.1482C35.8474 25.3075 35.9081 25.4651 35.9828 25.6168C36.3651 26.1217 36.8827 26.5553 37.4646 26.8051C37.5848 26.815 37.7045 26.8203 37.8241 26.8267C37.6374 26.5384 37.4255 26.1894 37.6082 25.845C37.813 25.513 38.0086 25.175 38.2058 24.8383C38.1813 24.8138 38.1317 24.7647 38.1072 24.7402V24.7408Z" fill="#12CAF7"/>
<path d="M20.8196 21.7235C20.6795 21.6517 20.5167 21.455 20.3539 21.5788C20.2354 21.6494 20.1257 21.734 20.0148 21.8169C19.9056 21.7854 19.7959 21.7544 19.6862 21.7229C19.5403 21.8624 19.3915 21.9984 19.2526 22.1455C19.0693 22.5838 19.1312 23.0816 19.0605 23.5462C19.0921 24.4566 19.1475 25.4558 19.7259 26.2057C20.2943 26.804 21.2025 26.8419 21.974 26.9055C21.7983 26.8279 21.6332 26.7293 21.4715 26.626C20.8634 26.2945 20.5815 25.6034 20.4945 24.9486C20.4052 24.4286 20.6124 23.9279 20.6941 23.4213C20.5476 22.8575 20.6404 22.2674 20.8202 21.7235H20.8196Z" fill="#07B8EB"/>
<path d="M33.1109 23.2673C33.0508 22.819 32.5565 22.6463 32.1631 22.6282C31.7907 22.6107 31.3536 22.6562 31.1289 22.9959C31.8047 22.8932 32.5214 22.8558 33.1103 23.2678L33.1109 23.2673Z" fill="#0297CC"/>
<path d="M33.1108 23.2672C32.522 22.8552 31.8053 22.8925 31.1294 22.9952L31.0857 22.9987C30.9036 23.475 30.7787 23.9699 30.7063 24.4741C31.4755 23.9267 32.4951 23.7271 33.3875 24.0825C33.304 23.8123 33.2982 23.4878 33.1114 23.2672H33.1108Z" fill="#017DAF"/>
<path d="M14.352 23.825C14.219 23.9622 14.0906 24.1034 13.9622 24.2447C14.1273 24.3433 14.31 24.4081 14.495 24.4577C14.5563 24.4046 14.6158 24.3515 14.6753 24.2978C14.561 24.2534 14.4466 24.2085 14.3316 24.1647C14.3374 24.0509 14.3409 23.9377 14.3514 23.8245L14.352 23.825Z" fill="#FE6805"/>
<path d="M32.6457 24.9987C32.3813 25.0174 32.1187 25.0606 31.8578 25.1084C31.9704 25.2018 32.0842 25.294 32.1998 25.3845C32.4175 25.5234 32.5867 25.7248 32.6276 25.9862C32.4356 26.501 32.2249 27.0525 31.8012 27.4219C31.6039 27.5976 31.3273 27.5182 31.1977 27.3052C30.9567 26.993 30.8218 26.6078 30.8656 26.2109C30.8253 25.9547 30.6094 25.8257 30.3631 25.8619C30.3468 25.8818 30.3129 25.9214 30.296 25.9419C29.7369 26.686 29.2735 27.5287 28.5095 28.0908C28.9601 28.3079 29.4328 28.4853 29.9271 28.5734C32.3416 29.0549 34.8115 29.1004 37.2511 29.3771C38.6652 29.4495 40.0799 29.5726 41.4777 29.8072C41.5425 29.4576 41.274 29.1349 40.96 29.0211C40.6618 28.9446 40.3536 28.9254 40.049 28.8921C40.4248 29.1069 40.9448 29.1927 41.1129 29.645C40.3128 29.3158 39.4292 29.223 38.664 28.8116C38.4994 28.9668 38.3249 29.1897 38.0681 29.1401C37.7273 29.0754 37.4583 28.8361 37.1501 28.6931C36.4071 28.3365 35.649 27.9869 35.0076 27.4616C34.8197 27.2941 34.6119 27.1091 34.5571 26.8529C34.6259 26.6767 34.7491 26.5296 34.8565 26.3761C34.3183 26.0452 33.6764 25.8952 33.053 26.0393C32.8855 25.7055 32.742 25.3594 32.6463 24.9976L32.6457 24.9987Z" fill="#FE6805"/>
<path d="M34.8151 29.8733C32.5559 29.6778 30.222 29.6194 28.1017 28.7241C28.0923 28.8193 28.0824 28.9138 28.0713 29.0095C27.9505 28.9943 27.8285 28.9809 27.7065 28.964C28.4005 29.2114 29.067 29.6153 29.807 29.683C30.9562 29.6282 32.0797 29.913 33.2247 29.9556C33.8235 30.0536 34.4708 29.8318 35.0229 30.161C34.9528 30.0647 34.884 29.9684 34.8151 29.8727V29.8733Z" fill="#FE6805"/>
<path d="M33.8813 25.2084C33.5177 24.9691 33.0654 24.9697 32.6458 24.9983C32.7415 25.3601 32.885 25.7062 33.0525 26.04C33.6759 25.8953 34.3178 26.0459 34.8559 26.3768C34.7486 26.5297 34.626 26.6773 34.5565 26.8536C34.612 27.1104 34.8198 27.2948 35.0071 27.4623C35.6485 27.9882 36.4072 28.3372 37.1496 28.6938C37.4583 28.8368 37.7268 29.076 38.0676 29.1408C38.3244 29.1904 38.4989 28.9675 38.6635 28.8122C39.4287 29.2237 40.3123 29.3165 41.1124 29.6457C40.9443 29.1934 40.4243 29.1076 40.0485 28.8928C39.3919 28.7224 38.7522 28.4837 38.1867 28.1031C37.0953 27.638 35.9467 27.2178 35.052 26.41C34.6552 26.0161 34.3768 25.4955 33.8801 25.2078L33.8813 25.2084Z" fill="#FEBE85"/>
<path d="M32.6278 25.9862C32.5869 25.7248 32.4177 25.5234 32.2 25.3845C32.0506 25.4026 31.8994 25.4178 31.75 25.44C31.8807 25.5386 32.0109 25.639 32.1218 25.7598C32.1194 25.7184 32.1159 25.6361 32.1136 25.5946C32.3657 25.5905 32.4982 25.8047 32.6278 25.9862Z" fill="#694525"/>
<path opacity="0.4" d="M25.669 23.4854C25.8663 23.3459 26.2416 23.0471 26.0192 22.5019C25.7974 21.9568 24.9634 21.8868 24.9634 21.8868L24.9914 21.1596L24.4551 21.1392L24.4271 21.8664L24.0827 21.8535L24.1102 21.1263L23.6252 21.1077L23.5977 21.8349L22.6774 21.8384L22.6569 22.3806L23.237 22.415L23.1448 24.7903L22.5659 24.7851L22.5437 25.3676L23.4425 25.423L23.4145 26.1589L23.9281 26.1782L23.9467 25.4347L24.3004 25.4516L24.2753 26.1916L24.7965 26.2115L24.8251 25.4627C24.8251 25.4627 25.9118 25.6232 26.1756 24.739C26.4394 23.8542 25.6696 23.4842 25.6696 23.4842L25.669 23.4854ZM24.1849 22.2819C24.4101 22.2819 24.6348 22.2808 24.8595 22.2802C24.9494 22.2802 25.0358 22.3193 25.0912 22.3905C25.1683 22.4874 25.2074 22.6111 25.1963 22.736C25.1846 22.8638 25.1245 22.9583 25.0661 23.0214C25.0095 23.0832 24.9284 23.1165 24.8449 23.1153C24.6144 23.1118 24.3833 23.1089 24.1528 23.1054L24.1843 22.2825L24.1849 22.2819ZM25.3725 24.1927C25.3585 24.3719 25.2424 24.5295 25.0755 24.6012C25.0311 24.6205 24.9821 24.6281 24.9336 24.6269C24.6547 24.6228 24.3751 24.6193 24.0961 24.6153L24.1317 23.6873C24.4031 23.6873 24.6745 23.6861 24.9459 23.6855C25.0008 23.6855 25.0562 23.6949 25.1052 23.7206C25.2803 23.811 25.3883 23.9978 25.3725 24.1927Z" fill="#0189BD"/>
<path d="M25.4273 23.3015C25.6246 23.162 25.9999 22.8632 25.7775 22.3181C25.5557 21.773 24.7217 21.703 24.7217 21.703L24.7497 20.9758L24.2134 20.9553L24.1854 21.6825L23.841 21.6697L23.8685 20.9425L23.3835 20.9238L23.356 21.651L22.4357 21.6545L22.4152 22.1967L22.9953 22.2311L22.9031 24.6065L22.3242 24.6013L22.302 25.1837L23.2008 25.2392L23.1728 25.9751L23.6864 25.9944L23.705 25.2508L24.0587 25.2678L24.0336 26.0078L24.5548 26.0276L24.5834 25.2788C24.5834 25.2788 25.6701 25.4393 25.9339 24.5551C26.1977 23.6704 25.4279 23.3004 25.4279 23.3004L25.4273 23.3015ZM23.9432 22.0981C24.1684 22.0981 24.3931 22.0969 24.6178 22.0963C24.7077 22.0963 24.7941 22.1354 24.8495 22.2066C24.9266 22.3035 24.9657 22.4272 24.9546 22.5521C24.9429 22.68 24.8828 22.7745 24.8244 22.8375C24.7678 22.8994 24.6867 22.9327 24.6032 22.9315C24.3727 22.928 24.1416 22.9251 23.9111 22.9216L23.9426 22.0987L23.9432 22.0981ZM25.1308 24.0089C25.1168 24.188 25.0007 24.3456 24.8338 24.4174C24.7894 24.4367 24.7404 24.4443 24.692 24.4431C24.413 24.439 24.1334 24.4355 23.8544 24.4314L23.89 23.5035C24.1614 23.5035 24.4328 23.5023 24.7042 23.5017C24.7591 23.5017 24.8145 23.511 24.8635 23.5367C25.0386 23.6272 25.1466 23.8139 25.1308 24.0089Z" fill="white"/>
<path opacity="0.4" d="M39.8576 23.5927C40.0029 23.49 40.279 23.2699 40.1155 22.8684C39.9521 22.4669 39.3376 22.4155 39.3376 22.4155L39.358 21.8803L38.9629 21.8651L38.9425 22.4003L38.6892 22.3904L38.7096 21.8552L38.3524 21.8418L38.332 22.377L37.6544 22.3793L37.6392 22.7791L38.0664 22.8048L37.9981 24.5545L37.5715 24.5504L37.5552 24.9794L38.217 25.0202L38.1966 25.5624L38.5748 25.577L38.5888 25.0296L38.8491 25.0418L38.831 25.5869L39.2144 25.6015L39.2354 25.05C39.2354 25.05 40.0356 25.1679 40.2299 24.5171C40.4243 23.8658 39.857 23.5933 39.857 23.5933L39.8576 23.5927ZM38.7645 22.7061C38.9302 22.7061 39.0959 22.7056 39.2617 22.705C39.3276 22.705 39.3913 22.7342 39.4327 22.7861C39.4893 22.8573 39.5179 22.9484 39.5097 23.0406C39.501 23.1345 39.4566 23.2046 39.414 23.2507C39.3726 23.2962 39.3125 23.3207 39.2512 23.3195C39.0814 23.3172 38.9115 23.3149 38.7411 23.312L38.7645 22.7061ZM39.6393 24.1133C39.6288 24.2452 39.543 24.3613 39.4204 24.4144C39.3878 24.429 39.3516 24.4343 39.316 24.4337C39.1105 24.4308 38.9045 24.4278 38.6991 24.4249L38.7253 23.7409C38.9255 23.7409 39.1251 23.7403 39.3253 23.7397C39.3656 23.7397 39.4064 23.7468 39.4426 23.7654C39.5716 23.832 39.651 23.9697 39.6399 24.1133H39.6393Z" fill="#0189BD"/>
<path d="M39.6796 23.4574C39.8249 23.3547 40.101 23.1347 39.9376 22.7331C39.7741 22.3316 39.1596 22.2802 39.1596 22.2802L39.18 21.7451L38.7849 21.7299L38.7645 22.2651L38.5112 22.2552L38.5316 21.72L38.1744 21.7065L38.154 22.2417L37.4764 22.2441L37.4612 22.6438L37.8885 22.6695L37.8202 24.4192L37.3935 24.4152L37.3772 24.8441L38.039 24.885L38.0186 25.4272L38.3968 25.4417L38.4108 24.8943L38.6711 24.9066L38.653 25.4517L39.0364 25.4663L39.0575 24.9147C39.0575 24.9147 39.8576 25.0326 40.052 24.3819C40.2463 23.7306 39.679 23.458 39.679 23.458L39.6796 23.4574ZM38.5865 22.5709C38.7522 22.5709 38.918 22.5703 39.0837 22.5697C39.1497 22.5697 39.2133 22.5989 39.2547 22.6509C39.3113 22.7221 39.3399 22.8131 39.3318 22.9053C39.323 22.9993 39.2786 23.0693 39.236 23.1154C39.1946 23.1609 39.1345 23.1855 39.0732 23.1843C38.9034 23.1819 38.7335 23.1796 38.5631 23.1767L38.5865 22.5709ZM39.4613 23.978C39.4508 24.1099 39.365 24.2261 39.2425 24.2792C39.2098 24.2938 39.1736 24.299 39.138 24.2984C38.9326 24.2955 38.7265 24.2926 38.5211 24.2897L38.5474 23.6057C38.7476 23.6057 38.9472 23.6051 39.1473 23.6045C39.1876 23.6045 39.2285 23.6115 39.2646 23.6302C39.3936 23.6967 39.473 23.8344 39.4619 23.978H39.4613Z" fill="white"/>
<path d="M57.3897 49.8426C57.0804 50.2307 56.6199 50.4543 56.1285 50.4543C55.9884 50.4543 55.8466 50.4362 55.7083 50.3994L55.6843 50.3924C55.1095 50.2401 54.5264 50.0901 53.9521 49.9477L53.1263 49.744L52.2958 49.5526C48.0301 48.5575 43.7177 47.7649 39.3487 47.4083C37.142 47.228 34.9131 47.1002 32.6982 47.1002C31.259 47.0739 29.8198 47.0698 28.3806 47.085C26.9577 47.1008 25.5348 47.1358 24.1131 47.1912C22.7678 47.2443 21.4226 47.3155 20.0797 47.4107C18.8727 47.4959 17.667 47.6003 16.4647 47.7346C14.293 47.9768 12.1383 48.4174 10.0057 48.8977C8.37213 49.266 6.70471 49.4971 5.08398 49.9395C4.48518 50.0872 3.88813 50.2407 3.29225 50.3988C3.15568 50.4356 3.01503 50.4537 2.87554 50.4537C1.98551 50.4537 1.26123 49.7288 1.26123 48.837V37.5497C1.26123 36.6609 1.98376 35.9354 2.87321 35.9331L10.5362 35.9115L23.2417 35.8922L26.9168 35.8899L27.3511 35.8911L28.31 35.8899H32.1496C32.1543 35.8899 34.9172 35.8922 35.7214 35.8922C36.3459 35.8934 42.3304 35.9004 42.3304 35.9004L45.6857 35.9062L49.1775 35.9144L54.1103 35.9272L56.059 35.9342C56.586 35.9354 57.0635 36.1829 57.3693 36.6113C57.6751 37.0408 57.7533 37.5737 57.5835 38.0721C57.123 39.4214 56.6508 40.7655 56.181 42.0687L56.1693 42.102L56.1775 42.1364C56.6894 44.1815 57.1948 46.2854 57.6803 48.3923L57.6996 48.4758C57.8105 48.9579 57.6973 49.4563 57.3903 49.8426H57.3897Z" fill="#0F1E28"/>
<path d="M6.96253 46.1389C6.96077 46.7062 6.95786 47.2723 6.95494 47.839C5.591 48.1442 4.23116 48.4763 2.87598 48.8376V37.5503C3.46952 37.5485 4.06366 37.5468 4.65779 37.5444C4.65487 38.9854 4.65253 40.4264 4.64903 41.8668C4.64845 42.3068 4.64728 42.7469 4.64611 43.1869C4.64436 44.3238 4.64203 45.4607 4.63969 46.5971C5.41241 46.4371 6.18747 46.2848 6.96253 46.1395V46.1389Z" fill="#FC9903"/>
<path d="M12.576 41.0333C12.5742 41.3117 12.5713 41.5889 12.5678 41.8662C12.5626 42.308 12.5561 42.7474 12.5486 43.1863C12.5404 43.6427 12.5305 44.0979 12.52 44.5514C12.5019 45.3843 12.3011 46.0058 11.9165 46.4307C11.5319 46.855 10.8981 47.1521 10.0139 47.3242C9.12617 47.4976 8.49352 47.4415 8.11358 47.1293C7.73364 46.8176 7.53987 46.1996 7.53229 45.2839C7.52703 44.5894 7.52353 43.8902 7.52295 43.1863C7.52295 42.748 7.52353 42.308 7.5247 41.8662C7.52528 41.715 7.52587 41.5615 7.52645 41.4092C7.53229 40.1042 7.54629 38.8126 7.56847 37.5362C8.1626 37.5345 8.75732 37.5333 9.35087 37.5316C9.33044 38.3539 9.31643 39.2107 9.30884 40.1024C9.30418 40.6907 9.30126 41.2784 9.29951 41.8662C9.29892 42.1702 9.29892 42.4737 9.29892 42.7778C9.29892 42.9143 9.29892 43.0509 9.29951 43.1863C9.30009 43.9316 9.30242 44.6512 9.30418 45.3451C9.30301 45.5459 9.36546 45.6895 9.49094 45.777C9.61642 45.864 9.79384 45.8873 10.0226 45.8494C10.2549 45.8109 10.4323 45.7292 10.5537 45.6043C10.6745 45.4794 10.7358 45.3201 10.7376 45.1257C10.7481 44.4995 10.758 43.8534 10.7673 43.1869C10.7702 43.0007 10.772 42.814 10.7749 42.6249C10.779 42.3727 10.7813 42.1194 10.7843 41.8667C10.7918 41.2528 10.7959 40.6394 10.7988 40.026C10.8029 39.1599 10.7994 38.3282 10.7889 37.5286C11.3831 37.5275 11.9778 37.5257 12.5719 37.5251C12.5824 38.6825 12.5836 39.8515 12.5754 41.0339L12.576 41.0333Z" fill="#FC9903"/>
<path d="M18.3947 43.1858C18.3947 43.2418 18.3947 43.2996 18.3941 43.3592C18.3923 43.5728 18.3877 43.7648 18.3783 43.934C18.3486 44.6951 18.1367 45.2565 17.7434 45.6295C17.3494 46.0018 16.7133 46.2446 15.8361 46.3631C14.9396 46.4851 14.304 46.4115 13.9282 46.1168C13.5529 45.8238 13.3586 45.2653 13.3452 44.4488C13.3434 44.1348 13.3416 43.7706 13.3416 43.3586C13.3416 43.3014 13.3416 43.2436 13.3411 43.1858C13.3411 42.8257 13.3422 42.454 13.3457 42.0705C13.3463 42.0016 13.3463 41.9339 13.3469 41.8662C13.3504 41.4933 13.3551 41.1303 13.3609 40.7795C13.3685 40.364 13.3749 39.9951 13.3813 39.6724C13.3988 38.9779 13.606 38.4205 14.0029 38.0143C14.3998 37.6058 15.0347 37.4085 15.9061 37.4097C16.7623 37.4097 17.3809 37.5766 17.7626 37.9011C18.1443 38.2262 18.3445 38.7643 18.362 39.5189C18.3655 39.635 18.3667 39.7611 18.3655 39.8959C18.3649 40.0313 18.3614 40.1673 18.3562 40.3021C18.3521 40.4375 18.3468 40.5636 18.3422 40.6797C17.7474 40.7048 17.1521 40.7317 16.5574 40.7609C16.5621 40.6266 16.5673 40.4696 16.5732 40.2869C16.5784 40.1054 16.5819 39.9234 16.5831 39.7413C16.5843 39.5592 16.5837 39.4022 16.5814 39.2685C16.5784 39.0958 16.5172 38.9645 16.3975 38.8728C16.2767 38.7818 16.1098 38.738 15.8956 38.7421C15.6703 38.7468 15.4941 38.7981 15.3692 38.8962C15.2431 38.9942 15.176 39.132 15.1666 39.3094C15.148 39.6957 15.1334 40.1148 15.124 40.5648C15.1147 40.9902 15.1089 41.4244 15.1048 41.8668C15.1048 41.8913 15.1042 41.9153 15.1042 41.9404C15.1007 42.3641 15.1001 42.7802 15.1024 43.187V43.3125C15.1054 43.7595 15.113 44.1739 15.1258 44.555C15.1322 44.7342 15.1976 44.8655 15.3219 44.949C15.4462 45.0312 15.6213 45.0587 15.8477 45.0324C16.0812 45.005 16.2621 44.9367 16.3905 44.827C16.5177 44.7178 16.5843 44.5754 16.5895 44.398C16.5942 44.2684 16.5989 44.1126 16.6024 43.9299C16.6059 43.7484 16.607 43.5669 16.6065 43.3848C16.6065 43.3154 16.6065 43.2494 16.6053 43.187C16.6053 43.0872 16.6035 42.9979 16.6018 42.9185C17.1965 42.8712 17.7918 42.8269 18.3871 42.7866C18.3912 42.908 18.3947 43.0411 18.3953 43.187L18.3947 43.1858Z" fill="#FC9903"/>
<path d="M24.5555 45.4618C23.9497 45.491 23.3444 45.5254 22.7386 45.5651C22.4696 44.776 22.2017 43.9835 21.9338 43.1851C21.8614 42.9697 21.7897 42.755 21.7173 42.539C21.6029 42.7532 21.4879 42.9691 21.3735 43.1851C21.2632 43.3929 21.1523 43.6006 21.042 43.8101C21.0379 44.4375 21.0339 45.0649 21.0292 45.6929C20.4211 45.7425 19.8123 45.7986 19.2036 45.8598C19.2094 44.9686 19.2153 44.0769 19.2223 43.1857C19.2258 42.7456 19.2281 42.3056 19.2316 41.8655C19.2421 40.4146 19.2521 38.9631 19.2626 37.5122C19.897 37.5117 20.5308 37.5111 21.164 37.5111C21.1523 38.1717 21.1395 38.8324 21.1272 39.4936C21.0164 40.1053 20.9055 40.7193 20.7946 41.3356C20.9014 41.3309 21.0088 41.3268 21.1162 41.3227C21.3105 40.7053 21.5054 40.0919 21.6992 39.482C21.9887 38.8184 22.2776 38.1612 22.5665 37.5087C23.2166 37.5082 23.8662 37.5082 24.5158 37.5076C23.9841 38.5989 23.4512 39.7008 22.9172 40.8185C23.0392 41.1687 23.1612 41.5171 23.2826 41.8655C23.4372 42.3073 23.5919 42.7468 23.7466 43.1857C24.0156 43.9479 24.2847 44.706 24.5537 45.4618H24.5555Z" fill="#FC9903"/>
<path d="M30.1266 37.5064C29.6929 38.9591 29.2581 40.4106 28.8222 41.8655C28.6891 42.305 28.5578 42.7445 28.4259 43.1857C28.3967 43.2826 28.3675 43.3801 28.3383 43.4769C28.3378 43.4804 28.3378 43.4828 28.3378 43.4869L28.336 45.3492C27.7384 45.3568 27.1396 45.3679 26.5414 45.3848C26.5431 44.7615 26.5449 44.1376 26.5466 43.5137V43.5044C26.5145 43.3981 26.4836 43.2913 26.4515 43.1851C26.3207 42.7457 26.1894 42.305 26.0581 41.865C25.6297 40.4199 25.2037 38.969 24.7788 37.507C25.3846 37.5064 25.9904 37.5064 26.5968 37.5064C26.7655 38.1432 26.9347 38.7787 27.1034 39.4137C27.1618 40.1835 27.2195 40.9522 27.2779 41.722C27.3894 41.7208 27.5003 41.7185 27.6117 41.7185C27.6724 40.9481 27.7337 40.1794 27.7944 39.4102C27.966 38.7747 28.137 38.1397 28.3074 37.5064C28.9138 37.5059 29.5202 37.5059 30.126 37.5059L30.1266 37.5064Z" fill="#FC9903"/>
<path d="M38.3278 41.8656C38.3278 41.5674 38.3243 41.2685 38.3196 40.9709C38.3132 40.5425 38.3021 40.0908 38.2875 39.6151C38.2665 38.8646 38.0558 38.3242 37.6554 37.9967C37.2551 37.6699 36.6096 37.5088 35.7178 37.5082C34.9136 37.5077 34.1093 37.5077 33.3057 37.5071C33.3103 38.9597 33.315 40.4135 33.3197 41.8656C33.3208 42.3057 33.3226 42.7457 33.3238 43.1858C33.3267 43.9287 33.3284 44.6717 33.3313 45.4146C34.1408 45.4444 34.9497 45.4841 35.7592 45.5343C36.6557 45.5885 37.3029 45.4777 37.701 45.1812C38.0996 44.8859 38.3033 44.3606 38.3143 43.6083C38.3173 43.4653 38.319 43.3247 38.3208 43.1858C38.3254 42.8636 38.3283 42.5537 38.3289 42.2543C38.3295 42.1247 38.3295 41.9952 38.3283 41.8656H38.3278ZM36.5249 43.6865C36.522 43.868 36.4555 44.004 36.3242 44.0945C36.1929 44.1849 36.0026 44.2234 35.7516 44.21C35.5404 44.1995 35.3291 44.1896 35.119 44.1797C35.1178 43.8482 35.1161 43.5178 35.1143 43.1863C35.1126 42.7463 35.1097 42.3057 35.1079 41.8662C35.1038 40.8536 35.0991 39.8404 35.0945 38.8272C35.3046 38.829 35.5147 38.8313 35.7254 38.8337C35.9752 38.8366 36.1654 38.8862 36.2962 38.9837C36.4275 39.0811 36.4958 39.2189 36.5016 39.3974C36.515 39.754 36.5261 40.1118 36.5343 40.4707C36.5419 40.8291 36.5471 41.1874 36.5489 41.544C36.5495 41.6514 36.55 41.76 36.55 41.8668C36.55 42.1166 36.5489 42.3646 36.546 42.6138C36.543 42.8047 36.5407 42.9955 36.5366 43.1869C36.5331 43.3538 36.529 43.5202 36.5249 43.6877V43.6865Z" fill="#FC9903"/>
<path d="M44.171 41.8654C44.1715 42.3072 44.1716 42.7473 44.1698 43.1856C44.1686 43.5503 44.1663 43.9139 44.1622 44.2758C44.1564 45.0742 43.9638 45.6211 43.5838 45.9105C43.2033 46.2012 42.5695 46.2811 41.6795 46.1737C40.7859 46.0658 40.1451 45.8352 39.7564 45.4751C39.3689 45.1145 39.1652 44.5659 39.1489 43.82C39.1442 43.6087 39.1401 43.3974 39.136 43.1856C39.1273 42.7473 39.1203 42.3072 39.1156 41.8654C39.1098 41.4656 39.1063 41.0647 39.1039 40.662C39.0958 39.601 39.0963 38.551 39.1051 37.511C39.6992 37.5116 40.2945 37.5127 40.8881 37.5139C40.8776 38.223 40.8741 38.9619 40.8781 39.7305C40.8817 40.4425 40.8887 41.154 40.8992 41.8654C40.8992 41.9232 40.9003 41.9804 40.9009 42.0382C40.9067 42.4286 40.9126 42.8109 40.919 43.1856C40.9254 43.5503 40.9324 43.9069 40.9383 44.2565C40.9394 44.4299 41.0048 44.5688 41.1326 44.6744C41.2598 44.7806 41.439 44.846 41.669 44.8688C41.9036 44.8933 42.0804 44.8647 42.2006 44.7824C42.3209 44.7001 42.3798 44.5705 42.3792 44.3937C42.3804 43.9997 42.381 43.5976 42.3822 43.185C42.3827 42.8407 42.3827 42.4899 42.3827 42.1327C42.3827 42.044 42.3827 41.9547 42.3822 41.8648C42.381 41.1697 42.3769 40.4746 42.3705 39.7784C42.3623 38.9934 42.3471 38.2388 42.3261 37.5157C42.9203 37.5162 43.515 37.5174 44.1091 37.5192C44.1371 38.6321 44.1564 39.7579 44.1657 40.8966C44.1686 41.2199 44.1698 41.5433 44.171 41.8654Z" fill="#FC9903"/>
<path d="M50.0062 45.0493C49.9875 45.9358 49.785 46.5346 49.3986 46.8393C49.0129 47.1445 48.3849 47.2058 47.5106 47.0476C46.6177 46.8871 45.9798 46.6046 45.5998 46.1955C45.2187 45.7852 45.015 45.1812 44.9888 44.3694C44.9829 44.0571 44.9753 43.6976 44.9683 43.2891C44.9677 43.2546 44.9672 43.2202 44.9666 43.1858C44.9613 42.8082 44.9567 42.4183 44.9532 42.015C44.9526 41.9654 44.9526 41.9152 44.952 41.8656C44.9491 41.4787 44.9485 41.1028 44.9485 40.7392C44.9491 40.3295 44.9502 39.9641 44.9526 39.6455C44.9584 38.9609 45.158 38.4222 45.549 38.0189C45.9401 37.6174 46.5715 37.4096 47.4429 37.4084C48.2979 37.4079 48.9195 37.5911 49.3064 37.9716C49.6928 38.351 49.9006 38.9889 49.9292 39.8748C49.9338 40.0108 49.9373 40.1579 49.9379 40.3167C49.9385 40.4748 49.9379 40.633 49.9344 40.7906C49.9315 40.9487 49.9286 41.0952 49.9251 41.23C49.3321 41.1851 48.7386 41.1413 48.1456 41.0993C48.1485 40.9528 48.1514 40.7795 48.1543 40.5787C48.1561 40.3791 48.1573 40.1783 48.1555 39.9776C48.1543 39.778 48.1514 39.6029 48.1462 39.4564C48.1409 39.2655 48.0773 39.1161 47.9565 39.0099C47.8345 38.9037 47.667 38.8471 47.4534 38.8424C47.2275 38.836 47.053 38.8821 46.9287 38.979C46.805 39.0764 46.7396 39.2171 46.7326 39.4027C46.7198 39.8083 46.7128 40.246 46.7093 40.7176C46.7081 41.094 46.7081 41.4757 46.7093 41.865C46.7099 41.9625 46.7105 42.0617 46.711 42.1597C46.714 42.507 46.7175 42.849 46.7239 43.1852C46.7256 43.3252 46.7285 43.4636 46.7315 43.6013C46.7408 44.0717 46.7548 44.5088 46.7741 44.9127C46.7834 45.1036 46.8505 45.2588 46.9754 45.3796C47.1015 45.5004 47.276 45.578 47.5018 45.6125C47.7347 45.6481 47.9145 45.6242 48.0405 45.5389C48.166 45.4537 48.2302 45.3131 48.2326 45.1193C48.2361 44.9775 48.2372 44.8059 48.2384 44.6051C48.239 44.4044 48.2372 44.2042 48.2343 44.0028C48.2308 43.8021 48.2261 43.6299 48.2215 43.4869C48.8144 43.5552 49.4068 43.6276 49.9998 43.7029C50.0085 43.9013 50.0132 44.1266 50.0149 44.3775C50.0161 44.6285 50.0138 44.852 50.0068 45.0481L50.0062 45.0493Z" fill="#FC9903"/>
<path d="M56.1238 48.8376C55.5297 48.6794 54.9349 48.5271 54.3396 48.3795C53.9965 46.9186 53.651 45.4905 53.3043 44.0945C53.0854 44.5952 52.8666 45.0896 52.6483 45.5775C52.6512 46.3776 52.6541 47.1778 52.6576 47.9779C52.0565 47.8402 51.4542 47.7077 50.8531 47.5799C50.8449 46.1156 50.8379 44.6507 50.8297 43.1864C50.828 42.7463 50.8251 42.3062 50.8233 41.8662C50.8151 40.4229 50.8081 38.9784 50.8005 37.5339C51.4338 37.5357 52.0676 37.538 52.702 37.5392C52.6967 38.3843 52.6921 39.23 52.6874 40.0739C52.6063 40.675 52.5263 41.2726 52.4458 41.8662C52.4224 42.0366 52.3991 42.2082 52.3763 42.378C52.4825 42.3897 52.5893 42.4014 52.6956 42.4125C52.7405 42.2304 52.7854 42.0495 52.8304 41.8662C52.9716 41.2861 53.114 40.6995 53.2564 40.1071C53.5377 39.2685 53.8202 38.4146 54.1039 37.5433C54.7534 37.5462 55.4024 37.5474 56.0526 37.5497C55.5437 39.0385 55.0388 40.476 54.5346 41.8656C54.5165 41.9158 54.4978 41.966 54.4803 42.0156C54.5778 42.4025 54.6752 42.793 54.7733 43.1858C55.2268 45.0125 55.6767 46.8947 56.1238 48.837V48.8376Z" fill="#FC9903"/>
<path opacity="0.5" d="M4.63969 46.5964C5.41241 46.4365 6.18747 46.2842 6.96253 46.1388C6.96077 46.7061 6.95786 47.2722 6.95494 47.8389C5.591 48.1442 4.23116 48.4763 2.87598 48.8375V43.1863H4.64611C4.64436 44.3232 4.64203 45.4601 4.63969 46.5964Z" fill="#CE6501"/>
<path opacity="0.5" d="M12.549 43.1858C12.5409 43.6422 12.5309 44.0974 12.5204 44.5509C12.5023 45.3837 12.3016 46.0053 11.917 46.4302C11.5324 46.8545 10.8985 47.1515 10.0144 47.3237C9.12666 47.497 8.49401 47.441 8.11407 47.1288C7.73413 46.8171 7.54036 46.1991 7.53277 45.2833C7.52752 44.5888 7.52402 43.8896 7.52344 43.1858H9.30058C9.30116 43.9311 9.3035 44.6507 9.30525 45.3446C9.30408 45.5454 9.36653 45.689 9.49201 45.7765C9.61749 45.8635 9.79491 45.8868 10.0237 45.8489C10.256 45.8104 10.4334 45.7286 10.5548 45.6038C10.6756 45.4789 10.7369 45.3195 10.7386 45.1252C10.7491 44.4989 10.7591 43.8529 10.7684 43.1864H12.5485L12.549 43.1858Z" fill="#CE6501"/>
<path opacity="0.5" d="M18.3947 43.1858C18.3947 43.2418 18.3947 43.2996 18.3941 43.3591C18.3923 43.5727 18.3877 43.7647 18.3783 43.934C18.3486 44.695 18.1367 45.2565 17.7434 45.6294C17.3494 46.0018 16.7133 46.2446 15.8361 46.3631C14.9396 46.485 14.304 46.4115 13.9282 46.1168C13.5529 45.8238 13.3586 45.2653 13.3452 44.4488C13.3434 44.1348 13.3416 43.7706 13.3416 43.3585C13.3416 43.3013 13.3416 43.2436 13.3411 43.1858H15.1019V43.3113C15.1048 43.7583 15.1124 44.1727 15.1252 44.5538C15.1316 44.733 15.197 44.8643 15.3213 44.9478C15.4456 45.03 15.6207 45.0575 15.8472 45.0312C16.0806 45.0038 16.2615 44.9355 16.3899 44.8258C16.5172 44.7166 16.5837 44.5742 16.5889 44.3968C16.5936 44.2672 16.5983 44.1114 16.6018 43.9287C16.6053 43.7472 16.6065 43.5657 16.6059 43.3836C16.6059 43.3142 16.6059 43.2482 16.6047 43.1858H18.3947Z" fill="#CE6501"/>
<path opacity="0.5" d="M19.2229 43.1858H21.3735C21.2632 43.3936 21.1523 43.6013 21.042 43.8109C21.0379 44.4382 21.0339 45.0656 21.0292 45.6936C20.4211 45.7432 19.8123 45.7993 19.2036 45.8605C19.2094 44.9693 19.2153 44.0776 19.2223 43.1864L19.2229 43.1858Z" fill="#CE6501"/>
<path opacity="0.5" d="M23.7483 43.1856C24.0174 43.9479 24.2864 44.706 24.5555 45.4618C23.9497 45.491 23.3445 45.5254 22.7387 45.5651C22.4696 44.776 22.2017 43.9835 21.9338 43.1851H23.7477L23.7483 43.1856Z" fill="#CE6501"/>
<path opacity="0.5" d="M26.4517 43.1856H28.4266C28.3975 43.2825 28.3683 43.38 28.3391 43.4769C28.3385 43.4804 28.3385 43.4827 28.3385 43.4868L28.3368 45.3491C27.7391 45.3567 27.1403 45.3678 26.5421 45.3847C26.5439 44.7614 26.5456 44.1375 26.5474 43.5136V43.5043C26.5153 43.3981 26.4843 43.2913 26.4522 43.1851L26.4517 43.1856Z" fill="#CE6501"/>
<path opacity="0.5" d="M38.321 43.1856C38.3192 43.3245 38.3169 43.4652 38.3146 43.6082C38.3035 44.3605 38.0992 44.8857 37.7012 45.1811C37.3031 45.4781 36.6559 45.589 35.7594 45.5342C34.95 45.4845 34.1411 45.4443 33.3316 45.4145C33.3286 44.6716 33.3269 43.9286 33.324 43.1856H35.1145C35.1163 43.5171 35.118 43.8475 35.1192 44.179C35.3299 44.1889 35.5406 44.1988 35.7519 44.2093C36.0028 44.2227 36.1925 44.1842 36.3244 44.0938C36.4551 44.0033 36.5222 43.8673 36.5252 43.6858C36.5298 43.5183 36.5339 43.352 36.5368 43.1851H38.3204L38.321 43.1856Z" fill="#CE6501"/>
<path opacity="0.5" d="M44.17 43.1856C44.1688 43.5504 44.1665 43.914 44.1624 44.2759C44.1566 45.0743 43.964 45.6211 43.584 45.9106C43.2035 46.2012 42.5697 46.2812 41.6797 46.1738C40.7861 46.0658 40.1453 45.8353 39.7566 45.4752C39.3691 45.1145 39.1654 44.5659 39.1491 43.82C39.1444 43.6088 39.1403 43.3975 39.1362 43.1856H40.9192C40.9256 43.5504 40.9326 43.907 40.9385 44.2566C40.9396 44.4299 41.005 44.5688 41.1328 44.6745C41.26 44.7807 41.4392 44.8461 41.6692 44.8688C41.9038 44.8933 42.0806 44.8647 42.2008 44.7824C42.3211 44.7002 42.38 44.5706 42.3794 44.3937C42.3806 43.9998 42.3812 43.5977 42.3824 43.1851H44.1694L44.17 43.1856Z" fill="#CE6501"/>
<path opacity="0.5" d="M50.0138 44.3787C50.015 44.6297 50.0127 44.8532 50.0057 45.0493C49.987 45.9358 49.7845 46.5346 49.3981 46.8393C49.0123 47.1445 48.3844 47.2058 47.5101 47.0476C46.6171 46.8871 45.9792 46.6047 45.5993 46.1956C45.2182 45.7853 45.0145 45.1812 44.9882 44.3694C44.9824 44.0571 44.9748 43.6976 44.9678 43.2891C44.9672 43.2547 44.9666 43.2202 44.9661 43.1858H46.7228C46.7245 43.3259 46.7274 43.4642 46.7304 43.6019C46.7397 44.0723 46.7537 44.5095 46.773 44.9133C46.7823 45.1042 46.8494 45.2594 46.9743 45.3802C47.1004 45.501 47.2749 45.5787 47.5008 45.6131C47.7336 45.6487 47.9134 45.6248 48.0394 45.5396C48.1649 45.4543 48.2291 45.3137 48.2315 45.1199C48.235 44.9781 48.2361 44.8065 48.2373 44.6058C48.2379 44.405 48.2361 44.2048 48.2332 44.0035C48.2297 43.8027 48.225 43.6305 48.2204 43.4875C48.8133 43.5558 49.4057 43.6282 49.9987 43.7035C50.0074 43.9019 50.0121 44.1272 50.0138 44.3781V44.3787Z" fill="#CE6501"/>
<path opacity="0.5" d="M56.1237 48.8375C55.5295 48.6794 54.9348 48.527 54.3395 48.3794C53.9963 46.9186 53.6508 45.4904 53.3042 44.0944C53.0853 44.5952 52.8664 45.0895 52.6482 45.5774C52.6511 46.3775 52.654 47.1777 52.6575 47.9778C52.0564 47.8401 51.4541 47.7076 50.8529 47.5798C50.8448 46.1155 50.8378 44.6506 50.8296 43.1863H54.7732C55.2266 45.013 55.6766 46.8952 56.1237 48.8375Z" fill="#CE6501"/>
</svg>
