<svg width="70" height="70" viewBox="0 0 70 70" fill="none" xmlns="http://www.w3.org/2000/svg">
<g opacity="0.3">
<rect x="37.9167" y="20.4167" width="11.6667" height="11.6667" rx="4" stroke="#8C90B7" stroke-width="1.5"/>
<path d="M13.7611 50.1706L18.8329 45.0989C23.5725 40.3593 31.2569 40.3593 35.9965 45.0989L41.0683 50.1706M41.0683 50.1706L43.1226 48.1163C46.9074 44.3315 53.125 44.6135 56.5516 48.7254L57.756 50.1706M41.0683 50.1706L48.6536 57.756M9.77923 43.8946C8.40692 38.0443 8.40692 31.9557 9.77923 26.1054C11.6794 18.0046 18.0046 11.6794 26.1054 9.77922C31.9557 8.40693 38.0443 8.40692 43.8946 9.77922C51.9954 11.6794 58.3206 18.0046 60.2208 26.1054C61.5931 31.9557 61.5931 38.0443 60.2208 43.8946C58.3206 51.9954 51.9954 58.3206 43.8946 60.2208C38.0443 61.5931 31.9557 61.5931 26.1054 60.2208C18.0046 58.3206 11.6794 51.9954 9.77923 43.8946Z" stroke="#8C90B7" stroke-width="1.5" stroke-linecap="round" stroke-linejoin="round"/>
</g>
</svg>
