<svg width="32" height="33" viewBox="0 0 32 33" fill="none" xmlns="http://www.w3.org/2000/svg">
<circle cx="16" cy="16.5" r="15.5" fill="#25294C" stroke="#3A3E61"/>
<path d="M16 24.5C19.866 24.5 23 21.1421 23 17C23 12.8579 19.866 9.5 16 9.5C12.134 9.5 9 12.8579 9 17C9 21.1421 12.134 24.5 16 24.5Z" stroke="#8C90B7" stroke-width="1.3" stroke-linecap="round" stroke-linejoin="round"/>
<path d="M9 17H23" stroke="#8C90B7" stroke-width="1.3" stroke-linecap="round" stroke-linejoin="round"/>
<path d="M16.0012 9.5C17.7521 11.5538 18.7471 14.219 18.8012 17C18.7471 19.781 17.7521 22.4462 16.0012 24.5C14.2503 22.4462 13.2552 19.781 13.2012 17C13.2552 14.219 14.2503 11.5538 16.0012 9.5Z" stroke="#8C90B7" stroke-width="1.3" stroke-linecap="round" stroke-linejoin="round"/>
</svg>
