<svg width="32" height="33" viewBox="0 0 32 33" fill="none" xmlns="http://www.w3.org/2000/svg">
<circle cx="16" cy="16.5" r="15.5" fill="#25294C" stroke="#3A3E61"/>
<path d="M19 10.5H13C11.3431 10.5 10 11.8431 10 13.5V19.5C10 21.1569 11.3431 22.5 13 22.5H19C20.6569 22.5 22 21.1569 22 19.5V13.5C22 11.8431 20.6569 10.5 19 10.5Z" stroke="#8C90B7" stroke-width="1.3" stroke-linecap="round" stroke-linejoin="round"/>
<path d="M18.3995 16.1219C18.4736 16.6213 18.3883 17.1313 18.1558 17.5793C17.9233 18.0274 17.5554 18.3908 17.1045 18.6177C16.6536 18.8447 16.1426 18.9237 15.6442 18.8435C15.1458 18.7633 14.6854 18.528 14.3284 18.171C13.9715 17.8141 13.7362 17.3537 13.656 16.8553C13.5758 16.3569 13.6548 15.8459 13.8817 15.395C14.1087 14.944 14.472 14.5762 14.9201 14.3437C15.3682 14.1112 15.8782 14.0259 16.3775 14.0999C16.8869 14.1755 17.3584 14.4128 17.7225 14.7769C18.0867 15.141 18.324 15.6126 18.3995 16.1219Z" stroke="#8C90B7" stroke-width="1.3" stroke-linecap="round" stroke-linejoin="round"/>
<path d="M19.3003 13.2H19.3072" stroke="#8C90B7" stroke-width="1.3" stroke-linecap="round" stroke-linejoin="round"/>
</svg>
