<svg width="32" height="33" viewBox="0 0 32 33" fill="none" xmlns="http://www.w3.org/2000/svg">
<circle cx="16" cy="16.5" r="15.5" fill="#25294C" stroke="#3A3E61"/>
<path d="M18.7361 13.6052C19.8249 13.6052 20.8691 14.0377 21.639 14.8076C22.4089 15.5775 22.8414 16.6217 22.8414 17.7105V22.5H20.1046V17.7105C20.1046 17.3476 19.9604 16.9995 19.7038 16.7429C19.4471 16.4863 19.0991 16.3421 18.7361 16.3421C18.3732 16.3421 18.0251 16.4863 17.7685 16.7429C17.5119 16.9995 17.3677 17.3476 17.3677 17.7105V22.5H14.6309V17.7105C14.6309 16.6217 15.0634 15.5775 15.8333 14.8076C16.6032 14.0377 17.6474 13.6052 18.7361 13.6052Z" fill="#8C90B7"/>
<path d="M11.8946 14.2896H9.15771V22.5001H11.8946V14.2896Z" fill="#8C90B7"/>
<path d="M10.5261 12.2369C11.2819 12.2369 11.8946 11.6242 11.8946 10.8684C11.8946 10.1127 11.2819 9.5 10.5261 9.5C9.77038 9.5 9.15771 10.1127 9.15771 10.8684C9.15771 11.6242 9.77038 12.2369 10.5261 12.2369Z" fill="#8C90B7"/>
</svg>
