<svg width="20" height="20" viewBox="0 0 20 20" fill="none" xmlns="http://www.w3.org/2000/svg">
<path d="M6.66663 7.5L9.99996 7.5" stroke="white" stroke-width="1.25" stroke-linecap="round"/>
<path d="M2.40453 12.626L3.01111 12.4754L2.40453 12.626ZM2.40453 7.37396L3.01111 7.52458L2.40453 7.37396ZM17.5955 7.37396L18.2021 7.22334L17.5955 7.37396ZM17.5955 12.626L16.989 12.4754L17.5955 12.626ZM12.5964 17.2158L12.4611 16.6056H12.4611L12.5964 17.2158ZM7.40373 17.2158L7.53894 16.6056L7.40373 17.2158ZM7.40373 2.78421L7.53894 3.39441L7.40373 2.78421ZM12.5964 2.78421L12.7316 2.17401V2.17401L12.5964 2.78421ZM7.0255 17.132L6.89029 17.7422L7.0255 17.132ZM12.9746 17.132L13.1098 17.7422L12.9746 17.132ZM12.9746 2.86802L12.8394 3.47821L12.9746 2.86802ZM7.02551 2.86802L6.89029 2.25782V2.25782L7.02551 2.86802ZM15.5778 12.0864L15.4657 12.7012H15.4657L15.5778 12.0864ZM15.529 12.0775L15.6411 11.4626H15.6411L15.529 12.0775ZM15.529 7.92253L15.6411 8.53739L15.6411 8.53739L15.529 7.92253ZM15.5778 7.91362L15.4657 7.29876L15.4657 7.29876L15.5778 7.91362ZM17.5001 8.73941C17.8163 8.87775 18.1848 8.73352 18.3232 8.41728C18.4615 8.10103 18.3173 7.73252 18.001 7.59419L17.5001 8.73941ZM18.001 12.4058C18.3173 12.2675 18.4615 11.899 18.3232 11.5827C18.1848 11.2665 17.8163 11.1223 17.5001 11.2606L18.001 12.4058ZM13.8152 10.5235L13.2142 10.6952L13.8152 10.5235ZM13.8152 9.47649L14.4161 9.64815L13.8152 9.47649ZM7.16072 3.47822L7.53894 3.39441L7.26852 2.17401L6.89029 2.25782L7.16072 3.47822ZM12.4611 3.39441L12.8394 3.47821L13.1098 2.25782L12.7316 2.17401L12.4611 3.39441ZM12.8394 16.5218L12.4611 16.6056L12.7316 17.826L13.1098 17.7422L12.8394 16.5218ZM7.53894 16.6056L7.16071 16.5218L6.89029 17.7422L7.26852 17.826L7.53894 16.6056ZM3.01111 12.4754C2.60746 10.8498 2.60746 9.15017 3.01111 7.52458L1.79796 7.22333C1.34518 9.04675 1.34518 10.9533 1.79796 12.7767L3.01111 12.4754ZM16.989 7.52458C17.3926 9.15017 17.3926 10.8498 16.989 12.4754L18.2021 12.7767C18.6549 10.9533 18.6549 9.04675 18.2021 7.22334L16.989 7.52458ZM12.4611 16.6056C10.8401 16.9648 9.16002 16.9648 7.53894 16.6056L7.26852 17.826C9.06772 18.2247 10.9324 18.2247 12.7316 17.826L12.4611 16.6056ZM7.53894 3.39441C9.16003 3.0352 10.8401 3.0352 12.4611 3.39441L12.7316 2.17401C10.9324 1.77533 9.06773 1.77533 7.26852 2.17401L7.53894 3.39441ZM7.16071 16.5218C5.12193 16.07 3.5145 14.5027 3.01111 12.4754L1.79796 12.7767C2.41566 15.2643 4.38817 17.1878 6.89029 17.7422L7.16071 16.5218ZM13.1098 17.7422C15.6119 17.1878 17.5844 15.2643 18.2021 12.7767L16.989 12.4754C16.4856 14.5027 14.8781 16.07 12.8394 16.5218L13.1098 17.7422ZM12.8394 3.47821C14.8782 3.92998 16.4856 5.49733 16.989 7.52458L18.2021 7.22334C17.5844 4.73573 15.6119 2.81225 13.1098 2.25782L12.8394 3.47821ZM6.89029 2.25782C4.38817 2.81225 2.41566 4.73573 1.79796 7.22333L3.01111 7.52458C3.5145 5.49733 5.12193 3.92998 7.16072 3.47822L6.89029 2.25782ZM15.6899 11.4715L15.6411 11.4626L15.4169 12.6923L15.4657 12.7012L15.6899 11.4715ZM15.6411 8.53739L15.6899 8.52848L15.4657 7.29876L15.4169 7.30767L15.6411 8.53739ZM15.6899 8.52849C16.3009 8.4171 16.9311 8.49054 17.5001 8.73941L18.001 7.59419C17.2041 7.24561 16.3214 7.14274 15.4657 7.29876L15.6899 8.52849ZM15.4657 12.7012C16.3214 12.8573 17.2041 12.7544 18.001 12.4058L17.5001 11.2606C16.9311 11.5095 16.3009 11.5829 15.6899 11.4715L15.4657 12.7012ZM14.4161 10.3519C14.3504 10.1219 14.3504 9.87811 14.4161 9.64815L13.2142 9.30482C13.0844 9.75919 13.0844 10.2408 13.2142 10.6952L14.4161 10.3519ZM15.4169 7.30766C14.3624 7.49992 13.5086 8.27417 13.2142 9.30482L14.4161 9.64815C14.5799 9.07483 15.0548 8.64429 15.6411 8.53739L15.4169 7.30766ZM15.6411 11.4626C15.0548 11.3557 14.5799 10.9252 14.4161 10.3519L13.2142 10.6952C13.5086 11.7258 14.3624 12.5001 15.4169 12.6923L15.6411 11.4626Z" fill="white"/>
</svg>
