<svg width="12" height="12" viewBox="0 0 12 12" fill="none" xmlns="http://www.w3.org/2000/svg">
<path fill-rule="evenodd" clip-rule="evenodd" d="M10.6964 2.17093C10.9169 2.17093 11.1004 2.35397 11.1004 2.58686V2.80219C11.1004 3.02942 10.9169 3.21812 10.6964 3.21812H1.30491C1.08391 3.21812 0.900391 3.02942 0.900391 2.80219V2.58686C0.900391 2.35397 1.08391 2.17093 1.30491 2.17093H2.95714C3.29277 2.17093 3.58486 1.93237 3.66037 1.59577L3.74689 1.20931C3.88136 0.682882 4.32391 0.333252 4.83038 0.333252H7.1704C7.67137 0.333252 8.11887 0.682882 8.24838 1.18154L8.34097 1.59521C8.41592 1.93237 8.70801 2.17093 9.04419 2.17093H10.6964ZM9.85703 10.0425C10.0295 8.43491 10.3315 4.61561 10.3315 4.57708C10.3426 4.46035 10.3045 4.34985 10.229 4.26088C10.148 4.17759 10.0455 4.12829 9.93253 4.12829H2.07255C1.95903 4.12829 1.85101 4.17759 1.77606 4.26088C1.7 4.34985 1.66253 4.46035 1.66804 4.57708C1.66905 4.58416 1.67989 4.7187 1.698 4.94362C1.77849 5.9428 2.00265 8.72567 2.14751 10.0425C2.25001 11.0126 2.88655 11.6224 3.80856 11.6445C4.52005 11.6609 5.25303 11.6666 6.00254 11.6666C6.70852 11.6666 7.42552 11.6609 8.15905 11.6445C9.11302 11.628 9.74901 11.0291 9.85703 10.0425Z" fill="#E71D36"/>
</svg>
