<svg width="12" height="12" viewBox="0 0 12 12" fill="none" xmlns="http://www.w3.org/2000/svg">
<path fill-rule="evenodd" clip-rule="evenodd" d="M4.26535 11.3075L10.0742 3.79557C10.3899 3.39048 10.5021 2.92214 10.3969 2.44527C10.3057 2.01175 10.0391 1.59956 9.63922 1.28686L8.66407 0.512212C7.81519 -0.162937 6.76287 -0.0918688 6.15953 0.682776L5.50709 1.5292C5.42291 1.63509 5.44395 1.79144 5.54919 1.87672C5.54919 1.87672 7.19783 3.19859 7.23291 3.22702C7.34515 3.33362 7.42934 3.47576 7.45039 3.64632C7.48546 3.98035 7.25395 4.29305 6.91019 4.33569C6.74884 4.35701 6.5945 4.30726 6.48225 4.21487L4.74942 2.83615C4.66523 2.77289 4.53896 2.7864 4.4688 2.87168L0.350704 8.2018C0.0841156 8.53582 -0.0070858 8.96934 0.0841156 9.38864L0.610278 11.6699C0.63834 11.7908 0.743572 11.876 0.869851 11.876L3.18496 11.8476C3.60589 11.8405 3.99876 11.6486 4.26535 11.3075ZM7.50791 10.5968H11.283C11.6513 10.5968 11.9508 10.9003 11.9508 11.2734C11.9508 11.6472 11.6513 11.9499 11.283 11.9499H7.50791C7.1396 11.9499 6.84004 11.6472 6.84004 11.2734C6.84004 10.9003 7.1396 10.5968 7.50791 10.5968Z" fill="#5B93FF"/>
</svg>
