<svg width="32" height="32" viewBox="0 0 32 32" fill="none" xmlns="http://www.w3.org/2000/svg">
<circle cx="16" cy="16" r="15.5" fill="#1E2142" stroke="#292C55"/>
<path d="M6.99299 20V19.0483L9.51784 16.5732C9.75932 16.3293 9.96055 16.1127 10.1215 15.9233C10.2825 15.7339 10.4033 15.5504 10.4838 15.3729C10.5642 15.1953 10.6045 15.0059 10.6045 14.8047C10.6045 14.575 10.5524 14.3786 10.4482 14.2152C10.3441 14.0495 10.2008 13.9216 10.0186 13.8317C9.83626 13.7417 9.62911 13.6967 9.39711 13.6967C9.158 13.6967 8.94848 13.7464 8.76855 13.8459C8.58863 13.9429 8.44895 14.0814 8.34952 14.2614C8.25246 14.4413 8.20392 14.6555 8.20392 14.9041H6.95037C6.95037 14.4425 7.05572 14.0412 7.26642 13.7003C7.47712 13.3594 7.76713 13.0954 8.13645 12.9084C8.50814 12.7214 8.93427 12.6278 9.41486 12.6278C9.90255 12.6278 10.3311 12.719 10.7004 12.9013C11.0697 13.0836 11.3561 13.3333 11.5597 13.6506C11.7657 13.9678 11.8687 14.33 11.8687 14.7372C11.8687 15.0095 11.8166 15.277 11.7124 15.5398C11.6083 15.8026 11.4248 16.0937 11.162 16.4134C10.9016 16.733 10.5358 17.12 10.0647 17.5746L8.81117 18.8494V18.8991H11.9788V20H6.99299ZM15.7323 20.0994C15.2588 20.0994 14.8351 20.0107 14.461 19.8331C14.087 19.6532 13.7899 19.407 13.5697 19.0945C13.3519 18.782 13.2359 18.4245 13.2217 18.022H14.5001C14.5238 18.3203 14.6528 18.5642 14.8872 18.7536C15.1215 18.9406 15.4033 19.0341 15.7323 19.0341C15.9904 19.0341 16.22 18.9749 16.4213 18.8565C16.6225 18.7382 16.7811 18.5736 16.8971 18.3629C17.0131 18.1522 17.0699 17.9119 17.0676 17.642C17.0699 17.3674 17.0119 17.1236 16.8936 16.9105C16.7752 16.6974 16.613 16.5305 16.407 16.4098C16.2011 16.2867 15.9643 16.2251 15.6968 16.2251C15.479 16.2228 15.2648 16.263 15.0541 16.3459C14.8434 16.4287 14.6765 16.5376 14.5534 16.6726L13.3637 16.4773L13.7437 12.7273H17.9624V13.8281H14.8339L14.6244 15.7564H14.667C14.8019 15.5978 14.9925 15.4664 15.2387 15.3622C15.4849 15.2557 15.7548 15.2024 16.0484 15.2024C16.4887 15.2024 16.8817 15.3066 17.2274 15.5149C17.573 15.7209 17.8453 16.005 18.0441 16.3672C18.243 16.7294 18.3424 17.1437 18.3424 17.6101C18.3424 18.0907 18.2311 18.5192 18.0086 18.8956C17.7884 19.2696 17.4819 19.5644 17.0889 19.7798C16.6982 19.9929 16.2461 20.0994 15.7323 20.0994ZM19.6031 20V12.7273H20.9205V16.0689H21.0093L23.8467 12.7273H25.4553L22.6428 15.9908L25.4802 20H23.8964L21.7267 16.8821L20.9205 17.8338V20H19.6031Z" fill="#9B9EB8"/>
</svg>
