<svg width="40" height="40" viewBox="0 0 40 40" fill="none" xmlns="http://www.w3.org/2000/svg">
<rect opacity="0.1" width="40" height="40" rx="20" fill="#F7931A"/>
<path fill-rule="evenodd" clip-rule="evenodd" d="M27.0571 17.7204C27.3755 15.5911 25.7545 14.4466 23.5378 13.6831L24.2569 10.7988L22.5012 10.3613L21.8011 13.1696C21.3396 13.0545 20.8655 12.946 20.3944 12.8385L21.0995 10.0116L19.3449 9.57416L18.6254 12.4575C18.2434 12.3705 17.8683 12.2846 17.5043 12.194L17.5063 12.1849L15.0851 11.5803L14.6181 13.4555C14.6181 13.4555 15.9207 13.7541 15.8933 13.7725C16.6042 13.95 16.7328 14.4206 16.7115 14.7937L15.8923 18.0795C15.9413 18.0919 16.0048 18.1099 16.0749 18.1381L16.0239 18.1254C15.9805 18.1145 15.9355 18.1033 15.8893 18.0922L14.7411 22.6952C14.6542 22.9112 14.4337 23.2354 13.9366 23.1123C13.9542 23.1378 12.6605 22.7938 12.6605 22.7938L11.7888 24.8036L14.0736 25.3731C14.3238 25.4359 14.5711 25.5003 14.8158 25.5641C14.9869 25.6087 15.1567 25.653 15.3254 25.6961L14.5989 28.6135L16.3526 29.051L17.0721 26.1646C17.5512 26.2946 18.0161 26.4146 18.4713 26.5277L17.7542 29.4005L19.51 29.8379L20.2365 26.9261C23.2304 27.4927 25.4815 27.2642 26.4291 24.5563C27.1926 22.376 26.3911 21.1185 24.816 20.2984C25.9632 20.0338 26.8273 19.2793 27.0577 17.7206L27.0572 17.7202L27.0571 17.7204ZM23.0456 23.3455C22.5478 25.3458 19.4168 24.5188 17.9842 24.1404C17.8554 24.1064 17.7403 24.076 17.642 24.0516L18.6062 20.1866C18.7259 20.2165 18.8721 20.2493 19.0379 20.2865L19.0379 20.2865C20.5197 20.6191 23.5557 21.3004 23.0457 23.3455H23.0456ZM19.3351 18.4927C20.5294 18.8115 23.1349 19.5068 23.5886 17.6888H23.5888C24.0521 15.8294 21.5201 15.2688 20.2834 14.995C20.1443 14.9642 20.0216 14.937 19.9214 14.9121L19.0472 18.4174C19.1298 18.4379 19.2266 18.4638 19.3351 18.4927Z" fill="#F7931A"/>
</svg>
