<svg width="40" height="40" viewBox="0 0 40 40" fill="none" xmlns="http://www.w3.org/2000/svg">
<rect width="40" height="40" rx="20" fill="#50AF95"/>
<path d="M35.5177 23.8705C33.3808 32.442 24.6992 37.6584 16.1267 35.521C7.55778 33.3841 2.34132 24.702 4.47918 16.1312C6.61515 7.5587 15.2967 2.34186 23.8666 4.47877C32.4385 6.61569 37.6546 15.2987 35.5175 23.8706L35.5176 23.8705H35.5177Z" fill="#50AF95"/>
<path fill-rule="evenodd" clip-rule="evenodd" d="M22.0246 21.8139C21.9115 21.8224 21.327 21.8573 20.0231 21.8573C18.986 21.8573 18.2497 21.8262 17.9914 21.8139C13.9836 21.6376 10.9921 20.94 10.9921 20.1047C10.9921 19.2693 13.9836 18.5726 17.9914 18.3935V21.1191C18.2535 21.1379 19.004 21.1823 20.041 21.1823C21.2855 21.1823 21.9087 21.1304 22.0209 21.12V18.3954C26.0202 18.5736 29.005 19.2712 29.005 20.1047C29.005 20.9381 26.0211 21.6357 22.0209 21.813L22.0246 21.8139ZM22.0246 18.1135V15.6745H27.6059V11.9552H12.4101V15.6745H17.9905V18.1125C13.4547 18.3209 10.0437 19.2194 10.0437 20.296C10.0437 21.3727 13.4547 22.2702 17.9905 22.4795V30.2952H22.0237V22.4767C26.5491 22.2684 29.9544 21.3708 29.9544 20.2951C29.9544 19.2194 26.5519 18.3218 22.0237 18.1125L22.0246 18.1135Z" fill="white"/>
</svg>
